<svg width="133" height="80" viewBox="0 0 133 80" fill="none" xmlns="http://www.w3.org/2000/svg">
<path d="M79.3275 79.9996C97.2202 79.9996 111.725 65.4888 111.725 47.5889C111.725 29.689 97.2202 15.1782 79.3275 15.1782C61.4348 15.1782 46.9299 29.689 46.9299 47.5889C46.9299 65.4888 61.4348 79.9996 79.3275 79.9996Z" fill="white"/>
<path d="M90.3673 0.426869C89.5275 3.03797 93.2653 2.12581 106.673 12.4235C114.708 18.5979 118.915 25.6044 118.161 33.6644C116.276 53.7877 85.6857 66.5044 48.9265 63.3786C11.6021 60.2047 2.01234 44.2181 0.196769 46.2664C-2.61056 50.1844 24.8496 74.7991 67.97 74.3884C104.839 74.039 134.661 56.02 132.888 35.7847C131.864 24.0868 125.652 17.5897 111.983 8.5802C106.489 4.95827 91.1938 -1.74949 90.3673 0.4242V0.426869Z" fill="#EE4345"/>
</svg>
