<svg width="272" height="217" viewBox="0 0 272 217" fill="none" xmlns="http://www.w3.org/2000/svg">
<path d="M271.719 177.868H0.28125V178.004H271.719V177.868Z" fill="#EBEBEB"/>
<path d="M244.521 186.603H226.541V186.739H244.521V186.603Z" fill="#EBEBEB"/>
<path d="M180.092 188.08H175.375V188.216H180.092V188.08Z" fill="#EBEBEB"/>
<path d="M225.998 181.565H215.58V181.701H225.998V181.565Z" fill="#EBEBEB"/>
<path d="M52.2073 182.477H28.7605V182.613H52.2073V182.477Z" fill="#EBEBEB"/>
<path d="M60.4807 182.477H57.0443V182.613H60.4807V182.477Z" fill="#EBEBEB"/>
<path d="M122.51 184.768H71.653V184.904H122.51V184.768Z" fill="#EBEBEB"/>
<path d="M128.943 153.656H24.1189C23.2977 153.655 22.5106 153.328 21.9305 152.746C21.3503 152.165 21.0245 151.378 21.0245 150.556V3.20378C21.0316 2.38731 21.3606 1.60663 21.94 1.03131C22.5194 0.455992 23.3024 0.132502 24.1189 0.131104H128.943C129.765 0.131104 130.553 0.457691 131.135 1.03902C131.716 1.62035 132.042 2.4088 132.042 3.23092V150.556C132.042 151.378 131.716 152.167 131.135 152.748C130.553 153.33 129.765 153.656 128.943 153.656ZM24.1189 0.239679C23.3337 0.241117 22.5812 0.554039 22.0265 1.10976C21.4718 1.66548 21.1602 2.41859 21.1602 3.20378V150.556C21.1602 151.342 21.4718 152.095 22.0265 152.65C22.5812 153.206 23.3337 153.519 24.1189 153.52H128.943C129.728 153.519 130.481 153.206 131.037 152.651C131.593 152.095 131.905 151.342 131.907 150.556V3.20378C131.905 2.41809 131.593 1.66499 131.037 1.10943C130.481 0.553862 129.728 0.241114 128.943 0.239679H24.1189Z" fill="#EBEBEB"/>
<path d="M246.372 153.656H141.543C140.721 153.655 139.933 153.328 139.352 152.747C138.771 152.166 138.444 151.378 138.443 150.556V3.20378C138.452 2.38681 138.782 1.60614 139.362 1.03097C139.942 0.455802 140.726 0.132487 141.543 0.131104H246.372C247.187 0.133929 247.969 0.45805 248.547 1.03321C249.125 1.60838 249.454 2.38824 249.461 3.20378V150.556C249.461 151.377 249.136 152.163 248.557 152.744C247.978 153.325 247.192 153.653 246.372 153.656ZM141.543 0.239679C140.757 0.241114 140.004 0.553862 139.448 1.10943C138.893 1.66499 138.58 2.41809 138.579 3.20378V150.556C138.58 151.342 138.893 152.095 139.448 152.651C140.004 153.206 140.757 153.519 141.543 153.52H246.372C247.158 153.519 247.911 153.206 248.466 152.651C249.022 152.095 249.335 151.342 249.336 150.556V3.20378C249.335 2.41809 249.022 1.66499 248.466 1.10943C247.911 0.553862 247.158 0.241114 246.372 0.239679H141.543Z" fill="#EBEBEB"/>
<path d="M241.426 10.7986H152.151V90.0149H241.426V10.7986Z" fill="#E6E6E6"/>
<path d="M239.07 12.9702H154.382V87.887H239.07V12.9702Z" fill="#F0F0F0"/>
<path d="M174.262 12.9702L154.382 87.7241V52.6001L164.876 12.9702H174.262Z" fill="white"/>
<path d="M181.298 12.9702L161.249 87.887H158.052L178.1 12.9702H181.298Z" fill="white"/>
<path d="M239.07 60.2437V72.214L235.015 87.8868H231.817L239.07 60.2437Z" fill="white"/>
<path d="M183.925 11.624H182.497V89.5592H183.925V11.624Z" fill="#E6E6E6"/>
<path d="M211.568 11.624H210.14V89.5592H211.568V11.624Z" fill="#E6E6E6"/>
<path d="M77.983 133.706H28.7605V177.847H77.983V133.706Z" fill="#F5F5F5"/>
<path d="M45.8936 133.706H28.7605V177.847H45.8936V133.706Z" fill="#EBEBEB"/>
<path d="M87.7764 90.4712H38.554V134.612H87.7764V90.4712Z" fill="#EBEBEB"/>
<path d="M55.6871 90.4712H38.554V134.612H55.6871V90.4712Z" fill="#E0E0E0"/>
<path d="M77.983 46.4602H28.7605V90.6014H77.983V46.4602Z" fill="#F5F5F5"/>
<path d="M45.8936 46.4602H28.7605V90.6014H45.8936V46.4602Z" fill="#EBEBEB"/>
<path d="M131.548 133.743H82.3259V177.885H131.548V133.743Z" fill="#EBEBEB"/>
<path d="M99.4591 133.743H82.3259V177.885H99.4591V133.743Z" fill="#E0E0E0"/>
<path d="M136.999 107.007H87.7764V134.655H136.999V107.007Z" fill="#F5F5F5"/>
<path d="M104.91 107.007H87.7764V134.655H104.91V107.007Z" fill="#E6E6E6"/>
<path d="M115.756 63.3271H83.9546V107.468H115.756V63.3271Z" fill="#EBEBEB"/>
<path d="M95.0238 63.3271H83.9546V107.468H95.0238V63.3271Z" fill="#E0E0E0"/>
<path d="M188.393 177.928H237.615V133.787H188.393V177.928Z" fill="#F5F5F5"/>
<path d="M220.482 177.928H237.615V133.787H220.482V177.928Z" fill="#E6E6E6"/>
<path d="M178.594 134.694H227.816V98.7607H178.594V134.694Z" fill="#EBEBEB"/>
<path d="M210.689 134.694H227.822V98.7607H210.689V134.694Z" fill="#E0E0E0"/>
<path d="M190.146 98.7607H237.615V81.1716H190.146V98.7607Z" fill="#F5F5F5"/>
<path d="M221.101 98.7607H237.621V81.1716H221.101V98.7607Z" fill="#E6E6E6"/>
<path d="M144.5 216.869C206.072 216.869 255.987 213.955 255.987 210.36C255.987 206.765 206.072 203.851 144.5 203.851C82.9276 203.851 33.0132 206.765 33.0132 210.36C33.0132 213.955 82.9276 216.869 144.5 216.869Z" fill="#F5F5F5"/>
<path d="M154.712 58.7227H72.5157C70.2134 58.7227 68.347 60.5891 68.347 62.8914V185.809C68.347 188.111 70.2134 189.978 72.5157 189.978H154.712C157.014 189.978 158.881 188.111 158.881 185.809V62.8914C158.881 60.5891 157.014 58.7227 154.712 58.7227Z" fill="#263238"/>
<path opacity="0.4" d="M154.712 58.7227H72.5157C70.2134 58.7227 68.347 60.5891 68.347 62.8914V185.809C68.347 188.111 70.2134 189.978 72.5157 189.978H154.712C157.014 189.978 158.881 188.111 158.881 185.809V62.8914C158.881 60.5891 157.014 58.7227 154.712 58.7227Z" fill="white"/>
<path opacity="0.2" d="M154.568 68.3308H76.1152V184.872H154.568V68.3308Z" fill="black"/>
<path d="M116.02 57.0032C116.02 56.3643 115.766 55.7515 115.315 55.2996C114.863 54.8478 114.25 54.594 113.611 54.594C112.972 54.594 112.359 54.8478 111.907 55.2996C111.456 55.7515 111.202 56.3643 111.202 57.0032H93.9517C93.7922 57.0025 93.6341 57.0333 93.4865 57.094C93.339 57.1547 93.2049 57.2441 93.0921 57.3569C92.9793 57.4697 92.89 57.6038 92.8293 57.7513C92.7686 57.8989 92.7377 58.057 92.7384 58.2165V70.7687H134.443V58.2165C134.444 58.057 134.413 57.8989 134.352 57.7513C134.292 57.6038 134.202 57.4697 134.09 57.3569C133.977 57.2441 133.843 57.1547 133.695 57.094C133.548 57.0333 133.389 57.0025 133.23 57.0032H116.02ZM113.611 55.744C113.86 55.744 114.103 55.8178 114.311 55.9562C114.518 56.0946 114.679 56.2913 114.774 56.5214C114.87 56.7515 114.895 57.0046 114.846 57.2489C114.797 57.4932 114.677 57.7176 114.501 57.8937C114.325 58.0698 114.101 58.1897 113.857 58.2383C113.612 58.2869 113.359 58.262 113.129 58.1666C112.899 58.0713 112.702 57.9099 112.564 57.7029C112.426 57.4958 112.352 57.2523 112.352 57.0032C112.352 56.6693 112.484 56.349 112.721 56.1128C112.957 55.8767 113.277 55.744 113.611 55.744Z" fill="#263238"/>
<path d="M152.837 66.6057H74.3845V183.147H152.837V66.6057Z" fill="#002F5D"/>
<path opacity="0.7" d="M152.837 66.6057H74.3845V183.147H152.837V66.6057Z" fill="white"/>
<g opacity="0.4">
<path d="M140.452 79.5029H86.77V82.3779H140.452V79.5029Z" fill="black"/>
</g>
<g opacity="0.4">
<path d="M140.458 89.7148H92.5257V90.8648H140.458V89.7148Z" fill="black"/>
</g>
<g opacity="0.4">
<path d="M140.452 94.1711H86.77V95.3211H140.452V94.1711Z" fill="black"/>
</g>
<g opacity="0.4">
<path d="M140.452 98.6274H86.77V99.7774H140.452V98.6274Z" fill="black"/>
</g>
<g opacity="0.4">
<path d="M140.452 103.089H86.77V104.239H140.452V103.089Z" fill="black"/>
</g>
<g opacity="0.4">
<path d="M140.452 107.546H86.77V108.696H140.452V107.546Z" fill="black"/>
</g>
<g opacity="0.4">
<path d="M140.452 112.002H86.77V113.152H140.452V112.002Z" fill="black"/>
</g>
<g opacity="0.4">
<path d="M111.685 116.458H86.77V117.608H111.685V116.458Z" fill="black"/>
</g>
<g opacity="0.4">
<path d="M96.2 134.588H86.77V125.193H96.2V134.588ZM87.9487 133.438H95.05V126.343H87.92L87.9487 133.438Z" fill="black"/>
</g>
<g opacity="0.4">
<path d="M140.458 127.573H99.2302V128.723H140.458V127.573Z" fill="black"/>
<path d="M127.325 131.058H99.2302V132.208H127.325V131.058Z" fill="black"/>
</g>
<g opacity="0.4">
<path d="M96.2 151.85H86.77V142.454H96.2V151.85ZM87.9487 150.7H95.05V143.604H87.92L87.9487 150.7Z" fill="black"/>
</g>
<g opacity="0.4">
<path d="M140.458 144.834H99.2302V145.984H140.458V144.834Z" fill="black"/>
<path d="M127.325 148.319H99.2302V149.469H127.325V148.319Z" fill="black"/>
</g>
<g opacity="0.4">
<path d="M96.2 169.111H86.77V159.71H96.2V169.111ZM87.9487 167.961H95.05V160.86H87.92L87.9487 167.961Z" fill="black"/>
</g>
<g opacity="0.4">
<path d="M140.458 162.09H99.2302V163.24H140.458V162.09Z" fill="black"/>
<path d="M127.325 165.581H99.2302V166.731H127.325V165.581Z" fill="black"/>
</g>
<path d="M90.4672 132.547L88.7882 130.23L89.7197 129.551L90.565 130.724L93.2617 127.757L94.1127 128.533L90.4672 132.547Z" fill="#002F5D"/>
<path d="M90.4672 149.803L88.7882 147.485L89.7197 146.813L90.565 147.986L93.2617 145.019L94.1127 145.795L90.4672 149.803Z" fill="#002F5D"/>
<path d="M90.4672 167.064L88.7882 164.747L89.7197 164.074L90.565 165.247L93.2617 162.28L94.1127 163.056L90.4672 167.064Z" fill="#002F5D"/>
<g opacity="0.2">
<path d="M128.141 74.2129H100.225C99.9816 74.2197 99.7396 74.1738 99.5155 74.0784C99.2914 73.9831 99.0906 73.8404 98.9268 73.6602C98.763 73.48 98.6401 73.2666 98.5664 73.0344C98.4927 72.8023 98.4701 72.5571 98.5 72.3154L99.2647 64.8404C99.3169 64.314 99.5607 63.8251 99.9498 63.4668C100.339 63.1084 100.846 62.9056 101.375 62.8969H129.274C129.518 62.889 129.761 62.9343 129.986 63.0297C130.211 63.1251 130.413 63.2683 130.577 63.4493C130.741 63.6304 130.864 63.845 130.937 64.0783C131.01 64.3115 131.031 64.5578 130.999 64.8001L130.234 72.2751C130.182 72.7981 129.941 73.2839 129.555 73.6409C129.17 73.9979 128.667 74.2014 128.141 74.2129ZM101.272 64.0469C101.066 64.0511 100.868 64.1297 100.716 64.2682C100.564 64.4067 100.467 64.5957 100.443 64.8001L99.6787 72.2751C99.6672 72.3702 99.6762 72.4667 99.7052 72.558C99.7342 72.6492 99.7826 72.7332 99.847 72.8041C99.9113 72.8751 99.9902 72.9313 100.078 72.969C100.166 73.0067 100.261 73.025 100.357 73.0226H128.256C128.461 73.0186 128.658 72.9408 128.81 72.8035C128.962 72.6661 129.059 72.4785 129.084 72.2751L129.849 64.8001C129.861 64.7051 129.853 64.6085 129.825 64.5169C129.797 64.4254 129.749 64.341 129.685 64.2695C129.621 64.198 129.543 64.1411 129.455 64.1027C129.367 64.0643 129.272 64.0452 129.176 64.0469H101.272Z" fill="black"/>
</g>
<path d="M127.566 73.638H99.65C99.1462 73.638 98.663 73.4383 98.3062 73.0826C97.9494 72.7269 97.7483 72.2443 97.7467 71.7405V64.2655C97.7414 64.0122 97.7866 63.7604 97.8799 63.5248C97.9731 63.2892 98.1125 63.0746 98.2897 62.8936C98.467 62.7126 98.6786 62.5688 98.9122 62.4706C99.1458 62.3725 99.3966 62.322 99.65 62.322H127.555C128.06 62.322 128.544 62.5225 128.901 62.8795C129.257 63.2364 129.458 63.7205 129.458 64.2253V71.7003C129.463 71.9521 129.417 72.2024 129.324 72.4366C129.231 72.6707 129.093 72.8841 128.917 73.0643C128.741 73.2446 128.531 73.3881 128.299 73.4866C128.067 73.5851 127.818 73.6365 127.566 73.638ZM99.65 63.472C99.4502 63.472 99.2586 63.5514 99.1174 63.6926C98.9761 63.8339 98.8967 64.0255 98.8967 64.2253V71.7003C98.8983 71.899 98.9783 72.0892 99.1194 72.2292C99.2605 72.3692 99.4512 72.4478 99.65 72.4478H127.555C127.754 72.4478 127.944 72.3692 128.085 72.2292C128.226 72.0892 128.306 71.899 128.308 71.7003V64.2253C128.308 64.0255 128.229 63.8339 128.087 63.6926C127.946 63.5514 127.755 63.472 127.555 63.472H99.65Z" fill="white"/>
<path d="M124.582 60.5625H102.64C102.167 60.5625 101.783 60.9461 101.783 61.4192V64.4093C101.783 64.8824 102.167 65.266 102.64 65.266H124.582C125.055 65.266 125.439 64.8824 125.439 64.4093V61.4192C125.439 60.9461 125.055 60.5625 124.582 60.5625Z" fill="#263238"/>
<path opacity="0.1" d="M124.582 60.5625H102.64C102.167 60.5625 101.783 60.9461 101.783 61.4192V64.4093C101.783 64.8824 102.167 65.266 102.64 65.266H124.582C125.055 65.266 125.439 64.8824 125.439 64.4093V61.4192C125.439 60.9461 125.055 60.5625 124.582 60.5625Z" fill="white"/>
<path d="M181.881 185.527H148.168V209.079H181.881V185.527Z" fill="#002F5D"/>
<path opacity="0.2" d="M181.881 185.527H148.168V209.079H181.881V185.527Z" fill="white"/>
<path opacity="0.2" d="M156.632 185.521H148.168V209.073H181.881L156.632 208.343V185.521Z" fill="black"/>
<path opacity="0.7" d="M153.177 185.527H151.13V186.832H153.177V185.527Z" fill="white"/>
<path opacity="0.7" d="M153.177 207.768H151.13V209.073H153.177V207.768Z" fill="white"/>
<path d="M178.655 192.352L178.649 192.375L177.58 195.089L177.177 196.107L176.418 194.739L174.935 195.222L176.418 191.467L177.356 191.841L178.603 192.329L178.655 192.352Z" fill="#263238"/>
<g opacity="0.2">
<path d="M177.183 195.607L176.539 194.457L175.268 194.871L176.55 191.616L178.471 192.375L177.183 195.607ZM176.562 194.376L177.177 195.492L178.402 192.387L176.579 191.697L175.354 194.802L176.562 194.376Z" fill="white"/>
</g>
<path opacity="0.2" d="M178.649 192.375L177.58 195.089C177.18 194.141 176.942 193.132 176.878 192.105L177.356 191.841L178.603 192.329L178.649 192.375Z" fill="black"/>
<path d="M178.408 196.107L179.161 194.739L180.644 195.222L179.167 191.467L176.924 192.352L178.408 196.107Z" fill="#263238"/>
<g opacity="0.2">
<path d="M177.114 192.358L179.029 191.599L180.311 194.854L179.04 194.44L178.396 195.59L177.114 192.358ZM180.225 194.773L179 191.697L177.177 192.416L178.402 195.521L179.017 194.405L180.225 194.773Z" fill="white"/>
</g>
<path d="M177.793 187.039L178.057 186.832L178.281 187.085L178.575 186.924L178.753 187.212L179.075 187.114L179.196 187.425L179.529 187.384L179.592 187.712L179.926 187.735L179.932 188.069L180.259 188.149L180.202 188.477L180.512 188.615L180.397 188.931L180.673 189.121L180.507 189.408L180.742 189.644L180.524 189.897L180.719 190.173L180.461 190.386L180.604 190.691L180.305 190.852L180.397 191.179L180.075 191.283L180.104 191.622L179.771 191.668L179.736 192.002L179.397 191.99L179.305 192.318L178.977 192.243L178.828 192.548L178.517 192.416L178.316 192.686L178.034 192.502L177.793 192.732L177.545 192.502L177.264 192.686L177.062 192.416L176.752 192.548L176.602 192.243L176.275 192.318L176.183 191.99L175.843 192.002L175.809 191.668L175.481 191.622L175.504 191.283L175.188 191.179L175.274 190.852L174.975 190.691L175.119 190.386L174.86 190.173L175.056 189.897L174.837 189.644L175.079 189.408L174.906 189.121L175.188 188.931L175.073 188.615L175.378 188.477L175.32 188.149L175.648 188.069L175.654 187.735L175.987 187.712L176.05 187.384L176.384 187.425L176.505 187.114L176.827 187.212L177.005 186.924L177.304 187.085L177.528 186.832L177.793 187.039Z" fill="#002F5D"/>
<path opacity="0.2" d="M180.334 189.782C180.335 190.286 180.187 190.78 179.907 191.199C179.628 191.619 179.23 191.946 178.764 192.14C178.299 192.333 177.786 192.384 177.291 192.286C176.797 192.188 176.342 191.945 175.986 191.589C175.629 191.232 175.386 190.778 175.288 190.283C175.19 189.789 175.241 189.276 175.435 188.81C175.628 188.345 175.955 187.947 176.375 187.667C176.795 187.388 177.288 187.239 177.793 187.24C178.466 187.242 179.112 187.51 179.588 187.987C180.064 188.463 180.332 189.108 180.334 189.782Z" fill="black"/>
<path d="M176.608 189.88L177.183 189.828C177.261 189.378 177.275 188.919 177.223 188.465C177.326 188.45 177.431 188.45 177.534 188.465C177.637 188.465 177.746 189.523 177.746 189.523C178.127 189.463 178.511 189.427 178.896 189.414C178.94 189.508 178.963 189.61 178.965 189.713C178.968 189.745 178.959 189.777 178.94 189.804C178.921 189.83 178.893 189.849 178.862 189.857H178.827V190.892C178.829 190.93 178.816 190.968 178.79 190.997C178.764 191.026 178.728 191.044 178.689 191.047L177.683 191.128C177.583 191.133 177.484 191.112 177.396 191.064L177.281 190.995L176.66 191.081L176.608 189.88Z" fill="#002F5D"/>
<path opacity="0.7" d="M176.608 189.88L177.183 189.828C177.261 189.378 177.275 188.919 177.223 188.465C177.326 188.45 177.431 188.45 177.534 188.465C177.637 188.465 177.746 189.523 177.746 189.523C178.127 189.463 178.511 189.427 178.896 189.414C178.94 189.508 178.963 189.61 178.965 189.713C178.968 189.745 178.959 189.777 178.94 189.804C178.921 189.83 178.893 189.849 178.862 189.857H178.827V190.892C178.829 190.93 178.816 190.968 178.79 190.997C178.764 191.026 178.728 191.044 178.689 191.047L177.683 191.128C177.583 191.133 177.484 191.112 177.396 191.064L177.281 190.995L176.66 191.081L176.608 189.88Z" fill="white"/>
<path opacity="0.2" d="M156.632 185.521L147.887 195.089V185.521H156.632Z" fill="black"/>
<path d="M169.978 161.975H136.266V185.527H169.978V161.975Z" fill="#002F5D"/>
<path opacity="0.2" d="M169.978 161.975H136.266V185.527H169.978V161.975Z" fill="white"/>
<path opacity="0.2" d="M144.73 161.975H136.266V185.521H169.978L144.73 184.791V161.975Z" fill="black"/>
<path opacity="0.7" d="M141.274 161.975H139.227V163.28H141.274V161.975Z" fill="white"/>
<path opacity="0.7" d="M141.274 184.216H139.227V185.521H141.274V184.216Z" fill="white"/>
<path d="M166.758 168.8L166.747 168.823L165.677 171.537L165.275 172.555L164.521 171.187L163.032 171.67L164.516 167.915L165.459 168.289L166.701 168.777L166.758 168.8Z" fill="#263238"/>
<g opacity="0.2">
<path d="M165.286 172.055L164.636 170.905L163.366 171.319L164.648 168.07L166.568 168.823L165.286 172.055ZM164.659 170.824L165.275 171.94L166.505 168.835L164.677 168.122L163.452 171.227L164.659 170.824Z" fill="white"/>
</g>
<path opacity="0.2" d="M166.747 168.823L165.677 171.537C165.277 170.589 165.04 169.58 164.976 168.553L165.459 168.289L166.701 168.777L166.747 168.823Z" fill="black"/>
<path d="M166.505 172.555L167.258 171.187L168.748 171.67L167.264 167.915L165.022 168.8L166.505 172.555Z" fill="#263238"/>
<g opacity="0.2">
<path d="M165.2 168.806L167.115 168.053L168.403 171.302L167.132 170.888L166.482 172.038L165.2 168.806ZM168.316 171.221L167.092 168.116L165.263 168.835L166.488 171.94L167.103 170.824L168.316 171.221Z" fill="white"/>
</g>
<path d="M165.89 163.487L166.154 163.28L166.379 163.533L166.678 163.372L166.85 163.66L167.172 163.562L167.293 163.873L167.626 163.832L167.69 164.166L168.029 164.183V164.517L168.357 164.597L168.299 164.925L168.61 165.063L168.495 165.379L168.771 165.569L168.604 165.856L168.845 166.092L168.627 166.351L168.822 166.621L168.558 166.834L168.702 167.139L168.408 167.3L168.495 167.627L168.173 167.737L168.201 168.07L167.868 168.116L167.833 168.45L167.5 168.444L167.408 168.766L167.074 168.691L166.931 168.996L166.62 168.864L166.419 169.134L166.137 168.95L165.89 169.186L165.643 168.95L165.361 169.134L165.16 168.864L164.849 168.996L164.7 168.691L164.372 168.766L164.28 168.444L163.941 168.45L163.912 168.116L163.578 168.07L163.607 167.737L163.285 167.627L163.371 167.3L163.078 167.139L163.222 166.834L162.957 166.621L163.153 166.351L162.934 166.092L163.176 165.856L163.009 165.569L163.285 165.379L163.17 165.063L163.475 164.925L163.423 164.597L163.751 164.517V164.183L164.09 164.166L164.153 163.832L164.487 163.873L164.608 163.562L164.93 163.66L165.102 163.372L165.401 163.533L165.625 163.28L165.89 163.487Z" fill="#002F5D"/>
<path opacity="0.2" d="M168.432 166.23C168.433 166.734 168.284 167.228 168.005 167.647C167.725 168.067 167.327 168.394 166.862 168.588C166.396 168.781 165.883 168.832 165.389 168.734C164.894 168.636 164.44 168.393 164.083 168.037C163.727 167.68 163.484 167.226 163.386 166.731C163.288 166.237 163.339 165.724 163.532 165.258C163.726 164.793 164.053 164.395 164.473 164.115C164.892 163.836 165.386 163.687 165.89 163.688C166.564 163.688 167.21 163.956 167.687 164.433C168.164 164.909 168.432 165.556 168.432 166.23Z" fill="black"/>
<path d="M164.705 166.328L165.28 166.276C165.359 165.826 165.373 165.367 165.321 164.913C165.424 164.898 165.528 164.898 165.631 164.913C165.735 164.913 165.844 165.971 165.844 165.971C166.225 165.911 166.609 165.875 166.994 165.862C167.034 165.862 167.051 166.052 167.063 166.161C167.065 166.193 167.056 166.225 167.037 166.252C167.018 166.278 166.991 166.297 166.959 166.305H166.925V167.34C166.927 167.379 166.913 167.416 166.887 167.445C166.862 167.474 166.826 167.492 166.787 167.495L165.781 167.576C165.681 167.58 165.582 167.558 165.493 167.512L165.378 167.443L164.763 167.535L164.705 166.328Z" fill="#002F5D"/>
<path opacity="0.7" d="M164.705 166.328L165.28 166.276C165.359 165.826 165.373 165.367 165.321 164.913C165.424 164.898 165.528 164.898 165.631 164.913C165.735 164.913 165.844 165.971 165.844 165.971C166.225 165.911 166.609 165.875 166.994 165.862C167.034 165.862 167.051 166.052 167.063 166.161C167.065 166.193 167.056 166.225 167.037 166.252C167.018 166.278 166.991 166.297 166.959 166.305H166.925V167.34C166.927 167.379 166.913 167.416 166.887 167.445C166.862 167.474 166.826 167.492 166.787 167.495L165.781 167.576C165.681 167.58 165.582 167.558 165.493 167.512L165.378 167.443L164.763 167.535L164.705 166.328Z" fill="white"/>
<path d="M150.509 185.527H116.796V209.079H150.509V185.527Z" fill="#002F5D"/>
<path opacity="0.2" d="M150.509 185.527H116.796V209.079H150.509V185.527Z" fill="white"/>
<path opacity="0.2" d="M125.26 185.521H116.796V209.073H150.509L125.26 208.343V185.521Z" fill="black"/>
<path opacity="0.7" d="M121.805 185.527H119.758V186.832H121.805V185.527Z" fill="white"/>
<path opacity="0.7" d="M121.805 207.768H119.758V209.073H121.805V207.768Z" fill="white"/>
<path d="M147.283 192.352L147.277 192.375L146.208 195.089L145.805 196.107L145.046 194.739L143.563 195.222L145.046 191.467L145.989 191.841L147.231 192.329L147.283 192.352Z" fill="#263238"/>
<g opacity="0.2">
<path d="M145.811 195.607L145.167 194.457L143.896 194.871L145.178 191.616L147.099 192.375L145.811 195.607ZM145.19 194.376L145.805 195.492L147.03 192.387L145.207 191.697L143.982 194.802L145.19 194.376Z" fill="white"/>
</g>
<path opacity="0.2" d="M147.277 192.375L146.225 195.089C145.825 194.141 145.588 193.132 145.524 192.105L146.001 191.841L147.249 192.329L147.277 192.375Z" fill="black"/>
<path d="M147.036 196.107L147.789 194.739L149.272 195.222L147.789 191.467L145.552 192.352L147.036 196.107Z" fill="#263238"/>
<g opacity="0.2">
<path d="M145.742 192.358L147.657 191.599L148.939 194.854L147.668 194.44L147.024 195.59L145.742 192.358ZM148.853 194.773L147.628 191.668L145.805 192.387L147.03 195.492L147.645 194.376L148.853 194.773Z" fill="white"/>
</g>
<path d="M146.42 187.039L146.685 186.832L146.909 187.085L147.208 186.924L147.381 187.212L147.703 187.114L147.823 187.425L148.157 187.384L148.22 187.712L148.554 187.735L148.559 188.069L148.887 188.149L148.83 188.477L149.14 188.615L149.025 188.931L149.301 189.121L149.134 189.408L149.376 189.644L149.152 189.897L149.347 190.173L149.088 190.386L149.232 190.691L148.939 190.852L149.025 191.179L148.703 191.283L148.732 191.622L148.398 191.668L148.364 192.002L148.03 191.99L147.933 192.318L147.605 192.243L147.455 192.548L147.145 192.416L146.944 192.686L146.662 192.502L146.42 192.732L146.173 192.502L145.891 192.686L145.69 192.416L145.38 192.548L145.23 192.243L144.902 192.318L144.81 191.99L144.471 192.002L144.437 191.668L144.103 191.622L144.132 191.283L143.816 191.179L143.902 190.852L143.603 190.691L143.747 190.386L143.488 190.173L143.683 189.897L143.465 189.644L143.706 189.408L143.534 189.121L143.816 188.931L143.701 188.615L144.005 188.477L143.948 188.149L144.276 188.069L144.281 187.735L144.615 187.712L144.678 187.384L145.012 187.425L145.132 187.114L145.454 187.212L145.633 186.924L145.932 187.085L146.156 186.832L146.42 187.039Z" fill="#002F5D"/>
<path opacity="0.2" d="M148.962 189.782C148.963 190.286 148.815 190.78 148.535 191.199C148.256 191.619 147.858 191.946 147.392 192.14C146.927 192.333 146.414 192.384 145.919 192.286C145.425 192.188 144.97 191.945 144.614 191.589C144.257 191.232 144.014 190.778 143.916 190.283C143.818 189.789 143.869 189.276 144.063 188.81C144.256 188.345 144.583 187.947 145.003 187.667C145.423 187.388 145.916 187.239 146.42 187.24C147.094 187.242 147.74 187.51 148.216 187.987C148.692 188.463 148.96 189.108 148.962 189.782Z" fill="black"/>
<path d="M145.236 189.88L145.811 189.828C145.889 189.378 145.903 188.919 145.851 188.465C145.954 188.45 146.059 188.45 146.162 188.465C146.265 188.465 146.374 189.523 146.374 189.523C146.755 189.463 147.139 189.427 147.524 189.414C147.568 189.508 147.591 189.61 147.593 189.713C147.596 189.745 147.587 189.777 147.568 189.804C147.549 189.83 147.521 189.849 147.49 189.857H147.455V190.892C147.457 190.93 147.444 190.968 147.418 190.997C147.392 191.026 147.356 191.044 147.317 191.047L146.311 191.128C146.211 191.133 146.112 191.112 146.024 191.064L145.909 190.995L145.288 191.081L145.236 189.88Z" fill="#002F5D"/>
<path opacity="0.7" d="M145.236 189.88L145.811 189.828C145.889 189.378 145.903 188.919 145.851 188.465C145.954 188.45 146.059 188.45 146.162 188.465C146.265 188.465 146.374 189.523 146.374 189.523C146.755 189.463 147.139 189.427 147.524 189.414C147.568 189.508 147.591 189.61 147.593 189.713C147.596 189.745 147.587 189.777 147.568 189.804C147.549 189.83 147.521 189.849 147.49 189.857H147.455V190.892C147.457 190.93 147.444 190.968 147.418 190.997C147.392 191.026 147.356 191.044 147.317 191.047L146.311 191.128C146.211 191.133 146.112 191.112 146.024 191.064L145.909 190.995L145.288 191.081L145.236 189.88Z" fill="white"/>
<path d="M118.584 185.81H84.872V209.362H118.584V185.81Z" fill="#002F5D"/>
<path opacity="0.2" d="M118.584 185.81H84.872V209.362H118.584V185.81Z" fill="white"/>
<path opacity="0.2" d="M93.336 185.804H84.872V209.356H118.584L93.336 208.626V185.804Z" fill="black"/>
<path opacity="0.7" d="M89.8802 185.81H87.8332V187.115H89.8802V185.81Z" fill="white"/>
<path opacity="0.7" d="M89.8802 208.051H87.8332V209.356H89.8802V208.051Z" fill="white"/>
<path d="M115.358 192.635L115.353 192.658L114.283 195.372L113.881 196.39L113.122 195.022L111.638 195.505L113.122 191.75L114.059 192.124L115.307 192.612L115.358 192.635Z" fill="#263238"/>
<g opacity="0.2">
<path d="M113.886 195.89L113.242 194.74L111.972 195.154L113.254 191.899L115.174 192.658L113.886 195.89ZM113.265 194.659L113.881 195.775L115.105 192.67L113.283 191.98L112.058 195.085L113.265 194.659Z" fill="white"/>
</g>
<path opacity="0.2" d="M115.353 192.658L114.283 195.372C113.883 194.424 113.646 193.415 113.582 192.388L114.059 192.124L115.307 192.612L115.353 192.658Z" fill="black"/>
<path d="M115.111 196.39L115.864 195.022L117.348 195.505L115.87 191.75L113.628 192.635L115.111 196.39Z" fill="#263238"/>
<g opacity="0.2">
<path d="M113.817 192.641L115.732 191.882L117.014 195.137L115.744 194.723L115.1 195.873L113.817 192.641ZM116.928 195.056L115.703 191.98L113.881 192.699L115.105 195.804L115.721 194.688L116.928 195.056Z" fill="white"/>
</g>
<path d="M114.496 187.322L114.761 187.115L114.985 187.368L115.278 187.207L115.456 187.495L115.778 187.397L115.899 187.707L116.233 187.667L116.296 187.995L116.629 188.018L116.635 188.351L116.963 188.432L116.905 188.76L117.216 188.898L117.101 189.214L117.377 189.404L117.21 189.691L117.446 189.927L117.227 190.18L117.423 190.456L117.164 190.669L117.308 190.973L117.009 191.134L117.101 191.462L116.779 191.566L116.808 191.905L116.474 191.951L116.44 192.284L116.1 192.273L116.008 192.601L115.681 192.526L115.531 192.831L115.221 192.698L115.019 192.969L114.738 192.785L114.496 193.015L114.249 192.785L113.967 192.969L113.766 192.698L113.455 192.831L113.306 192.526L112.978 192.601L112.886 192.273L112.547 192.284L112.512 191.951L112.185 191.905L112.208 191.566L111.891 191.462L111.978 191.134L111.679 190.973L111.822 190.669L111.564 190.456L111.759 190.18L111.541 189.927L111.782 189.691L111.61 189.404L111.891 189.214L111.776 188.898L112.081 188.76L112.024 188.432L112.351 188.351L112.357 188.018L112.691 187.995L112.754 187.667L113.087 187.707L113.208 187.397L113.53 187.495L113.708 187.207L114.007 187.368L114.232 187.115L114.496 187.322Z" fill="#002F5D"/>
<path opacity="0.2" d="M117.038 190.065C117.039 190.569 116.89 191.062 116.611 191.482C116.331 191.902 115.933 192.229 115.468 192.423C115.002 192.616 114.489 192.667 113.995 192.569C113.5 192.471 113.046 192.228 112.689 191.872C112.333 191.515 112.09 191.061 111.992 190.566C111.894 190.072 111.945 189.559 112.138 189.093C112.332 188.628 112.659 188.23 113.079 187.95C113.498 187.671 113.992 187.522 114.496 187.523C115.17 187.525 115.815 187.793 116.291 188.27C116.768 188.746 117.036 189.391 117.038 190.065Z" fill="black"/>
<path d="M113.311 190.163L113.886 190.111C113.965 189.661 113.978 189.202 113.927 188.748C114.03 188.733 114.134 188.733 114.237 188.748C114.341 188.748 114.45 189.806 114.45 189.806C114.831 189.746 115.215 189.71 115.6 189.697C115.643 189.791 115.667 189.893 115.669 189.996C115.671 190.028 115.662 190.06 115.643 190.087C115.624 190.113 115.597 190.132 115.565 190.14H115.531V191.175C115.533 191.213 115.519 191.251 115.493 191.28C115.468 191.309 115.432 191.327 115.393 191.33L114.387 191.41C114.287 191.416 114.187 191.394 114.099 191.347L113.984 191.278L113.363 191.364L113.311 190.163Z" fill="#002F5D"/>
<path opacity="0.7" d="M113.311 190.163L113.886 190.111C113.965 189.661 113.978 189.202 113.927 188.748C114.03 188.733 114.134 188.733 114.237 188.748C114.341 188.748 114.45 189.806 114.45 189.806C114.831 189.746 115.215 189.71 115.6 189.697C115.643 189.791 115.667 189.893 115.669 189.996C115.671 190.028 115.662 190.06 115.643 190.087C115.624 190.113 115.597 190.132 115.565 190.14H115.531V191.175C115.533 191.213 115.519 191.251 115.493 191.28C115.468 191.309 115.432 191.327 115.393 191.33L114.387 191.41C114.287 191.416 114.187 191.394 114.099 191.347L113.984 191.278L113.363 191.364L113.311 190.163Z" fill="white"/>
<path opacity="0.2" d="M93.336 185.804L84.5902 195.372V185.804H93.336Z" fill="black"/>
<path d="M106.682 162.258H72.9695V185.81H106.682V162.258Z" fill="#002F5D"/>
<path opacity="0.2" d="M106.682 162.258H72.9695V185.81H106.682V162.258Z" fill="white"/>
<path opacity="0.2" d="M81.4335 162.258H72.9695V185.804H106.682L81.4335 185.074V162.258Z" fill="black"/>
<path opacity="0.7" d="M77.9777 162.258H75.9307V163.563H77.9777V162.258Z" fill="white"/>
<path opacity="0.7" d="M77.9777 184.499H75.9307V185.804H77.9777V184.499Z" fill="white"/>
<path d="M103.462 169.083L103.45 169.106L102.381 171.82L101.978 172.838L101.225 171.469L99.7357 171.953L101.219 168.198L102.162 168.572L103.404 169.06L103.462 169.083Z" fill="#263238"/>
<g opacity="0.2">
<path d="M101.99 172.338L101.34 171.188L100.069 171.602L101.351 168.353L103.272 169.106L101.99 172.338ZM101.363 171.107L101.978 172.223L103.209 169.118L101.38 168.405L100.155 171.51L101.363 171.107Z" fill="white"/>
</g>
<path opacity="0.2" d="M103.45 169.106L102.381 171.82C101.981 170.872 101.743 169.863 101.679 168.836L102.162 168.572L103.404 169.06L103.45 169.106Z" fill="black"/>
<path d="M103.209 172.838L103.962 171.469L105.451 171.953L103.968 168.198L101.725 169.083L103.209 172.838Z" fill="#263238"/>
<g opacity="0.2">
<path d="M101.903 169.089L103.818 168.336L105.106 171.585L103.835 171.171L103.186 172.321L101.903 169.089ZM105.02 171.504L103.795 168.399L101.967 169.118L103.191 172.223L103.807 171.107L105.02 171.504Z" fill="white"/>
</g>
<path d="M102.593 163.77L102.858 163.563L103.082 163.816L103.381 163.655L103.554 163.943L103.876 163.845L103.996 164.155L104.33 164.115L104.393 164.449L104.732 164.466V164.799L105.06 164.88L105.003 165.208L105.313 165.346L105.198 165.662L105.474 165.852L105.307 166.139L105.549 166.375L105.33 166.634L105.526 166.904L105.261 167.117L105.405 167.421L105.112 167.582L105.198 167.91L104.876 168.019L104.905 168.353L104.571 168.399L104.537 168.732L104.203 168.727L104.111 169.049L103.778 168.974L103.634 169.279L103.324 169.146L103.122 169.417L102.841 169.233L102.593 169.468L102.346 169.233L102.064 169.417L101.863 169.146L101.553 169.279L101.403 168.974L101.075 169.049L100.983 168.727L100.644 168.732L100.615 168.399L100.282 168.353L100.311 168.019L99.9887 167.91L100.075 167.582L99.7817 167.421L99.9255 167.117L99.661 166.904L99.8565 166.634L99.638 166.375L99.8795 166.139L99.7127 165.852L99.9887 165.662L99.8737 165.346L100.178 165.208L100.127 164.88L100.454 164.799V164.466L100.794 164.449L100.857 164.115L101.19 164.155L101.311 163.845L101.633 163.943L101.806 163.655L102.105 163.816L102.329 163.563L102.593 163.77Z" fill="#002F5D"/>
<path opacity="0.2" d="M105.135 166.513C105.136 167.017 104.988 167.51 104.708 167.93C104.429 168.35 104.031 168.677 103.565 168.871C103.1 169.064 102.587 169.115 102.092 169.017C101.598 168.919 101.143 168.676 100.787 168.32C100.43 167.963 100.187 167.509 100.089 167.014C99.9911 166.52 100.042 166.007 100.236 165.541C100.429 165.076 100.756 164.678 101.176 164.398C101.596 164.119 102.089 163.97 102.594 163.971C103.268 163.971 103.914 164.239 104.391 164.716C104.867 165.192 105.135 165.839 105.135 166.513Z" fill="black"/>
<path d="M101.409 166.611L101.984 166.559C102.062 166.109 102.076 165.65 102.024 165.196C102.127 165.181 102.232 165.181 102.335 165.196C102.438 165.196 102.547 166.254 102.547 166.254C102.928 166.194 103.312 166.158 103.697 166.145C103.738 166.145 103.755 166.335 103.766 166.444C103.769 166.476 103.76 166.508 103.741 166.535C103.722 166.561 103.694 166.58 103.663 166.588H103.628V167.623C103.63 167.661 103.617 167.699 103.591 167.728C103.565 167.757 103.529 167.775 103.49 167.778L102.484 167.859C102.385 167.863 102.285 167.841 102.197 167.795L102.082 167.726L101.466 167.818L101.409 166.611Z" fill="#002F5D"/>
<path opacity="0.7" d="M101.409 166.611L101.984 166.559C102.062 166.109 102.076 165.65 102.024 165.196C102.127 165.181 102.232 165.181 102.335 165.196C102.438 165.196 102.547 166.254 102.547 166.254C102.928 166.194 103.312 166.158 103.697 166.145C103.738 166.145 103.755 166.335 103.766 166.444C103.769 166.476 103.76 166.508 103.741 166.535C103.722 166.561 103.694 166.58 103.663 166.588H103.628V167.623C103.63 167.661 103.617 167.699 103.591 167.728C103.565 167.757 103.529 167.775 103.49 167.778L102.484 167.859C102.385 167.863 102.285 167.841 102.197 167.795L102.082 167.726L101.466 167.818L101.409 166.611Z" fill="white"/>
<path d="M87.2122 185.81H53.5V209.362H87.2122V185.81Z" fill="#002F5D"/>
<path opacity="0.2" d="M87.2122 185.81H53.5V209.362H87.2122V185.81Z" fill="white"/>
<path opacity="0.2" d="M61.964 185.804H53.5V209.356H87.2122L61.964 208.626V185.804Z" fill="black"/>
<path opacity="0.7" d="M58.5082 185.81H56.4612V187.115H58.5082V185.81Z" fill="white"/>
<path opacity="0.7" d="M58.5082 208.051H56.4612V209.356H58.5082V208.051Z" fill="white"/>
<path d="M83.9865 192.635L83.9807 192.658L82.9112 195.372L82.5087 196.39L81.7497 195.022L80.2662 195.505L81.7497 191.75L82.6927 192.124L83.9347 192.612L83.9865 192.635Z" fill="#263238"/>
<g opacity="0.2">
<path d="M82.5145 195.89L81.8705 194.74L80.5997 195.154L81.882 191.899L83.8025 192.658L82.5145 195.89ZM81.8935 194.659L82.5087 195.775L83.7335 192.67L81.9107 191.98L80.686 195.085L81.8935 194.659Z" fill="white"/>
</g>
<path opacity="0.2" d="M83.9808 192.658L82.9285 195.372C82.5284 194.424 82.2912 193.415 82.227 192.388L82.7043 192.124L83.952 192.612L83.9808 192.658Z" fill="black"/>
<path d="M83.7392 196.39L84.4925 195.022L85.976 195.505L84.4925 191.75L82.2557 192.635L83.7392 196.39Z" fill="#263238"/>
<g opacity="0.2">
<path d="M82.4455 192.641L84.3602 191.882L85.6425 195.137L84.3717 194.723L83.7277 195.873L82.4455 192.641ZM85.5562 195.056L84.3315 191.951L82.5087 192.67L83.7335 195.775L84.3487 194.659L85.5562 195.056Z" fill="white"/>
</g>
<path d="M83.124 187.322L83.3885 187.115L83.6127 187.368L83.9117 187.207L84.0842 187.495L84.4062 187.397L84.527 187.707L84.8605 187.667L84.9237 187.995L85.2572 188.018L85.263 188.351L85.5907 188.432L85.5332 188.76L85.8437 188.898L85.7287 189.214L86.0047 189.404L85.838 189.691L86.0795 189.927L85.8552 190.18L86.0507 190.456L85.792 190.669L85.9357 190.973L85.6425 191.134L85.7287 191.462L85.4067 191.566L85.4355 191.905L85.102 191.951L85.0675 192.284L84.734 192.273L84.6362 192.601L84.3085 192.526L84.159 192.831L83.8485 192.698L83.6472 192.969L83.3655 192.785L83.124 193.015L82.8767 192.785L82.595 192.969L82.3937 192.698L82.0832 192.831L81.9337 192.526L81.606 192.601L81.514 192.273L81.1747 192.284L81.1402 191.951L80.8067 191.905L80.8355 191.566L80.5192 191.462L80.6055 191.134L80.3065 190.973L80.4502 190.669L80.1915 190.456L80.387 190.18L80.1685 189.927L80.41 189.691L80.2375 189.404L80.5192 189.214L80.4042 188.898L80.709 188.76L80.6515 188.432L80.9792 188.351L80.985 188.018L81.3185 187.995L81.3817 187.667L81.7152 187.707L81.836 187.397L82.158 187.495L82.3362 187.207L82.6352 187.368L82.8595 187.115L83.124 187.322Z" fill="#002F5D"/>
<path opacity="0.2" d="M85.6655 190.065C85.6666 190.569 85.5181 191.062 85.2386 191.482C84.9592 191.902 84.5614 192.229 84.0957 192.423C83.63 192.616 83.1174 192.667 82.6227 192.569C82.1281 192.471 81.6737 192.228 81.3171 191.872C80.9605 191.515 80.7178 191.061 80.6197 190.566C80.5216 190.072 80.5725 189.559 80.766 189.093C80.9595 188.628 81.2869 188.23 81.7067 187.95C82.1264 187.671 82.6197 187.522 83.124 187.523C83.7976 187.525 84.4431 187.793 84.9194 188.27C85.3957 188.746 85.664 189.391 85.6655 190.065Z" fill="black"/>
<path d="M81.9395 190.163L82.5145 190.111C82.5926 189.661 82.6061 189.202 82.5547 188.748C82.6577 188.733 82.7623 188.733 82.8652 188.748C82.9687 188.748 83.078 189.806 83.078 189.806C83.4587 189.746 83.8428 189.71 84.228 189.697C84.2711 189.791 84.2946 189.893 84.297 189.996C84.2993 190.028 84.2903 190.06 84.2713 190.087C84.2524 190.113 84.2249 190.132 84.1935 190.14H84.159V191.175C84.1606 191.213 84.1471 191.251 84.1214 191.28C84.0956 191.309 84.0596 191.327 84.021 191.33L83.0147 191.41C82.9149 191.416 82.8154 191.394 82.7272 191.347L82.6122 191.278L81.9912 191.364L81.9395 190.163Z" fill="#002F5D"/>
<path opacity="0.7" d="M81.9395 190.163L82.5145 190.111C82.5926 189.661 82.6061 189.202 82.5547 188.748C82.6577 188.733 82.7623 188.733 82.8652 188.748C82.9687 188.748 83.078 189.806 83.078 189.806C83.4587 189.746 83.8428 189.71 84.228 189.697C84.2711 189.791 84.2946 189.893 84.297 189.996C84.2993 190.028 84.2903 190.06 84.2713 190.087C84.2524 190.113 84.2249 190.132 84.1935 190.14H84.159V191.175C84.1606 191.213 84.1471 191.251 84.1214 191.28C84.0956 191.309 84.0596 191.327 84.021 191.33L83.0147 191.41C82.9149 191.416 82.8154 191.394 82.7272 191.347L82.6122 191.278L81.9912 191.364L81.9395 190.163Z" fill="white"/>
<path d="M159.783 83.9361L159.737 84.0569L153.545 99.7544L151.216 105.66L146.84 97.7476L138.244 100.542L146.823 78.8186L152.268 80.9691L159.456 83.8096L159.783 83.9361Z" fill="#263238"/>
<g opacity="0.2">
<path d="M151.268 102.768L147.53 95.9999L140.182 98.3919L147.599 79.5894L158.691 83.9651L151.268 102.768ZM147.668 95.6721L151.227 102.112L158.3 84.1261L147.749 79.9631L140.653 97.9261L147.668 95.6721Z" fill="white"/>
</g>
<path opacity="0.2" d="M159.737 84.0569L153.539 99.7544C151.231 94.2735 149.87 88.4407 149.514 82.5044L152.291 80.9749L159.479 83.8154L159.737 84.0569Z" fill="black"/>
<path d="M158.329 105.66L162.699 97.7476L171.295 100.542L162.716 78.8186L149.755 83.9361L158.329 105.66Z" fill="#263238"/>
<g opacity="0.2">
<path d="M150.825 83.965L161.94 79.572L169.363 98.3745L162.009 95.9825L158.3 102.768L150.825 83.965ZM168.851 97.926L161.756 79.963L151.199 84.126L158.3 102.095L161.853 95.6548L168.851 97.926Z" fill="white"/>
</g>
<path d="M154.769 53.1853L156.305 51.9893L157.598 53.444L159.323 52.5355L160.335 54.1973L162.193 53.6165L162.894 55.4278L164.826 55.1863L165.194 57.101L167.138 57.2045L167.155 59.1538L169.052 59.6023L168.725 61.5228L170.507 62.3048L169.84 64.1333L171.45 65.2258L170.473 66.9048L171.864 68.2618L170.599 69.7395L171.726 71.3265L170.22 72.557L171.042 74.3165L169.34 75.2595L169.84 77.1398L167.994 77.7608L168.15 79.6985L166.223 79.9803L166.028 81.918L164.084 81.849L163.55 83.7178L161.646 83.3038L160.784 85.0518L158.984 84.3043L157.828 85.8683L156.19 84.8103L154.769 86.1443L153.349 84.8103L151.716 85.8683L150.555 84.3043L148.755 85.0518L147.898 83.3038L145.995 83.7178L145.46 81.849L143.511 81.918L143.321 79.9803L141.395 79.6985L141.55 77.7608L139.704 77.1398L140.205 75.2595L138.497 74.3165L139.325 72.557L137.813 71.3265L138.945 69.7395L137.675 68.2618L139.072 66.9048L138.089 65.2258L139.704 64.1333L139.037 62.3048L140.82 61.5228L140.492 59.6023L142.384 59.1538L142.401 57.2045L144.345 57.101L144.713 55.1863L146.645 55.4278L147.346 53.6165L149.203 54.1973L150.215 52.5355L151.94 53.444L153.234 51.9893L154.769 53.1853Z" fill="#002F5D"/>
<path opacity="0.2" d="M165.181 79.4777C170.93 73.7292 170.93 64.409 165.181 58.6605C159.433 52.912 150.113 52.912 144.364 58.6605C138.615 64.409 138.615 73.7292 144.364 79.4777C150.113 85.2262 159.433 85.2262 165.181 79.4777Z" fill="black"/>
<path d="M147.915 69.6188L151.365 69.314C151.365 69.314 151.998 66.8128 151.607 61.4308C152.198 61.3168 152.802 61.2859 153.401 61.3388C153.976 61.4653 154.62 67.451 154.62 67.451C154.62 67.451 160.847 66.5943 161.204 66.8415C161.428 66.9968 161.543 67.9168 161.6 68.5665C161.617 68.7507 161.568 68.9349 161.463 69.0871C161.358 69.2393 161.203 69.3501 161.025 69.4003L160.813 69.4578L160.933 75.4493C160.937 75.6716 160.856 75.8869 160.706 76.0514C160.557 76.2159 160.35 76.3173 160.128 76.3348L154.292 76.8005C153.715 76.8455 153.138 76.7152 152.636 76.4268L151.969 76.0415L148.393 76.5533L147.915 69.6188Z" fill="#002F5D"/>
<path opacity="0.7" d="M147.915 69.6188L151.365 69.314C151.365 69.314 151.998 66.8128 151.607 61.4308C152.198 61.3168 152.802 61.2859 153.401 61.3388C153.976 61.4653 154.62 67.451 154.62 67.451C154.62 67.451 160.847 66.5943 161.204 66.8415C161.428 66.9968 161.543 67.9168 161.6 68.5665C161.617 68.7507 161.568 68.9349 161.463 69.0871C161.358 69.2393 161.203 69.3501 161.025 69.4003L160.813 69.4578L160.933 75.4493C160.937 75.6716 160.856 75.8869 160.706 76.0514C160.557 76.2159 160.35 76.3173 160.128 76.3348L154.292 76.8005C153.715 76.8455 153.138 76.7152 152.636 76.4268L151.969 76.0415L148.393 76.5533L147.915 69.6188Z" fill="white"/>
<path d="M183.353 85.1383L178.425 82.5393L181.357 78.635C181.357 78.635 185.072 79.969 185.158 83.235L183.353 85.1383Z" fill="#FFC3BD"/>
<path d="M176.177 79.2501L179.063 76.8696L181.346 78.6349L178.413 82.5391L176.177 79.2501Z" fill="#FFC3BD"/>
<path d="M205.272 77.6287C204.33 77.8298 203.428 78.1875 202.604 78.6867C201.866 79.1368 201.183 79.6713 200.568 80.2794C199.592 81.2518 198.676 82.283 197.825 83.3672C196.233 85.3509 194.743 87.3117 193.225 89.2782C192.961 89.1172 192.691 88.9332 192.415 88.7434C191.943 88.4214 191.472 88.0649 190.994 87.6969C189.103 86.2249 187.182 84.5862 185.273 82.9992L182.927 85.0289C184.351 87.2281 185.953 89.307 187.717 91.2447C188.665 92.305 189.717 93.2681 190.856 94.1197C191.22 94.3846 191.605 94.6193 192.006 94.8212C192.284 94.9605 192.575 95.0722 192.875 95.1547C193.355 95.2899 193.856 95.3348 194.352 95.2869C194.531 95.268 194.708 95.2353 194.881 95.1892C195.08 95.1405 195.273 95.0712 195.456 94.9822C195.852 94.8011 196.21 94.5453 196.509 94.2289L196.928 93.7632L197.572 93.0617C199.297 91.1814 200.948 89.2379 202.569 87.3749C203.374 86.4492 204.191 85.5349 204.904 84.8392C205.185 84.5526 205.498 84.2981 205.835 84.0802C206.093 83.9245 206.372 83.8064 206.663 83.7294L205.272 77.6287Z" fill="#002F5D"/>
<path opacity="0.7" d="M206.692 83.7236C206.4 83.8024 206.122 83.9224 205.864 84.0801C205.523 84.2931 205.21 84.5481 204.932 84.8391C204.633 85.1323 204.312 85.4658 203.984 85.8223C203.529 86.3053 203.058 86.8401 202.598 87.3748C201.58 88.5248 200.539 89.7438 199.481 90.9456C198.866 91.6528 198.234 92.3601 197.601 93.0558L196.957 93.7631L196.537 94.2231C196.239 94.5417 195.882 94.7995 195.485 94.9821C195.3 95.0685 195.108 95.1378 194.91 95.1891C194.737 95.2352 194.56 95.2679 194.381 95.2868C193.885 95.3321 193.384 95.2873 192.903 95.1546C192.605 95.0697 192.314 94.9581 192.035 94.8211C191.634 94.6165 191.249 94.38 190.885 94.1138C189.746 93.2623 188.694 92.2992 187.746 91.2388C185.982 89.3011 184.38 87.2222 182.956 85.0231L185.302 82.9876C187.205 84.5803 189.131 86.2191 191.023 87.6911C191.495 88.0591 191.972 88.4098 192.443 88.7318C192.714 88.9273 193.018 89.1113 193.254 89.2723C194.761 87.3001 196.25 85.3451 197.854 83.3613C198.705 82.2752 199.621 81.2421 200.597 80.2678C201.211 79.6614 201.892 79.127 202.627 78.6751C203.453 78.1814 204.354 77.8259 205.295 77.6228L206.692 83.7236Z" fill="white"/>
<path opacity="0.1" d="M203.984 85.8223C203.529 86.3053 203.058 86.8401 202.598 87.3748C201.58 88.5248 200.539 89.7438 199.481 90.9456C199.588 89.6119 199.992 88.3191 200.664 87.162C201.336 86.0048 202.258 85.0127 203.363 84.2583C203.68 84.7286 203.892 85.2622 203.984 85.8223Z" fill="black"/>
<path d="M228.134 78.9454C226.918 82.6542 226.08 86.4762 225.632 90.3534C225.23 93.5217 224.994 96.6784 224.868 99.5822C224.741 102.486 224.718 105.206 224.735 107.276C224.764 109.972 224.856 111.657 224.856 111.657H201.672C198.389 88.1684 205.013 77.5654 205.013 77.5654C206.755 77.238 208.516 77.0171 210.286 76.9042C210.654 76.9042 211.033 76.8697 211.436 76.8582C214.573 76.8896 217.707 77.1027 220.82 77.4964C221.395 77.5597 222.004 77.6459 222.591 77.7437C225.523 78.2324 228.134 78.9454 228.134 78.9454Z" fill="#002F5D"/>
<path opacity="0.7" d="M228.134 78.9397C227.586 80.5179 227.131 82.1268 226.771 83.7582C226.38 85.4832 226.064 87.2887 225.799 89.0999C225.742 89.5197 225.684 89.9337 225.633 90.3534C225.374 92.4004 225.184 94.4474 225.058 96.4139C224.983 97.4949 224.919 98.5529 224.873 99.5764C224.799 101.405 224.758 103.124 224.747 104.654C224.747 105.602 224.747 106.482 224.747 107.27C224.747 109.972 224.862 111.657 224.862 111.657H201.689C198.406 88.1627 205.03 77.5654 205.03 77.5654C206.77 77.2348 208.529 77.014 210.297 76.9042C210.671 76.9042 211.05 76.8639 211.447 76.8582C214.585 76.8896 217.718 77.1027 220.831 77.4964C221.406 77.5597 222.016 77.6459 222.597 77.7379C225.523 78.2324 228.134 78.9397 228.134 78.9397Z" fill="white"/>
<path d="M184.388 207.665C184.388 207.665 192.104 205.365 192.668 202.352C192.676 202.281 192.7 202.212 192.737 202.151C192.773 202.089 192.822 202.036 192.881 201.994C192.939 201.952 193.006 201.923 193.076 201.909C193.146 201.894 193.219 201.894 193.289 201.909L198.895 202.846C199.028 202.869 199.151 202.927 199.253 203.016C199.354 203.104 199.429 203.218 199.47 203.347L201.195 208.798L199.614 208.844L199.039 208.062L198.372 208.884C189.747 209.154 186.049 209.177 184.33 208.694C184.025 207.941 184.388 207.665 184.388 207.665Z" fill="black"/>
<path d="M215.455 207.665C215.455 207.665 223.171 205.365 223.735 202.352C223.744 202.28 223.769 202.212 223.806 202.15C223.843 202.088 223.893 202.035 223.952 201.994C224.011 201.952 224.077 201.923 224.148 201.909C224.218 201.894 224.291 201.894 224.362 201.909L229.962 202.846C230.096 202.867 230.22 202.925 230.322 203.013C230.424 203.102 230.498 203.217 230.537 203.346L232.262 208.797L230.675 208.843L230.1 208.061L229.439 208.884C220.814 209.154 217.117 209.177 215.392 208.694C215.093 207.941 215.455 207.665 215.455 207.665Z" fill="black"/>
<path d="M217.444 112.652C217.398 112.79 216.013 117.137 214.144 123.37L213.822 124.462C212.942 127.429 211.97 130.787 210.993 134.237C209.797 138.475 208.595 142.931 207.543 147.198C206.008 153.368 204.766 159.141 204.271 163.298C202.655 176.966 199.51 203.95 199.51 203.95L192.225 202.11C192.225 202.11 190.897 172.889 192.277 158.928C193.156 150.056 197.101 131.995 199.683 120.771C200.999 115.021 201.983 111.048 201.983 111.048L210.332 111.916L217.444 112.652Z" fill="#263238"/>
<path opacity="0.2" d="M207.531 147.215C209.463 139.441 211.861 131.046 213.816 124.474L212.292 120.972C208.325 125.394 206.968 139.504 207.531 147.215Z" fill="black"/>
<path d="M230.922 203.548L222.872 204.33C222.872 204.33 213.563 177.271 212.35 163.114C211.832 156.956 211.338 145.042 210.97 134.255C210.694 126.354 210.487 119.063 210.395 115.079C210.343 113.083 210.314 111.916 210.314 111.916L217.444 112.658L225.075 112.894C225.075 112.894 225.431 114.647 225.328 122.065C225.161 133.565 224.753 153.857 224.994 164.753C225.282 178.869 230.922 203.548 230.922 203.548Z" fill="#263238"/>
<path d="M218.813 67.6755L213.132 72.6723C213.759 75.0125 212.833 77.209 211.7 77.646L212.545 79.9863L219.566 77.2838C217.766 75.4208 218.278 70.7 218.813 67.6755Z" fill="#FFC3BD"/>
<path opacity="0.2" d="M216.496 69.7051L213.132 72.6376C213.291 73.1823 213.398 73.7405 213.454 74.3051C214.742 74.1096 216.484 72.6836 216.599 71.3323C216.662 70.7881 216.627 70.237 216.496 69.7051Z" fill="black"/>
<path d="M218.991 75.8518C218.991 75.8518 214.638 77.2203 214.023 77.5768C213.408 77.9333 212.695 79.6698 212.695 79.6698C212.695 79.6698 213.172 77.8873 212.931 76.8696C212.689 75.8518 212.258 75.8518 212.258 75.8518L211.142 78.1518C211.142 78.1518 210.907 80.1241 212.695 80.4116C214.483 80.6991 219.934 77.4388 219.934 77.4388L218.991 75.8518Z" fill="#002F5D"/>
<path opacity="0.6" d="M218.991 75.8518C218.991 75.8518 214.638 77.2203 214.023 77.5768C213.408 77.9333 212.695 79.6698 212.695 79.6698C212.695 79.6698 213.172 77.8873 212.931 76.8696C212.689 75.8518 212.258 75.8518 212.258 75.8518L211.142 78.1518C211.142 78.1518 210.907 80.1241 212.695 80.4116C214.483 80.6991 219.934 77.4388 219.934 77.4388L218.991 75.8518Z" fill="white"/>
<path d="M208.601 59.3207C207.578 60.5339 208.762 62.0807 208.716 63.2652C208.67 64.4497 208.463 65.9964 209.987 64.3634C211.511 62.7304 210.2 57.6417 208.601 59.3207Z" fill="#263238"/>
<path d="M219.21 64.5012C218.698 68.4572 219.21 69.13 217.076 71.016C213.845 73.8565 208.865 74.1267 208.417 70.0557C208.014 66.3872 208.078 59.7977 212.08 58.5097C212.966 58.2243 213.91 58.1685 214.823 58.3476C215.736 58.5266 216.589 58.9347 217.302 59.5335C218.014 60.1323 218.563 60.9022 218.897 61.7711C219.231 62.64 219.338 63.5794 219.21 64.5012Z" fill="#FFC3BD"/>
<path d="M218.623 67.1637C216.841 68.2447 216.26 65.732 216.381 65.5365C216.921 64.6855 216.892 63.961 216.248 62.3337C215.604 60.7065 218.865 58.8262 221.239 59.5277C223.419 60.1775 221.239 61.8795 221.492 63.2997C221.998 65.8297 220.066 66.2955 218.623 67.1637Z" fill="#263238"/>
<path d="M209.699 68.7679C211.117 68.4884 212.556 68.3345 214 68.3079C213.649 69.1991 212.977 69.9466 211.349 70.0329C209.722 70.1191 209.699 68.7679 209.699 68.7679Z" fill="white"/>
<path d="M220.848 67.2785C220.45 68.1116 219.749 68.7615 218.888 69.0955C217.795 69.4865 217.278 68.4055 217.605 67.2325C217.899 66.1745 218.819 64.6968 219.905 64.8175C220.992 64.9383 221.366 66.2147 220.848 67.2785Z" fill="#FFC3BD"/>
<path d="M214.374 64.5877C214.339 64.9212 214.184 64.9442 213.96 64.9154C213.736 64.8867 213.54 64.8292 213.575 64.4957C213.609 64.1622 213.816 63.9207 214.04 63.9207C214.265 63.9207 214.408 64.2484 214.374 64.5877Z" fill="#263238"/>
<path d="M210.211 64.5703C210.176 64.9096 210.021 64.9268 209.797 64.9038C209.573 64.8808 209.377 64.8176 209.412 64.4783C209.446 64.1391 209.659 63.9033 209.877 63.9033C210.096 63.9033 210.251 64.2311 210.211 64.5703Z" fill="#263238"/>
<path d="M210.866 64.4609C210.52 65.2401 210.067 65.9677 209.521 66.6229C209.693 66.7596 209.893 66.8571 210.106 66.9087C210.32 66.9604 210.542 66.9649 210.757 66.9219L210.866 64.4609Z" fill="#D4827D"/>
<path d="M215.104 63.1041C215.138 63.0992 215.17 63.0852 215.196 63.0638C215.236 63.0311 215.262 62.9841 215.269 62.9327C215.275 62.8813 215.262 62.8294 215.231 62.7878C215.04 62.532 214.79 62.3258 214.503 62.1867C214.216 62.0476 213.9 61.9797 213.581 61.9886C213.528 61.9944 213.479 62.0203 213.445 62.061C213.411 62.1017 213.393 62.154 213.397 62.2071C213.402 62.2595 213.428 62.3075 213.469 62.3409C213.51 62.3742 213.563 62.3902 213.615 62.3853C213.867 62.384 214.115 62.4415 214.341 62.5533C214.567 62.6651 214.763 62.8281 214.915 63.0293C214.936 63.0585 214.965 63.0811 214.998 63.0944C215.032 63.1076 215.069 63.111 215.104 63.1041Z" fill="#263238"/>
<path d="M208.233 63.7826C208.265 63.7906 208.299 63.7907 208.331 63.7826C208.363 63.7746 208.392 63.7588 208.417 63.7366C208.592 63.5567 208.808 63.4222 209.046 63.345C209.285 63.2679 209.539 63.2503 209.785 63.2938C209.811 63.2998 209.837 63.3006 209.863 63.2963C209.888 63.2919 209.913 63.2825 209.935 63.2686C209.957 63.2547 209.976 63.2365 209.99 63.2152C210.005 63.1938 210.016 63.1698 210.021 63.1443C210.034 63.0933 210.025 63.0395 209.998 62.9943C209.972 62.9492 209.928 62.9164 209.877 62.9028C209.568 62.8494 209.25 62.8705 208.95 62.9645C208.65 63.0585 208.376 63.2227 208.152 63.4433C208.134 63.4616 208.118 63.4835 208.108 63.5077C208.098 63.5319 208.093 63.5579 208.093 63.5842C208.093 63.6105 208.098 63.6366 208.108 63.6608C208.118 63.685 208.134 63.7069 208.152 63.7251C208.174 63.751 208.202 63.7709 208.233 63.7826Z" fill="#263238"/>
<path d="M212.959 60.0221C212.959 60.0221 209.964 61.3503 208.635 58.7341C207.307 56.1178 210.866 54.5596 210.866 54.5596C210.734 54.8451 210.665 55.1561 210.665 55.4709C210.665 55.7858 210.734 56.0968 210.866 56.3823C210.866 56.3823 211.47 54.4848 213.977 55.0943C216.484 55.7038 220.475 56.4858 221.297 57.8198C221.507 58.1353 221.635 58.4987 221.668 58.8766C221.702 59.2544 221.639 59.6345 221.487 59.9818L217.393 60.9708C217.164 60.6171 216.868 60.312 216.522 60.0728C216.175 59.8337 215.785 59.6652 215.373 59.5771C214.961 59.4889 214.536 59.4829 214.122 59.5593C213.708 59.6356 213.313 59.7929 212.959 60.0221Z" fill="#263238"/>
<path d="M201.425 109.696L201.247 114.095L225.351 117.982C225.351 114.176 224.776 109.225 224.776 109.225L201.425 109.696Z" fill="#263238"/>
<path d="M224.615 111.513L225.109 111.502L224.937 109.909L224.5 109.915L224.615 111.513Z" fill="#263238"/>
<path d="M206.278 111.829L216.231 111.657L216.122 110.064L206.209 110.237L206.278 111.829Z" fill="#263238"/>
<path d="M205.444 110.249L201.235 110.323V111.916L205.496 111.841L205.444 110.249Z" fill="#263238"/>
<path d="M223.729 109.927L216.887 110.047L217.013 111.646L223.833 111.525L223.729 109.927Z" fill="#263238"/>
<g opacity="0.2">
<path d="M224.615 111.513L225.109 111.502L224.937 109.909L224.5 109.915L224.615 111.513Z" fill="white"/>
<path d="M206.278 111.83L216.231 111.657L216.122 110.064L206.209 110.237L206.278 111.83Z" fill="white"/>
<path d="M205.444 110.249L201.235 110.323V111.916L205.496 111.841L205.444 110.249Z" fill="white"/>
<path d="M223.729 109.927L216.887 110.047L217.013 111.646L223.833 111.525L223.729 109.927Z" fill="white"/>
</g>
<path d="M209.613 111.945C209.484 111.944 209.36 111.894 209.266 111.805C209.173 111.717 209.116 111.596 209.107 111.467L209.055 110.496C209.051 110.428 209.06 110.359 209.083 110.295C209.105 110.231 209.141 110.172 209.187 110.122C209.283 110.023 209.413 109.966 209.55 109.961L212.016 109.921C212.145 109.92 212.268 109.968 212.363 110.054C212.458 110.14 212.517 110.259 212.528 110.386L212.603 111.398C212.607 111.468 212.596 111.537 212.573 111.602C212.549 111.667 212.512 111.727 212.465 111.778C212.418 111.829 212.361 111.87 212.298 111.897C212.235 111.925 212.166 111.939 212.097 111.939L209.613 111.945ZM212.022 110.352L209.555 110.392C209.539 110.385 209.52 110.385 209.504 110.392C209.5 110.401 209.498 110.411 209.498 110.421C209.498 110.431 209.5 110.441 209.504 110.45L209.555 111.416C209.555 111.435 209.563 111.454 209.577 111.469C209.591 111.483 209.61 111.49 209.63 111.49H212.114C212.131 111.497 212.149 111.497 212.166 111.49C212.17 111.481 212.172 111.472 212.172 111.462C212.172 111.452 212.17 111.442 212.166 111.433L212.091 110.427C212.092 110.417 212.091 110.408 212.088 110.398C212.085 110.389 212.08 110.381 212.073 110.374C212.067 110.367 212.059 110.361 212.05 110.358C212.041 110.354 212.032 110.352 212.022 110.352Z" fill="white"/>
<path d="M212.011 111.128H211.252C211.221 111.133 211.189 111.131 211.158 111.123C211.127 111.114 211.099 111.099 211.075 111.079C211.051 111.058 211.031 111.033 211.018 111.004C211.005 110.975 210.998 110.944 210.998 110.912C210.998 110.881 211.005 110.849 211.018 110.821C211.031 110.792 211.051 110.766 211.075 110.746C211.099 110.725 211.127 110.71 211.158 110.702C211.189 110.693 211.221 110.692 211.252 110.697H212.011C212.062 110.705 212.108 110.731 212.142 110.771C212.176 110.81 212.194 110.861 212.194 110.912C212.194 110.964 212.176 111.014 212.142 111.054C212.108 111.093 212.062 111.12 212.011 111.128Z" fill="white"/>
<path opacity="0.1" d="M226.765 83.7753C226.374 85.5003 226.058 87.3058 225.793 89.117C225.303 87.5471 225.149 85.8918 225.339 84.2583C225.744 83.9365 226.248 83.7657 226.765 83.7753Z" fill="black"/>
<path opacity="0.1" d="M225.04 96.4312C224.965 97.5122 224.902 98.5702 224.856 99.5937C224.781 101.422 224.741 103.141 224.73 104.671C222.303 103.665 217.91 101.675 217.393 100.123C216.674 97.9664 217.864 96.9774 217.864 96.9774C220.265 96.9453 222.662 96.7629 225.04 96.4312Z" fill="black"/>
<path d="M214.426 96.0112L213.201 96.3792C212.898 96.4714 212.637 96.6669 212.464 96.9317C212.291 97.1965 212.216 97.5138 212.252 97.8282L212.436 99.4267C212.476 99.7112 212.604 99.9758 212.804 100.182C213.003 100.389 213.263 100.527 213.546 100.577L214.282 100.709C215.034 101.158 215.918 101.334 216.785 101.208C217.652 101.083 218.449 100.663 219.043 100.019L219.077 97.397L215.282 96.0112C215.004 95.9191 214.704 95.9191 214.426 96.0112Z" fill="#FFC3BD"/>
<path d="M217.87 97.3396C217.87 97.3396 216.72 95.2351 216.685 93.9643C216.651 92.6936 215.535 94.1771 216.082 95.1143C216.225 95.3793 216.261 95.689 216.183 95.9798C216.105 96.2706 215.918 96.5206 215.662 96.6783L217.87 97.3396Z" fill="#FFC3BD"/>
<path d="M234.97 96.7587L234.93 96.4597L234.89 96.247L234.844 96.0055L234.758 95.5225C234.292 92.935 233.769 90.3475 233.102 87.7542C232.762 86.3915 232.349 85.0479 231.865 83.7292C231.576 82.9617 231.229 82.2177 230.825 81.504C230.541 81.0058 230.197 80.5442 229.801 80.1297C229.511 79.8302 229.184 79.5675 228.829 79.3477C228.386 79.0762 227.9 78.8818 227.392 78.7727C226.904 79.0618 226.488 79.4569 226.173 79.9286C225.859 80.4004 225.654 80.9368 225.575 81.4982C225.299 82.5445 225.235 83.6352 225.385 84.7067C225.607 85.1258 225.799 85.56 225.96 86.0062C226.363 87.0527 226.736 88.2315 227.11 89.4217C227.823 91.7735 228.473 94.2115 229.146 96.6495C228.858 96.7357 228.53 96.8105 228.185 96.8795C227.615 96.9901 227.039 97.0707 226.46 97.121C224.08 97.3625 221.492 97.397 218.985 97.4085L218.508 100.473C221.133 101.235 223.832 101.713 226.558 101.899C227.26 101.934 227.978 101.951 228.732 101.899C229.548 101.875 230.36 101.763 231.152 101.566C231.66 101.43 232.15 101.237 232.613 100.991C233.308 100.636 233.902 100.109 234.338 99.4612C234.611 99.0435 234.806 98.5799 234.913 98.0927C235 97.6535 235.019 97.2037 234.97 96.7587Z" fill="#002F5D"/>
<path opacity="0.7" d="M234.97 96.7587L234.93 96.4597L234.89 96.247L234.844 96.0055L234.758 95.5225C234.292 92.935 233.769 90.3475 233.102 87.7542C232.762 86.3915 232.349 85.0479 231.865 83.7292C231.576 82.9617 231.229 82.2177 230.825 81.504C230.541 81.0058 230.197 80.5442 229.801 80.1297C229.511 79.8302 229.184 79.5675 228.829 79.3477C228.386 79.0762 227.9 78.8818 227.392 78.7727C226.904 79.0618 226.488 79.4569 226.173 79.9286C225.859 80.4004 225.654 80.9368 225.575 81.4982C225.299 82.5445 225.235 83.6352 225.385 84.7067C225.607 85.1258 225.799 85.56 225.96 86.0062C226.363 87.0527 226.736 88.2315 227.11 89.4217C227.823 91.7735 228.473 94.2115 229.146 96.6495C228.858 96.7357 228.53 96.8105 228.185 96.8795C227.615 96.9901 227.039 97.0707 226.46 97.121C224.08 97.3625 221.492 97.397 218.985 97.4085L218.508 100.473C221.133 101.235 223.832 101.713 226.558 101.899C227.26 101.934 227.978 101.951 228.732 101.899C229.548 101.875 230.36 101.763 231.152 101.566C231.66 101.43 232.15 101.237 232.613 100.991C233.308 100.636 233.902 100.109 234.338 99.4612C234.611 99.0435 234.806 98.5799 234.913 98.0927C235 97.6535 235.019 97.2037 234.97 96.7587Z" fill="white"/>
</svg>
