<svg width="272" height="203" viewBox="0 0 272 203" fill="none" xmlns="http://www.w3.org/2000/svg">
<path d="M271.72 178.111H0.279999V178.247H271.72V178.111Z" fill="#EBEBEB"/>
<path d="M46.7397 186.846H28.7595V186.982H46.7397V186.846Z" fill="#EBEBEB"/>
<path d="M97.9061 188.323H73.748V188.458H97.9061V188.323Z" fill="#EBEBEB"/>
<path d="M85.5121 181.808H47.2825V181.944H85.5121V181.808Z" fill="#EBEBEB"/>
<path d="M244.522 182.72H237.633V182.856H244.522V182.72Z" fill="#EBEBEB"/>
<path d="M232.795 182.72H212.801V182.856H232.795V182.72Z" fill="#EBEBEB"/>
<path d="M167.666 185.011H150.772V185.147H167.666V185.011Z" fill="#EBEBEB"/>
<path d="M128.943 153.899H24.1179C23.2967 153.897 22.5096 153.57 21.9294 152.989C21.3493 152.408 21.0234 151.62 21.0234 150.799V3.44502C21.0306 2.62854 21.3596 1.84785 21.939 1.27253C22.5184 0.697205 23.3013 0.373713 24.1179 0.372314H128.943C129.765 0.372314 130.553 0.698904 131.134 1.28024C131.716 1.86157 132.042 2.65003 132.042 3.47216V150.799C132.042 151.621 131.716 152.41 131.134 152.991C130.553 153.572 129.765 153.899 128.943 153.899ZM24.1179 0.480891C23.3327 0.482329 22.5801 0.795253 22.0254 1.35098C21.4707 1.9067 21.1592 2.65982 21.1592 3.44502V150.799C21.1592 151.584 21.4707 152.337 22.0254 152.893C22.5801 153.449 23.3327 153.762 24.1179 153.763H128.943C129.728 153.762 130.481 153.449 131.037 152.893C131.592 152.338 131.905 151.585 131.907 150.799V3.44502C131.905 2.65932 131.592 1.90622 131.037 1.35065C130.481 0.795077 129.728 0.482326 128.943 0.480891H24.1179Z" fill="#EBEBEB"/>
<path d="M246.373 153.899H141.543C140.721 153.897 139.933 153.57 139.352 152.989C138.771 152.408 138.444 151.621 138.443 150.799V3.44502C138.452 2.62804 138.782 1.84736 139.362 1.27219C139.942 0.697016 140.726 0.373698 141.543 0.372314H246.373C247.188 0.37514 247.97 0.699263 248.548 1.27443C249.127 1.8496 249.455 2.62947 249.462 3.44502V150.799C249.462 151.619 249.137 152.406 248.558 152.987C247.979 153.568 247.193 153.896 246.373 153.899ZM141.543 0.480891C140.757 0.482326 140.004 0.795077 139.448 1.35065C138.893 1.90622 138.58 2.65932 138.579 3.44502V150.799C138.58 151.585 138.893 152.338 139.448 152.893C140.004 153.449 140.757 153.762 141.543 153.763H246.373C247.159 153.762 247.912 153.449 248.467 152.893C249.023 152.338 249.336 151.585 249.337 150.799V3.44502C249.336 2.65932 249.023 1.90622 248.467 1.35065C247.912 0.795077 247.159 0.482326 246.373 0.480891H141.543Z" fill="#EBEBEB"/>
<path d="M156.635 173.367C173.713 173.367 187.557 159.522 187.557 142.444C187.557 125.366 173.713 111.522 156.635 111.522C139.557 111.522 125.712 125.366 125.712 142.444C125.712 159.522 139.557 173.367 156.635 173.367Z" fill="#FAFAFA"/>
<path d="M170.082 148.519C114.513 152.808 26.9408 178.111 26.9408 178.111H245.179C252.464 170.837 229.435 143.932 170.082 148.519Z" fill="#F0F0F0"/>
<path d="M191.955 135.126L186.759 153.133H197.15L191.955 135.126Z" fill="#F5F5F5"/>
<path d="M179.686 138.579L175.657 152.531H183.714L179.686 138.579Z" fill="#F5F5F5"/>
<path d="M206.227 139.811L202.199 153.763H210.255L206.227 139.811Z" fill="#F5F5F5"/>
<path d="M197.986 144.778L193.958 158.73H202.014L197.986 144.778Z" fill="#F5F5F5"/>
<path d="M168.068 138.991L162.873 156.999H173.263L168.068 138.991Z" fill="#F5F5F5"/>
<path d="M155.799 142.444L151.771 156.396H159.827L155.799 142.444Z" fill="#F5F5F5"/>
<path d="M173.774 147.998L169.745 161.944H177.802L173.774 147.998Z" fill="#F5F5F5"/>
<path d="M142.477 146.157L139.246 157.357H145.712L142.477 146.157Z" fill="#F5F5F5"/>
<path d="M129.176 148.942L125.696 161H132.656L129.176 148.942Z" fill="#F5F5F5"/>
<path d="M115.875 151.396L112.645 162.596H119.111L115.875 151.396Z" fill="#F5F5F5"/>
<path d="M136 156.26L133.047 166.483H138.953L136 156.26Z" fill="#F5F5F5"/>
<path d="M106.462 156.087L104.176 164.007H108.753L106.462 156.087Z" fill="#F5F5F5"/>
<path d="M154.349 161.374L152.064 169.295H156.635L154.349 161.374Z" fill="#F5F5F5"/>
<path d="M119.334 164.55L117.048 172.471H121.619L119.334 164.55Z" fill="#F5F5F5"/>
<path d="M187.335 157.042L184.381 167.264H190.283L187.335 157.042Z" fill="#F5F5F5"/>
<path d="M93.4762 158.193L91.1907 166.114H95.7617L93.4762 158.193Z" fill="#F5F5F5"/>
<path d="M99.969 163.198L97.6835 171.119H102.26L99.969 163.198Z" fill="#F5F5F5"/>
<path d="M84.0355 161.374L82.2006 167.731H85.8704L84.0355 161.374Z" fill="#F5F5F5"/>
<path d="M74.6491 163.736L72.673 170.581H76.6252L74.6491 163.736Z" fill="#F5F5F5"/>
<path d="M62.8741 165.332L61.0391 171.694H64.709L62.8741 165.332Z" fill="#F5F5F5"/>
<path d="M61.8426 36.7453H115.452C115.452 36.7453 119.024 13.7651 99.1222 21.1809C99.1222 21.1809 95.5012 -0.170588 73.6068 13.0377C51.7124 26.246 56.4138 36.7453 61.8426 36.7453Z" fill="#FAFAFA"/>
<path d="M224.234 49.6604C224.234 49.6604 220.108 22.4784 195.972 43.1458C195.972 43.1458 187.08 34.0363 172.699 52.7168C172.699 52.7168 170.299 43.5475 159.838 50.5887C153.296 54.9969 151.787 63.6504 151.787 63.6504H228.186C228.186 63.6504 239.272 45.5616 224.234 49.6604Z" fill="#FAFAFA"/>
<path d="M57.695 72.1628C57.695 72.1628 55.9415 60.6212 45.6973 69.3941C45.6973 69.3941 41.8972 65.5234 35.8169 73.4548C35.8169 73.4548 34.7963 69.5624 30.3881 72.5482C27.6086 74.4212 26.968 78.0965 26.968 78.0965H59.3996C59.3996 78.0965 64.0738 70.4039 57.695 72.1628Z" fill="#FAFAFA"/>
<path d="M136 202.628C194.133 202.628 241.259 199.876 241.259 196.482C241.259 193.088 194.133 190.337 136 190.337C77.867 190.337 30.741 193.088 30.741 196.482C30.741 199.876 77.867 202.628 136 202.628Z" fill="#F5F5F5"/>
<path d="M62.6243 163.644H131.244C132.064 163.652 132.877 163.49 133.632 163.168C134.386 162.846 135.065 162.371 135.626 161.773C136.188 161.175 136.619 160.467 136.892 159.694C137.166 158.92 137.276 158.099 137.216 157.281L129.817 37.2882C129.687 35.5766 128.922 33.9752 127.673 32.7981C126.424 31.6211 124.779 30.9532 123.063 30.9257H54.4377C53.6179 30.9183 52.8054 31.0808 52.0515 31.4032C51.2976 31.7255 50.6187 32.2005 50.0576 32.7984C49.4965 33.3962 49.0654 34.1038 48.7915 34.8766C48.5175 35.6493 48.4067 36.4705 48.466 37.2882L55.8709 157.265C55.9943 158.98 56.7564 160.587 58.0067 161.768C59.257 162.949 60.9047 163.618 62.6243 163.644Z" fill="#263238"/>
<path d="M50.7678 74.204H51.7667C51.9473 74.206 52.1263 74.1705 52.2924 74.0996C52.4585 74.0288 52.608 73.9242 52.7315 73.7925C52.8551 73.6608 52.9499 73.5049 53.01 73.3346C53.07 73.1643 53.094 72.9834 53.0805 72.8034L51.9622 54.7092C51.935 54.3317 51.767 53.9783 51.4915 53.7189C51.216 53.4595 50.8531 53.313 50.4747 53.3085H49.5029C49.3221 53.3066 49.1429 53.3421 48.9766 53.4129C48.8102 53.4837 48.6603 53.5882 48.5364 53.7198C48.4124 53.8514 48.3171 54.0072 48.2564 54.1775C48.1957 54.3478 48.171 54.5288 48.1837 54.7092L49.3021 72.8034C49.3301 73.1767 49.4954 73.5264 49.766 73.7851C50.0367 74.0437 50.3936 74.193 50.7678 74.204Z" fill="#263238"/>
<path d="M131.005 62.6569H132.2C132.374 62.6582 132.547 62.6232 132.708 62.5543C132.868 62.4854 133.013 62.3839 133.132 62.2565C133.251 62.129 133.343 61.9781 133.401 61.8135C133.459 61.6488 133.483 61.4739 133.47 61.2997L132.976 53.5746C132.95 53.2091 132.788 52.8668 132.522 52.6154C132.255 52.364 131.904 52.2219 131.537 52.2174H130.365C130.19 52.2154 130.016 52.2498 129.855 52.3184C129.694 52.387 129.549 52.4883 129.429 52.6158C129.309 52.7434 129.217 52.8945 129.158 53.0595C129.1 53.2246 129.076 53.3999 129.089 53.5746L129.567 61.2997C129.595 61.6643 129.758 62.0052 130.024 62.2562C130.29 62.5071 130.64 62.6499 131.005 62.6569Z" fill="#2B5279"/>
<path d="M131.858 76.457H133.036C133.21 76.4582 133.383 76.4233 133.544 76.3543C133.704 76.2854 133.849 76.184 133.968 76.0565C134.087 75.929 134.179 75.7782 134.237 75.6135C134.295 75.4489 134.319 75.274 134.306 75.0998L133.828 67.3746C133.803 67.0092 133.64 66.6668 133.374 66.4154C133.107 66.164 132.756 66.022 132.39 66.0174H131.212C131.037 66.0162 130.864 66.0512 130.704 66.1201C130.543 66.189 130.399 66.2904 130.28 66.4179C130.16 66.5454 130.069 66.6962 130.01 66.8609C129.952 67.0255 129.929 67.2005 129.941 67.3746L130.419 75.0998C130.446 75.4648 130.609 75.8065 130.875 76.0576C131.141 76.3088 131.492 76.4512 131.858 76.457Z" fill="#2B5279"/>
<path d="M105.148 29.0419H97.2547V29.5848H105.148V29.0419Z" fill="#2B5279"/>
<path d="M109.909 29.0419H107.618V29.5848H109.909V29.0419Z" fill="#2B5279"/>
<path d="M63.6829 163.644H132.308C133.128 163.651 133.941 163.488 134.695 163.166C135.448 162.844 136.127 162.369 136.688 161.771C137.25 161.173 137.681 160.465 137.955 159.693C138.229 158.92 138.339 158.099 138.28 157.281L130.875 37.2882C130.748 35.5757 129.984 33.9729 128.734 32.7953C127.484 31.6178 125.839 30.9508 124.122 30.9257H55.5017C54.6817 30.9174 53.8688 31.0795 53.1145 31.4015C52.3603 31.7235 51.681 32.1986 51.1198 32.7966C50.5585 33.3946 50.1275 34.1025 49.8538 34.8757C49.5802 35.6488 49.4699 36.4703 49.5301 37.2882L56.9295 157.265C57.0554 158.979 57.8182 160.585 59.068 161.765C60.3178 162.946 61.964 163.616 63.6829 163.644Z" fill="#2B5279"/>
<path d="M58.3301 156.396H136.771L129.491 38.4065H51.0501L58.3301 156.396Z" fill="white"/>
<path d="M125.501 96.4621H122.721C121.261 81.1963 108.101 68.8621 92.803 68.4278L92.6184 65.6428C92.6009 65.4175 92.4999 65.207 92.3352 65.0523C92.1705 64.8977 91.954 64.8101 91.7281 64.8067C91.6207 64.8056 91.5142 64.8269 91.4155 64.8693C91.3168 64.9118 91.2281 64.9743 91.155 65.053C91.0819 65.1318 91.0261 65.2249 90.9911 65.3264C90.9561 65.428 90.9427 65.5357 90.9518 65.6428L91.1364 68.4278C75.8977 68.8621 64.3887 81.1963 64.975 96.4621H62.1954C62.0878 96.461 61.9811 96.4823 61.8822 96.5247C61.7832 96.567 61.6942 96.6295 61.6207 96.7081C61.5472 96.7868 61.4908 96.8798 61.4552 96.9814C61.4195 97.0829 61.4054 97.1908 61.4137 97.2981C61.4313 97.5233 61.5323 97.7339 61.697 97.8885C61.8616 98.0432 62.0781 98.1308 62.304 98.1341H65.089C66.5439 113.4 79.7033 125.734 95.0017 126.168L95.1863 128.953C95.2038 129.179 95.3048 129.389 95.4695 129.544C95.6342 129.699 95.8507 129.786 96.0766 129.789C96.1842 129.791 96.2909 129.769 96.3898 129.727C96.4888 129.685 96.5778 129.622 96.6514 129.543C96.7249 129.465 96.7812 129.372 96.8169 129.27C96.8525 129.169 96.8666 129.061 96.8583 128.953L96.6683 126.168C111.907 125.734 123.416 113.4 122.83 98.1341H125.615C125.722 98.1353 125.829 98.114 125.927 98.0716C126.026 98.0291 126.115 97.9666 126.188 97.8879C126.261 97.8091 126.317 97.716 126.352 97.6145C126.387 97.5129 126.4 97.4051 126.391 97.2981C126.375 97.0724 126.274 96.8612 126.109 96.7063C125.944 96.5514 125.727 96.4642 125.501 96.4621ZM96.5597 124.502L96.3752 121.76C96.3576 121.535 96.2566 121.325 96.0919 121.17C95.9272 121.015 95.7107 120.928 95.4848 120.924C95.3774 120.923 95.271 120.944 95.1723 120.987C95.0736 121.029 94.9848 121.092 94.9117 121.171C94.8387 121.249 94.7828 121.342 94.7478 121.444C94.7128 121.545 94.6994 121.653 94.7085 121.76L94.8877 124.502C80.5122 124.068 68.1508 112.482 66.7556 98.1341H69.47C69.5774 98.1353 69.6839 98.114 69.7826 98.0716C69.8813 98.0291 69.97 97.9666 70.0431 97.8879C70.1162 97.8091 70.1721 97.716 70.2071 97.6145C70.2421 97.5129 70.2554 97.4051 70.2464 97.2981C70.23 97.0724 70.1294 96.8612 69.9644 96.7063C69.7995 96.5514 69.5823 96.4642 69.356 96.4621H66.6416C66.0987 82.1138 76.9238 70.5287 91.2449 70.0944L91.4241 72.8359C91.4428 73.0607 91.5442 73.2706 91.7087 73.425C91.8731 73.5794 92.0889 73.6674 92.3144 73.672C92.422 73.673 92.5287 73.6517 92.6277 73.6094C92.7266 73.567 92.8157 73.5045 92.8892 73.4259C92.9627 73.3473 93.0191 73.2543 93.0547 73.1527C93.0903 73.0511 93.1045 72.9433 93.0962 72.8359L92.9116 70.0944C107.287 70.5287 119.648 82.1138 121.044 96.4621H118.302C118.195 96.4609 118.088 96.4823 117.99 96.5247C117.891 96.5671 117.802 96.6297 117.729 96.7084C117.656 96.7871 117.6 96.8802 117.565 96.9818C117.53 97.0833 117.517 97.1911 117.526 97.2981C117.543 97.5233 117.644 97.7339 117.809 97.8885C117.974 98.0432 118.19 98.1308 118.416 98.1341H121.13C121.69 112.477 110.875 124.062 96.5597 124.496V124.502Z" fill="#E0E0E0"/>
<path d="M109.784 89.193V89.1495C109.774 89.1196 109.761 89.0906 109.746 89.0627L109.708 89.0192C109.69 88.9963 109.67 88.9746 109.649 88.9541C109.635 88.9385 109.618 88.9256 109.6 88.9161L109.551 88.8727L93.2156 80.7023C93.1384 80.6623 93.0528 80.6415 92.9659 80.6415C92.879 80.6415 92.7933 80.6623 92.7162 80.7023L77.2604 88.8618L77.2115 88.9052C77.1957 88.9163 77.1812 88.9291 77.1681 88.9432C77.1488 88.9626 77.1324 88.9845 77.1192 89.0084L77.0866 89.0518C77.0733 89.0798 77.0624 89.1088 77.0541 89.1387V89.1821C77.046 89.2306 77.046 89.2802 77.0541 89.3287L78.0638 106.956C78.0713 107.058 78.1053 107.156 78.1624 107.241C78.2196 107.326 78.2979 107.394 78.3896 107.439L94.7248 115.61C94.7954 115.645 94.8736 115.664 94.9528 115.664C95.0305 115.666 95.1074 115.647 95.1754 115.61H95.2026L110.599 107.439C110.685 107.393 110.755 107.322 110.803 107.237C110.85 107.151 110.871 107.054 110.865 106.956L109.849 89.3287C109.835 89.2802 109.813 89.2344 109.784 89.193ZM85.2733 85.8651L100.387 93.422L93.8399 96.9019L78.7207 89.3395L85.2733 85.8651ZM92.9713 81.8044L108.085 89.3667L101.538 92.8411L86.4188 85.2788L92.9713 81.8044ZM78.129 90.2299L93.3296 97.8302L94.2688 114.236L79.0682 106.636L78.129 90.2299ZM109.719 106.636L95.3763 114.236L94.4371 97.8302L101.082 94.3069L101.267 97.499C101.275 97.6401 101.336 97.773 101.435 97.8729C101.535 97.9729 101.668 98.033 101.809 98.0419C101.882 98.0467 101.955 98.036 102.023 98.0104C102.091 97.9848 102.153 97.945 102.204 97.8936C102.255 97.8422 102.295 97.7804 102.321 97.7123C102.346 97.6443 102.357 97.5716 102.352 97.499L102.135 93.7477L108.78 90.219L109.719 106.636Z" fill="#2B5279"/>
<path opacity="0.2" d="M98.4978 33.8844H81.4894C81.4143 33.8842 81.34 33.8995 81.2711 33.9295C81.2023 33.9594 81.1404 34.0033 81.0893 34.0584C81.0383 34.1135 80.9993 34.1786 80.9747 34.2496C80.9501 34.3206 80.9405 34.3959 80.9465 34.4707V34.8616C80.9587 35.021 81.0301 35.1701 81.1466 35.2796C81.2631 35.3891 81.4164 35.4511 81.5763 35.4533H98.5956C98.6712 35.4536 98.746 35.4381 98.8152 35.4079C98.8845 35.3776 98.9467 35.3332 98.9978 35.2774C99.0489 35.2217 99.0878 35.156 99.112 35.0844C99.1362 35.0128 99.1452 34.9369 99.1384 34.8616L99.1113 34.4707C99.0993 34.3145 99.0301 34.1683 98.9168 34.0601C98.8036 33.9519 98.6544 33.8893 98.4978 33.8844Z" fill="black"/>
<path d="M189.305 72.9772L188.974 73.0477L188.703 73.102L188.16 73.1835C187.818 73.2269 187.487 73.2649 187.156 73.292C186.488 73.3463 185.836 73.368 185.179 73.368C183.876 73.3559 182.576 73.2342 181.292 73.0043C180.016 72.7798 178.76 72.453 177.536 72.0271C176.928 71.8154 176.325 71.5765 175.739 71.3105L175.294 71.1151L175.017 70.9848C174.842 70.9044 174.674 70.8119 174.512 70.7079C173.944 70.3412 173.464 69.8536 173.106 69.2801C172.629 68.4918 172.319 67.6142 172.194 66.7015C172.091 66.0005 172.042 65.2927 172.047 64.5842C172.074 63.3188 172.2 62.0573 172.422 60.8112C172.831 58.4363 173.46 56.1046 174.3 53.8461L177.215 54.541C177.042 56.7613 176.873 59.0469 176.857 61.2184C176.837 62.2648 176.888 63.3113 177.009 64.3508C177.054 64.7947 177.136 65.2341 177.253 65.6646C177.296 65.8996 177.401 66.1189 177.557 66.2997C177.557 66.2997 177.514 66.1912 177.367 66.0826L177.243 66.0066C177.199 66.0066 177.243 66.0066 177.275 66.0066L177.367 66.0392L177.731 66.1532C178.209 66.316 178.708 66.4355 179.197 66.5657C180.177 66.8141 181.173 66.9955 182.177 67.1086C183.174 67.225 184.176 67.2794 185.179 67.2715C185.679 67.2715 186.178 67.2715 186.662 67.2172C186.906 67.2172 187.145 67.1738 187.378 67.1466L187.715 67.1086H187.867H187.954L189.305 72.9772Z" fill="#FFC3BD"/>
<path d="M174.088 55.1164L173.947 51.0503L177.975 50.616C177.975 50.616 178.833 54.7581 176.168 55.8059L174.088 55.1164Z" fill="#FFC3BD"/>
<path d="M174.957 48.8408L176.711 48.7376C176.979 48.7237 177.243 48.8098 177.452 48.9792C177.66 49.1487 177.798 49.3895 177.84 49.6551L177.975 50.616L173.947 51.0503V49.9157C173.949 49.6423 174.054 49.3797 174.242 49.1805C174.429 48.9812 174.684 48.8599 174.957 48.8408Z" fill="#FFC3BD"/>
<path d="M191.727 74.7145C188.952 77.3311 177.329 73.1618 177.329 73.1618L180.266 66.137C183.024 65.5565 185.845 65.3339 188.659 65.4746C194.332 65.6972 194.772 71.8481 191.727 74.7145Z" fill="#2B5279"/>
<path d="M173.014 52.4291C173.339 53.8515 173.046 55.0784 172.362 55.1435C171.678 55.2087 170.858 54.1501 170.533 52.7277C170.207 51.3054 170.5 50.0839 171.184 50.0133C171.868 49.9428 172.688 51.0068 173.014 52.4291Z" fill="#2B5279"/>
<path d="M179.599 53.8244L172.362 55.1653L171.184 50.0188L178.6 49.4596L179.599 53.8244Z" fill="#2B5279"/>
<path d="M180.06 51.5172C180.337 52.7224 180.131 53.7539 179.599 53.8244C179.067 53.895 178.415 52.9721 178.144 51.7669C177.872 50.5617 178.073 49.5248 178.6 49.4597C179.126 49.3945 179.783 50.3174 180.06 51.5172Z" fill="#2B5279"/>
<path opacity="0.3" d="M180.06 51.5172C180.337 52.7224 180.131 53.7539 179.599 53.8244C179.067 53.895 178.415 52.9721 178.144 51.7669C177.872 50.5617 178.073 49.5248 178.6 49.4597C179.126 49.3945 179.783 50.3174 180.06 51.5172Z" fill="black"/>
<path d="M181.092 50.3717L178.958 50.4639C178.649 50.5019 178.518 51.0557 178.665 51.6963C178.811 52.3369 179.208 52.8255 179.49 52.782L181.542 52.3369C181.776 52.3043 181.862 51.8374 181.738 51.2946C181.613 50.7517 181.325 50.3174 181.092 50.3717Z" fill="#2B5279"/>
<path opacity="0.4" d="M181.092 50.3717L178.958 50.4639C178.649 50.5019 178.518 51.0557 178.665 51.6963C178.811 52.3369 179.208 52.8255 179.49 52.782L181.542 52.3369C181.776 52.3043 181.862 51.8374 181.738 51.2946C181.613 50.7517 181.325 50.3174 181.092 50.3717Z" fill="black"/>
<path d="M169.36 52.9015C169.686 54.3238 169.393 55.5507 168.708 55.6159C168.024 55.681 167.205 54.6224 166.884 53.2001C166.564 51.7777 166.846 50.5563 167.53 50.4857C168.214 50.4151 169.034 51.4791 169.36 52.9015Z" fill="#2B5279"/>
<path d="M175.95 54.2966L168.708 55.6376L167.53 50.4911L174.952 49.9319L175.95 54.2966Z" fill="#2B5279"/>
<path d="M176.412 51.9895C176.683 53.1947 176.477 54.2262 175.951 54.2967C175.424 54.3673 174.767 53.4444 174.49 52.2392C174.213 51.034 174.42 49.9971 174.952 49.932C175.484 49.8668 176.135 50.7843 176.412 51.9895Z" fill="#2B5279"/>
<path opacity="0.3" d="M176.412 51.9895C176.683 53.1947 176.477 54.2262 175.951 54.2967C175.424 54.3673 174.767 53.4444 174.49 52.2392C174.213 51.034 174.42 49.9971 174.952 49.932C175.484 49.8668 176.135 50.7843 176.412 51.9895Z" fill="black"/>
<path d="M177.438 50.8602L175.31 50.9525C175 50.9905 174.87 51.5443 175.017 52.1849C175.163 52.8255 175.533 53.3141 175.842 53.2706L177.889 52.8255C178.122 52.7929 178.214 52.326 178.089 51.7831C177.965 51.2403 177.671 50.8114 177.438 50.8602Z" fill="#2B5279"/>
<path opacity="0.4" d="M177.438 50.8602L175.31 50.9525C175 50.9905 174.87 51.5443 175.017 52.1849C175.163 52.8255 175.533 53.3141 175.842 53.2706L177.889 52.8255C178.122 52.7929 178.214 52.326 178.089 51.7831C177.965 51.2403 177.671 50.8114 177.438 50.8602Z" fill="black"/>
<path d="M178.236 51.528C178.182 51.8483 177.965 52.0709 177.758 52.0329C177.552 51.9949 177.433 51.7126 177.487 51.3923C177.541 51.072 177.758 50.8494 177.965 50.8874C178.171 50.9254 178.296 51.2131 178.236 51.528Z" fill="#263238"/>
<path d="M177.997 52.0762C177.446 52.9777 176.771 53.798 175.994 54.5138C176.184 54.7054 176.414 54.8532 176.667 54.947C176.92 55.0407 177.191 55.0782 177.46 55.0566L177.997 52.0762Z" fill="#ED847E"/>
<path d="M179.713 49.9807C179.66 49.9797 179.609 49.9583 179.572 49.921C179.412 49.7463 179.213 49.6118 178.991 49.5288C178.769 49.4457 178.531 49.4164 178.296 49.4433C178.246 49.4514 178.195 49.4401 178.154 49.4118C178.113 49.3835 178.084 49.3404 178.073 49.2913C178.068 49.2667 178.069 49.2414 178.074 49.2169C178.079 49.1923 178.089 49.1691 178.103 49.1484C178.117 49.1277 178.135 49.11 178.156 49.0963C178.177 49.0827 178.201 49.0733 178.225 49.0687C178.524 49.0289 178.828 49.0619 179.112 49.1649C179.396 49.2679 179.65 49.4379 179.854 49.6604C179.879 49.6869 179.896 49.7201 179.902 49.7559C179.909 49.7917 179.905 49.8287 179.892 49.8625C179.878 49.8963 179.855 49.9254 179.825 49.9463C179.795 49.9673 179.76 49.9792 179.724 49.9807H179.713Z" fill="#263238"/>
<path d="M187.313 55.7461C186.808 58.6776 186.363 64.0359 188.448 65.936C188.448 65.936 187.715 68.9109 182.297 69.0358C176.325 69.1715 179.381 66.1422 179.381 66.1422C182.639 65.2899 182.476 62.885 181.857 60.6266L187.313 55.7461Z" fill="#FFC3BD"/>
<path d="M155.793 192.215C155.283 192.215 154.789 192.145 154.621 191.911C154.577 191.851 154.554 191.779 154.554 191.705C154.554 191.631 154.577 191.559 154.621 191.499C154.653 191.443 154.696 191.395 154.747 191.357C154.799 191.319 154.857 191.291 154.919 191.276C155.582 191.097 156.977 191.895 157.037 191.928C157.053 191.938 157.065 191.953 157.073 191.97C157.081 191.987 157.083 192.007 157.08 192.025C157.077 192.044 157.068 192.062 157.054 192.076C157.041 192.089 157.023 192.098 157.004 192.101C156.604 192.174 156.199 192.212 155.793 192.215ZM155.164 191.466C155.102 191.457 155.04 191.457 154.979 191.466C154.941 191.474 154.905 191.489 154.873 191.512C154.841 191.534 154.814 191.563 154.794 191.596C154.729 191.716 154.751 191.776 154.794 191.808C154.984 192.063 155.989 192.069 156.733 191.966C156.247 191.699 155.714 191.53 155.164 191.466Z" fill="#2B5279"/>
<path d="M156.999 192.101H156.961C156.477 191.884 155.527 191.015 155.598 190.57C155.598 190.467 155.69 190.331 155.951 190.304C156.048 190.292 156.146 190.301 156.239 190.329C156.333 190.357 156.419 190.404 156.494 190.467C157.004 190.885 157.107 191.96 157.113 192.004C157.115 192.02 157.112 192.037 157.106 192.052C157.099 192.067 157.088 192.081 157.075 192.09C157.063 192.098 157.051 192.102 157.038 192.104C157.025 192.106 157.011 192.105 156.999 192.101ZM156.027 190.473H155.967C155.799 190.473 155.788 190.559 155.783 190.581C155.739 190.847 156.391 191.526 156.868 191.824C156.822 191.366 156.632 190.935 156.325 190.592C156.24 190.524 156.136 190.486 156.027 190.483V190.473Z" fill="#2B5279"/>
<path d="M161.385 192.009H157.395L156.999 182.775H160.989L161.385 192.009Z" fill="#FFC3BD"/>
<path d="M157.422 191.548H161.765C161.844 191.548 161.921 191.575 161.983 191.624C162.045 191.673 162.089 191.742 162.107 191.819L162.894 195.364C162.914 195.45 162.914 195.539 162.894 195.625C162.874 195.711 162.835 195.791 162.78 195.86C162.724 195.928 162.654 195.983 162.574 196.021C162.494 196.058 162.407 196.077 162.319 196.075C160.75 196.048 158.481 195.956 156.505 195.956C154.197 195.956 152.2 196.081 149.496 196.081C147.867 196.081 147.4 194.425 148.085 194.273C151.206 193.594 153.752 193.518 156.45 191.857C156.739 191.666 157.076 191.559 157.422 191.548Z" fill="#263238"/>
<path d="M173.274 67.3964C173.274 67.3964 169.137 72.2823 173.817 101.864L195.147 101.381C195.206 98.5142 193.366 85.9628 194.783 72.4886C194.872 71.6947 194.798 70.8911 194.566 70.1268C194.334 69.3625 193.948 68.6537 193.432 68.0438C192.916 67.4339 192.281 66.9358 191.566 66.5799C190.851 66.224 190.07 66.0178 189.273 65.974L188.448 65.9469C185.424 65.8379 182.397 65.9068 179.381 66.1532C177.316 66.4077 175.274 66.8233 173.274 67.3964Z" fill="#2B5279"/>
<path opacity="0.3" d="M173.274 67.3964C173.274 67.3964 173.746 67.2553 174.517 67.0598C176.868 67.2498 178.068 69.9208 177.503 72.7329C177.085 74.8284 174.121 77.7491 171.597 79.9044C171.423 69.5896 173.274 67.3964 173.274 67.3964Z" fill="black"/>
<path d="M176.173 72.9772C175.874 73.0477 175.722 73.0695 175.522 73.1075L174.979 73.1997C174.61 73.2432 174.24 73.2812 173.893 73.3029C173.166 73.3626 172.454 73.3789 171.721 73.368C170.3 73.3291 168.885 73.1637 167.492 72.874C166.108 72.5768 164.75 72.1683 163.432 71.6525L162.465 71.2291L161.895 70.9739C161.37 70.7206 160.911 70.349 160.554 69.8882C160.211 69.4495 159.969 68.9394 159.849 68.3953C159.762 68.0053 159.729 67.6053 159.751 67.2064C159.786 66.6664 159.892 66.1335 160.066 65.6211C160.329 64.8673 160.664 64.1403 161.065 63.4496C161.408 62.8432 161.781 62.2543 162.183 61.6853C162.959 60.5995 163.768 59.5409 164.615 58.5528C166.289 56.5809 168.084 54.7152 169.99 52.9666L172.232 54.9481C170.842 56.9894 169.447 59.074 168.144 61.137C167.503 62.1793 166.874 63.2162 166.325 64.2477C166.054 64.7634 165.782 65.2737 165.576 65.7623C165.379 66.1899 165.222 66.6352 165.109 67.0923C165.071 67.2606 165.077 67.4018 165.109 67.3584C165.127 67.2779 165.127 67.1946 165.109 67.1141C165.059 66.8764 164.955 66.6535 164.805 66.4626C164.644 66.2566 164.441 66.088 164.208 65.9686L164.311 66.0012L164.507 66.0609L165.305 66.3106C166.374 66.6117 167.462 66.8403 168.562 66.9946C169.65 67.1507 170.747 67.2287 171.846 67.2281C172.389 67.2281 172.932 67.2281 173.475 67.1846C173.746 67.1846 174.018 67.1358 174.262 67.1086L174.903 67.0326L176.173 72.9772Z" fill="#FFC3BD"/>
<path d="M178.6 74.7145C175.826 77.3312 164.203 73.1618 164.203 73.1618L167.14 66.137C167.14 66.137 172.465 66.0338 177.395 66.137C183.486 66.3107 181.645 71.8481 178.6 74.7145Z" fill="#2B5279"/>
<path d="M169.409 54.9264L169.268 50.8603L173.296 50.426C173.296 50.426 174.154 54.5681 171.488 55.6159L169.409 54.9264Z" fill="#FFC3BD"/>
<path d="M170.478 49.1936L172.65 49.0959C172.762 49.0908 172.874 49.1116 172.977 49.1567C173.08 49.2018 173.172 49.2701 173.244 49.3562C173.317 49.4423 173.368 49.5439 173.395 49.6531C173.422 49.7624 173.423 49.8764 173.399 49.9862L173.296 50.426L169.268 50.8603L169.854 49.6171C169.908 49.4954 169.996 49.3914 170.106 49.3166C170.216 49.2418 170.345 49.1992 170.478 49.1936Z" fill="#FFC3BD"/>
<path opacity="0.2" d="M156.999 182.775L157.205 187.536H161.195L160.989 182.775H156.999Z" fill="black"/>
<path d="M188.92 52.7549C187.981 56.5985 187.628 58.9003 185.304 60.5398C181.808 63.0154 177.329 60.3715 177.101 56.3217C176.895 52.6789 178.464 47.0004 182.53 46.1372C183.43 45.9475 184.363 45.9894 185.242 46.2589C186.121 46.5285 186.917 47.0169 187.556 47.6783C188.195 48.3398 188.655 49.1526 188.893 50.0405C189.132 50.9285 189.141 51.8625 188.92 52.7549Z" fill="#FFC3BD"/>
<path d="M180.82 53.1512C179.403 52.2174 180.277 48.477 180.576 47.755C180.201 47.9327 179.781 47.9951 179.371 47.9341C179.371 47.9341 180.76 45.1763 184.74 46.0123C188.719 46.8483 190.831 49.8125 189.989 52.6137C189.148 55.415 187.785 58.9709 185.885 59.2152C183.985 59.4594 180.185 58.1294 180.82 53.1512Z" fill="#263238"/>
<path d="M180.467 50.8603C179.045 49.4054 175.619 46.729 175.739 45.8549C175.951 44.324 180.332 43.3251 183.925 48.9385C185.521 51.4357 182.21 52.6464 180.467 50.8603Z" fill="#2B5279"/>
<path opacity="0.3" d="M180.467 50.8603C179.045 49.4054 175.619 46.729 175.739 45.8549C175.951 44.324 180.332 43.3251 183.925 48.9385C185.521 51.4357 182.21 52.6464 180.467 50.8603Z" fill="black"/>
<path d="M178.888 48.2164C178.846 48.3498 178.835 48.4909 178.855 48.6292C178.876 48.7674 178.928 48.8992 179.007 49.0145C179.927 50.3695 181.041 51.5821 182.313 52.6137C184.669 54.5247 188.491 54.8178 189.555 54.617C190.424 54.4487 191.021 51.4574 191.216 50.3717C191.262 50.1137 191.226 49.8481 191.113 49.6116C190.695 48.7267 189.485 46.5172 187.579 45.6649C185.674 44.8126 182.78 44.9211 181.634 44.9971C181.312 45.0198 181.009 45.1632 180.788 45.3989C179.972 46.2017 179.326 47.1598 178.888 48.2164Z" fill="#2B5279"/>
<path d="M186.624 53.0317L186.216 53.9872C187.25 54.2302 188.309 54.3487 189.371 54.3401C189.556 54.6639 189.712 55.0036 189.837 55.3553C189.976 55.0595 190.047 54.7371 190.047 54.4106C190.047 54.0842 189.976 53.7618 189.837 53.466C188.754 53.4328 187.677 53.2872 186.624 53.0317Z" fill="#263238"/>
<path d="M183.155 53.6398C182.764 54.5431 182.089 55.2942 181.233 55.7788C180.098 56.3977 179.436 55.5399 179.669 54.389C179.881 53.3467 180.722 51.7723 181.9 51.6203C183.079 51.4683 183.605 52.5432 183.155 53.6398Z" fill="#FFC3BD"/>
<path d="M195.516 192.215C195.085 192.267 194.651 192.158 194.294 191.911C194.243 191.857 194.21 191.789 194.198 191.715C194.186 191.642 194.197 191.566 194.229 191.499C194.252 191.444 194.287 191.395 194.333 191.356C194.378 191.317 194.432 191.29 194.49 191.276C195.125 191.097 196.661 191.895 196.721 191.928C196.738 191.938 196.753 191.952 196.763 191.969C196.774 191.986 196.78 192.005 196.781 192.025C196.782 192.043 196.777 192.061 196.766 192.075C196.755 192.089 196.739 192.099 196.721 192.101C196.324 192.175 195.92 192.213 195.516 192.215ZM194.75 191.466C194.691 191.458 194.631 191.458 194.571 191.466C194.536 191.473 194.502 191.489 194.474 191.512C194.446 191.534 194.423 191.563 194.408 191.596C194.388 191.628 194.377 191.665 194.377 191.702C194.377 191.74 194.388 191.777 194.408 191.808C194.642 192.063 195.652 192.069 196.374 191.966C195.865 191.707 195.316 191.538 194.75 191.466Z" fill="#2B5279"/>
<path d="M196.699 192.101H196.661C196.146 191.884 195.033 191.016 195.033 190.57C195.033 190.467 195.082 190.332 195.337 190.304C195.531 190.293 195.724 190.351 195.88 190.467C196.324 190.886 196.643 191.42 196.803 192.009C196.809 192.023 196.813 192.037 196.813 192.052C196.813 192.068 196.809 192.082 196.803 192.096C196.788 192.107 196.77 192.113 196.752 192.114C196.733 192.115 196.715 192.111 196.699 192.101ZM195.451 190.473H195.396C195.228 190.473 195.228 190.56 195.228 190.581C195.228 190.847 195.994 191.526 196.537 191.824C196.406 191.355 196.15 190.929 195.798 190.592C195.697 190.52 195.575 190.482 195.451 190.484V190.473Z" fill="#2B5279"/>
<path d="M201.14 192.009H197.155L194.729 182.775H198.713L201.14 192.009Z" fill="#FFC3BD"/>
<path d="M197.031 191.548H201.374C201.457 191.55 201.538 191.577 201.607 191.626C201.675 191.674 201.728 191.741 201.759 191.819L203.16 195.364C203.199 195.44 203.217 195.525 203.213 195.611C203.209 195.696 203.182 195.779 203.136 195.851C203.09 195.923 203.026 195.981 202.95 196.021C202.874 196.06 202.789 196.079 202.704 196.075C201.129 196.048 198.844 195.956 196.868 195.956C194.56 195.956 192.59 196.081 189.881 196.081C188.252 196.081 187.503 194.425 188.165 194.273C191.167 193.594 193.703 193.518 196.113 191.857C196.379 191.661 196.7 191.553 197.031 191.548Z" fill="#263238"/>
<path opacity="0.2" d="M194.729 182.775L196.124 188.084L199.967 187.536L198.719 182.775H194.729Z" fill="black"/>
<path d="M180.516 101.717C180.516 101.717 173.708 132.043 175.771 144.214C177.943 156.868 194.316 186.613 194.316 186.613L200.782 185.782C200.782 185.782 191.423 151.928 187.753 143.438C190.467 118.297 196.108 113.769 195.114 101.408L180.516 101.717Z" fill="#263238"/>
<path opacity="0.2" d="M181.358 111.744C181.055 111.481 180.673 111.327 180.272 111.305C179.289 114.073 178.198 117.184 177.091 120.365C176.548 124.035 176.048 127.879 175.744 131.521C180.228 123.335 184.278 114.144 181.358 111.744Z" fill="black"/>
<path d="M192.416 184.523C192.389 184.523 193.638 187.194 193.638 187.194L201.781 186.108L201.238 183.654L192.416 184.523Z" fill="#2B5279"/>
<path d="M173.817 101.891C173.817 101.891 154.458 130.783 154.414 142.954C154.387 155.614 155.717 186.613 155.717 186.613H162.471C162.471 186.613 167.096 155.528 166.553 142.156C171.678 131.587 180.348 119.285 185.071 110.816C186.688 107.936 187.79 104.797 188.328 101.538L173.817 101.891Z" fill="#263238"/>
<path d="M154.42 183.92C154.387 183.92 154.8 186.727 154.8 186.727H163.019L163.242 184.224L154.42 183.92Z" fill="#2B5279"/>
<path d="M176.369 66.0935C178.29 66.7775 183.008 75.127 171.803 81.001C171.677 81.0666 171.571 81.1645 171.496 81.2847C171.42 81.405 171.378 81.5431 171.374 81.685C171.32 87.2549 171.504 94.7141 171.917 98.0203C171.93 98.124 171.964 98.2241 172.017 98.3147C172.069 98.4052 172.139 98.4844 172.222 98.5476C172.306 98.6108 172.401 98.6567 172.502 98.6827C172.604 98.7086 172.709 98.7141 172.813 98.6989C182.042 97.3417 191.173 97.2819 194.685 97.6131C194.801 97.6247 194.917 97.6108 195.026 97.5722C195.136 97.5337 195.235 97.4714 195.317 97.39C195.4 97.3086 195.463 97.21 195.503 97.1012C195.543 96.9925 195.559 96.8762 195.548 96.7608C195.065 91.674 194.522 80.1269 195.152 75.5504C195.831 70.6645 195.51 68.341 193.16 66.3215C192.504 65.735 191.723 65.3075 190.875 65.0721C190.028 64.8367 189.138 64.7998 188.274 64.9643C188.274 64.9643 180.581 65.556 179.908 65.5995C178.719 65.688 177.537 65.853 176.369 66.0935Z" fill="#263238"/>
<path d="M179.278 65.4257L180.256 65.3714C180.312 65.3684 180.368 65.3829 180.415 65.4131C180.463 65.4432 180.5 65.4875 180.522 65.5397C181.2 67.1684 186.64 79.8175 194.892 80.0726C194.96 80.0726 195.026 80.0991 195.076 80.1467C195.126 80.1942 195.155 80.2591 195.158 80.3278C195.158 80.7349 195.158 81.1258 195.158 81.3647C195.155 81.4303 195.129 81.4929 195.084 81.5408C195.039 81.5887 194.979 81.6187 194.913 81.6253C193.48 81.7664 185.641 81.7556 179.039 65.8057C179.023 65.7651 179.017 65.7212 179.02 65.6775C179.024 65.6339 179.038 65.5918 179.062 65.5547C179.085 65.5176 179.117 65.4865 179.155 65.4641C179.192 65.4417 179.235 65.4285 179.278 65.4257Z" fill="#2B5279"/>
<path d="M201.39 49.5085L200.597 49.2642L200.858 48.4281L199.772 48.0916L194.235 66.0066L193.502 65.784C193.35 65.7362 193.189 65.7188 193.031 65.7331C192.872 65.7473 192.717 65.7928 192.576 65.867C192.435 65.9411 192.309 66.0425 192.207 66.1652C192.106 66.2879 192.029 66.4296 191.982 66.5821L187.888 79.8337C187.774 79.7475 187.645 79.6814 187.508 79.6383C186.488 79.3234 185.293 80.2681 184.837 81.7338C184.381 83.1996 184.837 84.6545 185.858 84.9911C185.997 85.0325 186.142 85.0527 186.287 85.0508L185.402 87.9389C185.354 88.0911 185.337 88.2513 185.351 88.4102C185.365 88.5691 185.411 88.7236 185.485 88.8649C185.559 89.0062 185.661 89.1314 185.783 89.2333C185.906 89.3353 186.048 89.412 186.2 89.459L187.248 89.7847C187.35 89.8156 187.457 89.8261 187.563 89.8155C187.669 89.8049 187.772 89.7735 187.866 89.7231C187.959 89.6726 188.042 89.6042 188.11 89.5216C188.177 89.439 188.227 89.3439 188.258 89.2419L191.672 78.1834L195.092 67.1249L199.794 51.9243L201.39 49.5085ZM186.005 84.5188C185.255 84.2854 184.919 83.0856 185.304 81.8913C185.69 80.6969 186.613 79.8826 187.362 80.116C187.501 80.1641 187.628 80.2441 187.731 80.3495L186.879 83.1127C186.56 82.8394 186.305 82.5005 186.13 82.1193C186.104 82.0608 186.057 82.0145 185.999 81.9902C185.94 81.9658 185.874 81.9654 185.815 81.989C185.756 82.0152 185.709 82.0632 185.685 82.1229C185.661 82.1826 185.661 82.2494 185.684 82.3093C185.916 82.8234 186.277 83.2686 186.732 83.6013L186.444 84.5297C186.299 84.5615 186.148 84.5578 186.005 84.5188Z" fill="#2B5279"/>
<path opacity="0.7" d="M201.39 49.5085L200.597 49.2642L200.858 48.4281L199.772 48.0916L194.235 66.0066L193.502 65.784C193.35 65.7362 193.189 65.7188 193.031 65.7331C192.872 65.7473 192.717 65.7928 192.576 65.867C192.435 65.9411 192.309 66.0425 192.207 66.1652C192.106 66.2879 192.029 66.4296 191.982 66.5821L187.888 79.8337C187.774 79.7475 187.645 79.6814 187.508 79.6383C186.488 79.3234 185.293 80.2681 184.837 81.7338C184.381 83.1996 184.837 84.6545 185.858 84.9911C185.997 85.0325 186.142 85.0527 186.287 85.0508L185.402 87.9389C185.354 88.0911 185.337 88.2513 185.351 88.4102C185.365 88.5691 185.411 88.7236 185.485 88.8649C185.559 89.0062 185.661 89.1314 185.783 89.2333C185.906 89.3353 186.048 89.412 186.2 89.459L187.248 89.7847C187.35 89.8156 187.457 89.8261 187.563 89.8155C187.669 89.8049 187.772 89.7735 187.866 89.7231C187.959 89.6726 188.042 89.6042 188.11 89.5216C188.177 89.439 188.227 89.3439 188.258 89.2419L191.672 78.1834L195.092 67.1249L199.794 51.9243L201.39 49.5085ZM186.005 84.5188C185.255 84.2854 184.919 83.0856 185.304 81.8913C185.69 80.6969 186.613 79.8826 187.362 80.116C187.501 80.1641 187.628 80.2441 187.731 80.3495L186.879 83.1127C186.56 82.8394 186.305 82.5005 186.13 82.1193C186.104 82.0608 186.057 82.0145 185.999 81.9902C185.94 81.9658 185.874 81.9654 185.815 81.989C185.756 82.0152 185.709 82.0632 185.685 82.1229C185.661 82.1826 185.661 82.2494 185.684 82.3093C185.916 82.8234 186.277 83.2686 186.732 83.6013L186.444 84.5297C186.299 84.5615 186.148 84.5578 186.005 84.5188Z" fill="white"/>
<path d="M189.597 79.4262L188.518 79.093C188.302 79.0263 188.122 78.8766 188.016 78.6767C187.91 78.4768 187.889 78.2432 187.955 78.0272L191.604 66.2109C191.67 65.9977 191.777 65.7995 191.919 65.6277C192.062 65.4559 192.237 65.3139 192.434 65.2097C192.631 65.1055 192.847 65.0411 193.069 65.0204C193.292 64.9996 193.516 65.0228 193.729 65.0886L194.004 65.1735C194.141 65.216 194.256 65.3114 194.324 65.4387C194.391 65.566 194.405 65.7149 194.362 65.8524L190.288 79.0485C190.245 79.1861 190.15 79.3011 190.022 79.3684C189.895 79.4356 189.746 79.4495 189.609 79.407L189.597 79.4262Z" fill="#2B5279"/>
<path opacity="0.2" d="M189.597 79.4262L188.518 79.093C188.302 79.0263 188.122 78.8766 188.016 78.6767C187.91 78.4768 187.889 78.2432 187.955 78.0272L191.604 66.2109C191.67 65.9977 191.777 65.7995 191.919 65.6277C192.062 65.4559 192.237 65.3139 192.434 65.2097C192.631 65.1055 192.847 65.0411 193.069 65.0204C193.292 64.9996 193.516 65.0228 193.729 65.0886L194.004 65.1735C194.141 65.216 194.256 65.3114 194.324 65.4387C194.391 65.566 194.405 65.7149 194.362 65.8524L190.288 79.0485C190.245 79.1861 190.15 79.3011 190.022 79.3684C189.895 79.4356 189.746 79.4495 189.609 79.407L189.597 79.4262Z" fill="black"/>
<path d="M186.037 85.4308L188.974 86.3374C189.075 86.3655 189.17 86.4135 189.252 86.4787C189.335 86.5439 189.403 86.6249 189.454 86.717C189.505 86.809 189.536 86.9103 189.547 87.0148C189.558 87.1193 189.548 87.2249 189.517 87.3254L188.849 89.4047C188.822 89.4857 188.784 89.5625 188.735 89.6327L185.706 93.8617C185.612 93.9961 185.561 94.1563 185.561 94.3205C185.561 94.4846 185.612 94.6448 185.706 94.7792C185.871 95.0021 185.982 95.2604 186.03 95.5337C186.079 95.8069 186.062 96.0877 185.983 96.3535C185.646 97.4393 182.59 106.212 181.52 108.704C181.454 108.857 181.341 108.984 181.198 109.069C181.054 109.154 180.888 109.191 180.722 109.176C178.833 109.041 176.792 108.047 175.69 107.434C175.589 107.377 175.502 107.298 175.435 107.203C175.368 107.109 175.323 107 175.303 106.886C175.283 106.772 175.288 106.655 175.318 106.543C175.349 106.431 175.403 106.328 175.478 106.239C177.232 104.171 182.226 98.1939 182.617 96.7987C182.91 95.7564 182.34 95.3764 181.857 95.2352C181.692 95.1845 181.549 95.0798 181.451 94.9381C181.352 94.7964 181.304 94.6257 181.314 94.4535L181.352 93.4383C181.354 93.3364 181.375 93.2358 181.416 93.1426C181.457 93.0493 181.517 92.9652 181.591 92.8954C182.134 92.4068 183.475 90.7727 185.055 85.9194C185.123 85.7261 185.263 85.5669 185.447 85.4756C185.63 85.3844 185.842 85.3683 186.037 85.4308Z" fill="#2B5279"/>
<path opacity="0.2" d="M186.037 85.4308L188.974 86.3374C189.075 86.3655 189.17 86.4135 189.252 86.4787C189.335 86.5439 189.403 86.6249 189.454 86.717C189.505 86.809 189.536 86.9103 189.547 87.0148C189.558 87.1193 189.548 87.2249 189.517 87.3254L188.849 89.4047C188.822 89.4857 188.784 89.5625 188.735 89.6327L185.706 93.8617C185.612 93.9961 185.561 94.1563 185.561 94.3205C185.561 94.4846 185.612 94.6448 185.706 94.7792C185.871 95.0021 185.982 95.2604 186.03 95.5337C186.079 95.8069 186.062 96.0877 185.983 96.3535C185.646 97.4393 182.59 106.212 181.52 108.704C181.454 108.857 181.341 108.984 181.198 109.069C181.054 109.154 180.888 109.191 180.722 109.176C178.833 109.041 176.792 108.047 175.69 107.434C175.589 107.377 175.502 107.298 175.435 107.203C175.368 107.109 175.323 107 175.303 106.886C175.283 106.772 175.288 106.655 175.318 106.543C175.349 106.431 175.403 106.328 175.478 106.239C177.232 104.171 182.226 98.1939 182.617 96.7987C182.91 95.7564 182.34 95.3764 181.857 95.2352C181.692 95.1845 181.549 95.0798 181.451 94.9381C181.352 94.7964 181.304 94.6257 181.314 94.4535L181.352 93.4383C181.354 93.3364 181.375 93.2358 181.416 93.1426C181.457 93.0493 181.517 92.9652 181.591 92.8954C182.134 92.4068 183.475 90.7727 185.055 85.9194C185.123 85.7261 185.263 85.5669 185.447 85.4756C185.63 85.3844 185.842 85.3683 186.037 85.4308Z" fill="black"/>
<path opacity="0.3" d="M172.867 87.4286C173.166 89.2038 172.563 93.7966 173.29 94.4535C174.018 95.1104 178.48 94.3449 179.018 93.992C179.555 93.6392 178.969 87.3092 178.85 86.5166C178.73 85.724 172.78 86.902 172.867 87.4286Z" fill="black"/>
<path d="M172.52 86.9943C173.062 86.294 178.703 85.6588 178.882 86.2288C179.061 86.7989 177.096 88.9432 175.315 89.1115C173.535 89.2798 171.998 87.7 172.52 86.9943Z" fill="#263238"/>
<path opacity="0.2" d="M172.52 86.9943C173.062 86.294 178.703 85.6588 178.882 86.2288C179.061 86.7989 177.096 88.9432 175.315 89.1115C173.535 89.2798 171.998 87.7 172.52 86.9943Z" fill="white"/>
</svg>
