<svg width="272" height="201" viewBox="0 0 272 201" fill="none" xmlns="http://www.w3.org/2000/svg">
<g id="mistery-box/rafiki">
<g id="background-complete">
<path id="Vector" d="M271.719 178.737H0.28125V178.873H271.719V178.737Z" fill="#EBEBEB"/>
<path id="Vector_2" d="M244.521 187.472H226.541V187.608H244.521V187.472Z" fill="#EBEBEB"/>
<path id="Vector_3" d="M180.092 188.949H175.375V189.084H180.092V188.949Z" fill="#EBEBEB"/>
<path id="Vector_4" d="M225.998 182.434H215.58V182.57H225.998V182.434Z" fill="#EBEBEB"/>
<path id="Vector_5" d="M52.2073 183.346H28.7605V183.482H52.2073V183.346Z" fill="#EBEBEB"/>
<path id="Vector_6" d="M60.4807 183.346H57.0443V183.482H60.4807V183.346Z" fill="#EBEBEB"/>
<path id="Vector_7" d="M122.51 185.637H71.653V185.773H122.51V185.637Z" fill="#EBEBEB"/>
<path id="Vector_8" d="M128.943 154.525H24.1189C23.2977 154.524 22.5106 154.196 21.9305 153.615C21.3503 153.034 21.0245 152.246 21.0245 151.425V4.07267C21.0316 3.2562 21.3606 2.47552 21.94 1.90021C22.5194 1.32489 23.3024 1.0014 24.1189 1H128.943C129.765 1 130.553 1.32659 131.135 1.90792C131.716 2.48924 132.042 3.27769 132.042 4.09982V151.425C132.042 152.247 131.716 153.036 131.135 153.617C130.553 154.198 129.765 154.525 128.943 154.525ZM24.1189 1.10858C23.3337 1.11001 22.5812 1.42294 22.0265 1.97866C21.4718 2.53438 21.1602 3.28748 21.1602 4.07267V151.425C21.1602 152.21 21.4718 152.964 22.0265 153.519C22.5812 154.075 23.3337 154.388 24.1189 154.389H128.943C129.728 154.388 130.481 154.075 131.037 153.52C131.593 152.964 131.905 152.211 131.907 151.425V4.07267C131.905 3.28699 131.593 2.53389 131.037 1.97832C130.481 1.42276 129.728 1.11001 128.943 1.10858H24.1189Z" fill="#EBEBEB"/>
<path id="Vector_9" d="M246.372 154.525H141.543C140.721 154.524 139.933 154.197 139.352 153.616C138.771 153.035 138.444 152.247 138.443 151.425V4.07267C138.452 3.25571 138.782 2.47503 139.362 1.89987C139.942 1.3247 140.726 1.00138 141.543 1H246.372C247.187 1.00283 247.969 1.32695 248.547 1.90211C249.125 2.47728 249.454 3.25714 249.461 4.07267V151.425C249.461 152.245 249.136 153.032 248.557 153.613C247.978 154.194 247.192 154.522 246.372 154.525ZM141.543 1.10858C140.757 1.11001 140.004 1.42276 139.448 1.97832C138.893 2.53389 138.58 3.28699 138.579 4.07267V151.425C138.58 152.211 138.893 152.964 139.448 153.52C140.004 154.075 140.757 154.388 141.543 154.389H246.372C247.158 154.388 247.911 154.075 248.466 153.52C249.022 152.964 249.335 152.211 249.336 151.425V4.07267C249.335 3.28699 249.022 2.53389 248.466 1.97832C247.911 1.42276 247.158 1.11001 246.372 1.10858H141.543Z" fill="#EBEBEB"/>
<path id="Vector_10" d="M239.07 61.1125V73.0829L235.015 88.7557H231.817L239.07 61.1125Z" fill="white"/>
<path id="Vector_11" d="M87.0949 126.396H28.7605V178.708H87.0949V126.396Z" fill="#F5F5F5"/>
<path id="Vector_12" d="M49.0653 126.396H28.7605V178.708H49.0653V126.396Z" fill="#EBEBEB"/>
<path id="Vector_13" d="M98.7013 75.1583H40.3669V127.471H98.7013V75.1583Z" fill="#EBEBEB"/>
<path id="Vector_14" d="M60.6717 75.1583H40.3669V127.471H60.6717V75.1583Z" fill="#E0E0E0"/>
<path id="Vector_15" d="M87.0949 23H28.7605V75.3125H87.0949V23Z" fill="#F5F5F5"/>
<path id="Vector_16" d="M49.0653 23H28.7605V75.3125H49.0653V23Z" fill="#EBEBEB"/>
<path id="Vector_17" d="M150.576 126.441H92.2418V178.754H150.576V126.441Z" fill="#EBEBEB"/>
<path id="Vector_18" d="M112.547 126.441H92.2418V178.754H112.547V126.441Z" fill="#E0E0E0"/>
<path id="Vector_19" d="M136.999 107.876H87.7764V135.524H136.999V107.876Z" fill="#F5F5F5"/>
<path id="Vector_20" d="M104.91 107.876H87.7764V135.524H104.91V107.876Z" fill="#E6E6E6"/>
<path id="Vector_21" d="M131.861 42.9894H94.1719V95.3019H131.861V42.9894Z" fill="#EBEBEB"/>
<path id="Vector_22" d="M95.0238 64.196H83.9546V108.337H95.0238V64.196Z" fill="#E0E0E0"/>
<path id="Vector_23" d="M175.32 178.797H252.278V109.783L175.32 109.783V178.797Z" fill="#ECECEC"/>
<path id="Vector_24" d="M225.491 178.797H252.278V109.783H225.491V178.797Z" fill="#E6E6E6"/>
<path id="Vector_25" d="M160 111.201L236.958 111.201V55.0209L160 55.0209V111.201Z" fill="#EBEBEB"/>
<path id="Vector_26" d="M210.179 111.201H236.966V55.0209H210.179V111.201Z" fill="#E0E0E0"/>
<path id="Vector_27" d="M178.062 55.021L252.278 55.021V27.5208L178.062 27.5208V55.021Z" fill="#ECECEC"/>
<path id="Vector_28" d="M226.459 55.021H252.287V27.5208L226.459 27.5208V55.021Z" fill="#E6E6E6"/>
</g>
<g id="Shadow">
<path id="Vector_29" d="M232.575 197.085C232.575 198.963 180.733 200.487 116.781 200.487C52.83 200.487 0.987289 198.974 0.987289 197.085C0.987289 195.195 52.83 193.687 116.781 193.687C180.733 193.687 232.575 195.217 232.575 197.085Z" fill="#F5F5F5"/>
</g>
<g id="mistery-box">
<path id="Vector_30" d="M189.38 57L200.088 66.607H153.628L144.552 57H189.38Z" fill="#2B5279"/>
<path id="Vector_31" opacity="0.5" d="M189.38 57L200.088 66.607H153.628L144.552 57H189.38Z" fill="black"/>
<path id="Vector_32" d="M189.403 57H144.552V101.851H189.403V57Z" fill="#2B5279"/>
<path id="Vector_33" opacity="0.2" d="M189.403 57H144.552V101.851H189.403V57Z" fill="black"/>
<path id="Vector_34" d="M174.998 57H130.147V101.851H174.998V57Z" fill="#2B5279"/>
<path id="Vector_35" d="M130.164 57L119.456 66.607H165.916L174.993 57H130.164Z" fill="#2B5279"/>
<path id="Vector_36" opacity="0.3" d="M130.164 57L119.456 66.607H165.916L174.993 57H130.164Z" fill="white"/>
<path id="Vector_37" d="M153.301 72.4547C157.478 72.4547 160.317 74.9157 160.317 78.9741C160.317 83.3712 157.201 85.3073 153.018 85.3073L152.894 87.7739H149.807L149.649 82.8745H150.676C154.204 82.8745 156.919 82.2479 156.919 78.9741C156.919 76.7897 155.575 75.4463 153.329 75.4463C151.082 75.4463 149.711 76.6937 149.711 78.8782H146.375C146.341 75.102 149.056 72.4547 153.301 72.4547ZM151.302 94.6659C150.856 94.6659 150.419 94.5335 150.048 94.2854C149.677 94.0373 149.387 93.6846 149.217 93.2721C149.046 92.8595 149.001 92.4056 149.088 91.9676C149.175 91.5296 149.39 91.1273 149.706 90.8115C150.022 90.4958 150.424 90.2808 150.862 90.1936C151.3 90.1065 151.754 90.1512 152.167 90.3221C152.579 90.493 152.932 90.7824 153.18 91.1537C153.428 91.525 153.56 91.9615 153.56 92.4081C153.56 93.0069 153.322 93.5811 152.899 94.0046C152.476 94.428 151.901 94.6659 151.302 94.6659Z" fill="white"/>
<path id="Vector_38" d="M176.934 101.851H124.068V106.497H176.934V101.851Z" fill="#2B5279"/>
<path id="Vector_39" opacity="0.3" d="M176.934 101.851H124.068V106.497H176.934V101.851Z" fill="black"/>
<path id="Vector_40" d="M196.571 101.851H176.934V106.497H196.571V101.851Z" fill="#2B5279"/>
<path id="Vector_41" opacity="0.5" d="M196.571 101.851H176.934V106.497H196.571V101.851Z" fill="black"/>
<path id="Vector_42" d="M159.058 106.497H155.875V193.925H159.058V106.497Z" fill="#263238"/>
<path id="Vector_43" opacity="0.2" d="M159.058 106.497H155.875V193.925H159.058V106.497Z" fill="white"/>
<path id="Vector_44" opacity="0.2" d="M159.058 108.67L155.875 109.991V106.497H159.058V108.67Z" fill="black"/>
<path id="Vector_45" d="M146.482 192.147H168.456C169.673 192.147 170.84 192.63 171.701 193.491C172.562 194.351 173.045 195.519 173.045 196.736H141.887C141.887 196.132 142.006 195.535 142.237 194.978C142.468 194.421 142.807 193.915 143.234 193.489C143.66 193.062 144.167 192.725 144.724 192.494C145.282 192.264 145.879 192.146 146.482 192.147Z" fill="#2B5279"/>
</g>
<g id="sspeech-bubble">
<path id="Vector_46" d="M62.7917 23.3399C69.0314 23.3399 74.0898 18.2815 74.0898 12.0417C74.0898 5.80194 69.0314 0.743591 62.7917 0.743591C56.5519 0.743591 51.4935 5.80194 51.4935 12.0417C51.4935 18.2815 56.5519 23.3399 62.7917 23.3399Z" fill="#2B5279"/>
<g id="Group" opacity="0.7">
<path id="Vector_47" d="M62.7917 23.3399C69.0314 23.3399 74.0898 18.2815 74.0898 12.0417C74.0898 5.80194 69.0314 0.743591 62.7917 0.743591C56.5519 0.743591 51.4935 5.80194 51.4935 12.0417C51.4935 18.2815 56.5519 23.3399 62.7917 23.3399Z" fill="white"/>
</g>
<path id="Vector_48" d="M62.7917 23.5706C60.5112 23.5716 58.2817 22.8964 56.3851 21.6302C54.4884 20.364 53.0099 18.5638 52.1365 16.4573C51.2631 14.3508 51.034 12.0325 51.4782 9.79575C51.9225 7.559 53.0201 5.50424 54.6322 3.89135C56.2443 2.27846 58.2986 1.1799 60.5351 0.734619C62.7717 0.289337 65.09 0.517333 67.197 1.38977C69.3039 2.26221 71.1048 3.73991 72.3719 5.63595C73.6389 7.53199 74.3152 9.7612 74.3152 12.0416C74.3124 15.0975 73.0976 18.0275 70.9372 20.1888C68.7769 22.3501 65.8475 23.5663 62.7917 23.5706ZM62.7917 0.979651C60.6023 0.97859 58.4618 1.62691 56.6409 2.8426C54.8201 4.05829 53.4007 5.78672 52.5624 7.80923C51.7241 9.83175 51.5045 12.0575 51.9313 14.2048C52.3582 16.3522 53.4124 18.3247 54.9605 19.8728C56.5086 21.4209 58.4811 22.4751 60.6285 22.902C62.7758 23.3288 65.0015 23.1092 67.0241 22.2709C69.0466 21.4326 70.775 20.0132 71.9907 18.1924C73.2064 16.3715 73.8547 14.231 73.8536 12.0416C73.8494 9.10913 72.6826 6.29794 70.609 4.22434C68.5354 2.15074 65.7242 0.98391 62.7917 0.979651Z" fill="#2B5279"/>
<path id="Vector_49" d="M62.8829 5.76727C65.325 5.76727 66.9889 7.20571 66.9889 9.58342C66.9889 12.1544 65.164 13.2868 62.695 13.2868L62.6199 14.7307H60.8165L60.7253 11.8645H61.3264C63.3874 11.8645 64.9761 11.4995 64.9761 9.58342C64.9996 9.30334 64.9611 9.02154 64.8634 8.758C64.7658 8.49446 64.6113 8.25563 64.4111 8.05843C64.2108 7.86124 63.9696 7.71052 63.7046 7.61695C63.4396 7.52338 63.1572 7.48926 62.8775 7.51701C61.5786 7.51701 60.7575 8.24696 60.7575 9.52438H58.8038C58.8091 7.31842 60.3978 5.76727 62.8829 5.76727ZM61.7128 18.7669C61.4476 18.7711 61.1872 18.6964 60.9646 18.5521C60.742 18.4079 60.5674 18.2007 60.4629 17.9569C60.3585 17.7131 60.3289 17.4437 60.378 17.1831C60.4271 16.9224 60.5527 16.6823 60.7387 16.4932C60.9247 16.3042 61.1628 16.1747 61.4226 16.1214C61.6824 16.0681 61.9523 16.0933 62.1977 16.1938C62.4432 16.2942 62.6532 16.4655 62.801 16.6857C62.9488 16.9059 63.0278 17.1652 63.0278 17.4304C63.0307 17.6049 62.9988 17.7782 62.934 17.9402C62.8691 18.1022 62.7727 18.2498 62.6503 18.3741C62.5279 18.4985 62.382 18.5973 62.2211 18.6647C62.0601 18.7322 61.8873 18.7669 61.7128 18.7669Z" fill="#2B5279"/>
<path id="Vector_50" d="M69.855 20.8548L73.5423 22.685C73.5846 22.7081 73.633 22.7174 73.6808 22.7116C73.7287 22.7058 73.7735 22.6851 73.809 22.6526C73.8445 22.6201 73.8689 22.5772 73.8788 22.5301C73.8888 22.483 73.8837 22.4339 73.8644 22.3898L72.2542 18.2087C71.5971 19.2103 70.7876 20.103 69.855 20.8548Z" fill="#2B5279"/>
</g>
<g id="Character">
<path id="Vector_51" d="M72.7856 41.433C73.3223 44.0307 95.3926 43.0002 94.3621 39.6457C94.1305 39.0479 93.8616 38.4653 93.557 37.9013C92.1239 34.8151 89.7355 30.9238 82.0227 30.9614C77.38 30.9775 71.2666 33.7846 72.7856 41.433Z" fill="url(#paint0_linear_81_4904)"/>
<path id="Vector_52" d="M100.148 187.343L101.281 193.064H104.302L104.71 187.343H100.148Z" fill="#FFC3BD"/>
<path id="Vector_53" d="M103.905 192.34C104.058 192.148 104.26 192.003 104.491 191.921C104.721 191.838 104.97 191.822 105.209 191.873C105.934 192.114 106.884 193.306 106.884 193.306C106.884 193.306 110.829 194.573 111.897 194.637C112.965 194.701 113.894 195.303 114.291 197.369H101.356C101.356 197.369 100.846 192.705 100.765 191.91C100.685 191.116 101.951 192.109 101.951 192.109L103.905 192.34Z" fill="url(#paint1_linear_81_4904)"/>
<path id="Vector_54" d="M113.91 196.752H111.58L101.382 196.644C101.254 196.644 101.254 196.44 101.382 196.446H102.07C102.067 196.437 102.067 196.428 102.07 196.419C102.271 195.912 102.272 195.348 102.073 194.841C101.873 194.333 101.488 193.921 100.996 193.687C100.985 193.681 100.975 193.672 100.967 193.662C100.959 193.652 100.953 193.64 100.949 193.628C100.946 193.615 100.945 193.602 100.947 193.589C100.948 193.576 100.952 193.564 100.958 193.553C100.965 193.541 100.973 193.532 100.984 193.524C100.994 193.516 101.005 193.51 101.018 193.506C101.03 193.503 101.043 193.502 101.056 193.503C101.069 193.505 101.081 193.509 101.093 193.515C101.618 193.77 102.028 194.212 102.242 194.755C102.456 195.298 102.457 195.902 102.247 196.446H103.68L113.878 196.553C114.039 196.548 114.039 196.757 113.91 196.752Z" fill="black"/>
<path id="Vector_55" d="M106.428 194.116C106.52 193.965 106.644 193.835 106.79 193.735C106.936 193.635 107.102 193.567 107.276 193.536C107.451 193.504 107.63 193.51 107.802 193.553C107.974 193.596 108.135 193.674 108.274 193.784C108.376 193.859 108.478 193.687 108.376 193.612C108.213 193.484 108.025 193.393 107.824 193.344C107.624 193.295 107.415 193.29 107.212 193.328C107.008 193.366 106.816 193.447 106.646 193.565C106.477 193.684 106.335 193.837 106.229 194.014C106.154 194.122 106.326 194.224 106.401 194.116H106.428Z" fill="white"/>
<path id="Vector_56" d="M107.539 194.455C107.631 194.303 107.754 194.173 107.9 194.072C108.046 193.971 108.212 193.903 108.386 193.871C108.56 193.839 108.74 193.844 108.912 193.887C109.084 193.929 109.245 194.007 109.385 194.116C109.492 194.197 109.589 194.025 109.487 193.945C109.324 193.817 109.136 193.727 108.935 193.678C108.734 193.629 108.525 193.624 108.321 193.663C108.118 193.701 107.926 193.783 107.756 193.902C107.587 194.021 107.445 194.174 107.34 194.353C107.265 194.46 107.442 194.557 107.512 194.455H107.539Z" fill="white"/>
<path id="Vector_57" d="M108.693 194.787C108.785 194.636 108.908 194.507 109.053 194.407C109.199 194.306 109.364 194.239 109.538 194.207C109.712 194.176 109.891 194.181 110.063 194.224C110.234 194.267 110.395 194.345 110.534 194.455C110.641 194.53 110.738 194.358 110.636 194.283C110.474 194.159 110.287 194.072 110.089 194.025C109.891 193.979 109.685 193.975 109.485 194.013C109.284 194.052 109.095 194.132 108.928 194.249C108.761 194.365 108.62 194.516 108.516 194.691C108.446 194.793 108.618 194.895 108.693 194.787Z" fill="white"/>
<path id="Vector_58" d="M73.0915 187.386L73.7195 193.064H76.7413L77.6483 187.386H73.0915Z" fill="#FFC3BD"/>
<path id="Vector_59" d="M76.3441 192.34C76.4956 192.149 76.6975 192.004 76.927 191.921C77.1565 191.839 77.4044 191.822 77.643 191.873C78.3729 192.114 79.3229 193.306 79.3229 193.306C79.3229 193.306 83.2679 194.573 84.336 194.637C85.404 194.701 86.3326 195.303 86.7298 197.369H73.8161C73.8161 197.369 73.3062 192.705 73.2257 191.91C73.1452 191.116 74.4118 192.109 74.4118 192.109L76.3441 192.34Z" fill="url(#paint2_linear_81_4904)"/>
<path id="Vector_60" d="M86.3272 196.752H83.9978L73.8 196.644C73.6712 196.644 73.6712 196.44 73.8 196.446H74.487C74.4841 196.437 74.4841 196.428 74.487 196.419C74.6883 195.912 74.6894 195.348 74.4901 194.841C74.2907 194.333 73.9058 193.921 73.4135 193.687C73.4023 193.681 73.3923 193.672 73.3843 193.662C73.3764 193.652 73.3704 193.64 73.367 193.628C73.3635 193.615 73.3625 193.602 73.364 193.589C73.3656 193.576 73.3696 193.564 73.376 193.553C73.3823 193.541 73.3908 193.532 73.401 193.524C73.4112 193.516 73.4228 193.51 73.4353 193.506C73.4477 193.503 73.4608 193.502 73.4736 193.503C73.4865 193.505 73.4989 193.509 73.5101 193.515C74.0353 193.77 74.4455 194.212 74.6592 194.755C74.873 195.298 74.8748 195.902 74.6641 196.446H76.0972L86.295 196.553C86.4775 196.548 86.4775 196.757 86.3272 196.752Z" fill="black"/>
<path id="Vector_61" d="M78.8667 194.116C78.9592 193.965 79.0826 193.835 79.2289 193.735C79.3751 193.635 79.5409 193.567 79.7152 193.536C79.8896 193.504 80.0687 193.51 80.2407 193.553C80.4126 193.596 80.5736 193.674 80.713 193.784C80.815 193.859 80.917 193.687 80.815 193.612C80.6532 193.488 80.4672 193.4 80.2691 193.353C80.0709 193.306 79.8652 193.302 79.6651 193.34C79.4651 193.378 79.2753 193.458 79.1082 193.574C78.941 193.69 78.8002 193.84 78.6949 194.014C78.6198 194.122 78.7916 194.224 78.8667 194.116Z" fill="white"/>
<path id="Vector_62" d="M79.9777 194.455C80.0698 194.303 80.1928 194.173 80.3389 194.072C80.4849 193.971 80.6506 193.903 80.825 193.871C80.9994 193.839 81.1786 193.844 81.3508 193.887C81.523 193.929 81.6843 194.007 81.8241 194.116C81.926 194.197 82.028 194.025 81.9261 193.945C81.7629 193.817 81.5746 193.727 81.3736 193.678C81.1726 193.629 80.9635 193.624 80.7603 193.663C80.5571 193.701 80.3645 193.783 80.1953 193.902C80.0261 194.021 79.8842 194.174 79.7791 194.353C79.704 194.46 79.8811 194.557 79.9509 194.455H79.9777Z" fill="white"/>
<path id="Vector_63" d="M81.1317 194.787C81.2236 194.636 81.3465 194.507 81.4923 194.407C81.6381 194.306 81.8034 194.239 81.9774 194.207C82.1513 194.176 82.33 194.181 82.5016 194.224C82.6731 194.267 82.8337 194.345 82.9727 194.455C83.08 194.53 83.1766 194.358 83.0747 194.283C82.9125 194.159 82.7262 194.072 82.5278 194.025C82.3295 193.979 82.1235 193.975 81.9235 194.013C81.7234 194.052 81.5337 194.132 81.3668 194.249C81.1998 194.365 81.0594 194.516 80.9546 194.691C80.8848 194.793 81.0566 194.895 81.1317 194.787Z" fill="white"/>
<path id="Vector_64" d="M99.1443 187.547H105.816C106.396 178.959 108.027 150.475 106.739 136.38C107.668 116.827 104.678 90.8765 104.678 90.8765H83.5362C83.5362 90.8765 85.0874 108.245 92.038 136.101C91.9897 158.172 97.3785 180.237 99.1443 187.547Z" fill="#263238"/>
<path id="Vector_65" opacity="0.2" d="M90.9002 131.421C94.7217 115.808 91.3671 95.5675 91.3671 95.5675L88.0662 118.69L90.9002 131.421Z" fill="black"/>
<path id="Vector_66" d="M98.35 187.38L98.8384 189.914L106.492 189.882V187.343L98.35 187.38Z" fill="#263238"/>
<path id="Vector_67" d="M72.1415 187.794H78.813C81.1907 178.954 85.9676 150.529 86.7298 136.434C90.5137 116.881 92.3225 90.8765 92.3225 90.8765H71.1807C71.1807 90.8765 69.2109 108.444 72.1039 136.3C71.5403 160.587 71.9858 180.237 72.1415 187.794Z" fill="#263238"/>
<path id="Vector_68" d="M71.5564 187.37L71.5403 189.887H79.2531L79.6611 187.375L71.5564 187.37Z" fill="#263238"/>
<path id="Vector_69" d="M107.442 94.0646C92.768 99.7003 68.8889 95.6426 68.8889 95.6426C69.1734 88.4719 69.4256 74.2701 69.3237 62.4674C69.3237 62.1937 69.3237 61.9307 69.3237 61.6462C69.3237 59.9716 69.2807 58.3507 69.2485 56.8156C69.2485 56.6278 69.2485 56.4399 69.2485 56.2789C69.1519 53.241 69.0499 50.5574 68.9104 48.4105C68.642 44.3904 70.8265 40.6493 74.8144 39.9784C76.022 39.7745 77.3263 39.5974 78.6842 39.4417L79.6664 39.3397C83.5454 38.9599 87.444 38.8183 91.3403 38.9157H91.9038H92.2044H92.6928C94.3728 38.9855 95.9669 39.1089 97.3946 39.2968C100.615 39.7154 103.519 42.2756 103.572 45.5497C103.621 48.55 103.916 54.8834 104.34 62.0273C104.501 64.7109 104.683 67.561 104.877 70.3627C105.649 81.4461 106.616 92.1378 107.442 94.0646Z" fill="url(#paint3_linear_81_4904)"/>
<path id="Vector_70" d="M70.0268 80.9416C70.0039 80.9359 69.9799 80.9359 69.957 80.9416L67.8101 84.9295L67.4022 84.6987L67.3002 84.6343L67.2358 84.5913L67.1177 84.5055L66.8708 84.3337L66.6722 84.1834C66.3985 83.9795 66.1784 83.797 65.9423 83.6038C65.4968 83.2227 65.0728 82.847 64.6595 82.4659C63.8383 81.7091 63.0493 80.9523 62.2657 80.1848C60.7199 78.6337 59.2224 77.0557 57.7679 75.4347C56.3133 73.8138 54.891 72.1553 53.474 70.3788C53.1252 69.9333 52.7709 69.4717 52.4006 68.9779C52.2235 68.7203 52.0517 68.4841 51.8638 68.1889C51.676 67.8937 51.4989 67.6039 51.2896 67.2121L51.1232 66.8578L51.0373 66.6807L50.9192 66.3533L50.8172 66.0098C50.7605 65.8244 50.7228 65.6338 50.7045 65.4408C50.6638 65.0842 50.6638 64.724 50.7045 64.3674L50.7367 64.1044C50.7367 64.0239 50.7689 63.9219 50.7797 63.8897L50.8602 63.6052C50.9214 63.4118 50.9931 63.2219 51.0749 63.0363L51.1983 62.7679L51.2681 62.6338L51.2949 62.5854L51.5257 62.2044C51.7082 61.9145 51.7941 61.8018 51.9122 61.6354C52.3684 61.0075 52.7334 60.562 53.1144 60.1058C54.6119 58.3399 56.0933 56.778 57.5908 55.1947C59.0882 53.6113 60.6018 52.0924 62.1422 50.5949C65.2069 47.5731 68.32 44.6372 71.5672 41.8087L77.7074 48.5607C74.6534 51.4859 71.5028 54.3467 68.3629 57.1806L63.6719 61.4315C62.169 62.7787 60.6555 64.1688 59.2976 65.4999C59.4049 65.6931 59.5176 65.8863 59.6357 66.0796C60.6769 67.7971 61.8578 69.5415 63.0171 71.2805C64.1764 73.0195 65.3894 74.7531 66.6024 76.4545C67.2036 77.3133 67.8101 78.1613 68.4273 78.9825C68.7332 79.3958 69.0446 79.7876 69.3451 80.1687L69.7691 80.7054L69.9355 80.904L70.0268 80.9416Z" fill="url(#paint4_linear_81_4904)"/>
<path id="Vector_71" d="M86.8103 66.4928C86.7926 66.4915 86.7755 66.4866 86.7597 66.4786C86.7439 66.4706 86.7299 66.4595 86.7184 66.4461C86.7069 66.4326 86.6982 66.417 86.6928 66.4001C86.6874 66.3833 86.6854 66.3656 86.6868 66.3479C87.4705 55.2859 84.7331 43.7516 84.7063 43.6389C84.6978 43.604 84.7034 43.5672 84.7221 43.5365C84.7407 43.5058 84.7707 43.4837 84.8056 43.4752C84.8405 43.4667 84.8773 43.4723 84.908 43.4909C84.9387 43.5096 84.9608 43.5396 84.9693 43.5745C84.9961 43.6926 87.7442 55.2591 86.9552 66.3694C86.9539 66.387 86.949 66.4042 86.941 66.42C86.933 66.4358 86.9219 66.4498 86.9084 66.4613C86.895 66.4727 86.8794 66.4814 86.8625 66.4869C86.8457 66.4923 86.8279 66.4943 86.8103 66.4928Z" fill="white"/>
<path id="Vector_72" d="M93.1276 66.2406C93.0929 66.2379 93.0607 66.2218 93.0377 66.1958C93.0147 66.1698 93.0026 66.1358 93.0041 66.1011C93.7878 55.0337 91.0558 43.5048 91.029 43.3921C91.0217 43.3743 91.0183 43.3551 91.019 43.3358C91.0198 43.3166 91.0247 43.2977 91.0333 43.2806C91.042 43.2634 91.0543 43.2483 91.0694 43.2362C91.0844 43.2242 91.1019 43.2156 91.1206 43.2109C91.1392 43.2062 91.1587 43.2057 91.1776 43.2092C91.1966 43.2127 91.2145 43.2202 91.2303 43.2313C91.246 43.2424 91.2592 43.2567 91.2689 43.2734C91.2786 43.29 91.2847 43.3085 91.2866 43.3277C91.3134 43.4404 94.0615 55.0123 93.2725 66.1172C93.2712 66.1348 93.2663 66.152 93.2583 66.1678C93.2503 66.1836 93.2392 66.1976 93.2257 66.2091C93.2123 66.2205 93.1967 66.2292 93.1798 66.2346C93.163 66.2401 93.1452 66.2421 93.1276 66.2406Z" fill="white"/>
<path id="Vector_73" opacity="0.2" d="M104.871 70.4163C99.3557 62.3615 95.262 53.4207 92.768 43.9824L104.34 62.0809C104.49 64.786 104.673 67.6146 104.871 70.4163Z" fill="black"/>
<path id="Vector_74" opacity="0.2" d="M76.6661 77.4261C76.6661 77.4261 77.7074 84.468 77.337 88.5203C77.337 88.5203 88.8982 90.3344 101.066 87.64C101.611 83.9919 101.39 80.2701 100.416 76.7122C93.2671 76.3526 85.2538 76.6854 76.6661 77.4261Z" fill="black"/>
<path id="Vector_75" d="M94.1366 16.5019C93.0076 16.0889 91.8058 15.912 90.6056 15.9822C89.4054 16.0524 88.2324 16.3681 87.1592 16.9098C85.7476 17.6451 84.5238 18.7669 84.556 20.4522C84.6258 24.3865 85.7207 30.9614 85.7207 30.9614L98.994 24.9608C98.994 24.9608 99.9601 21.6706 98.409 19.5935C97.3444 18.1404 95.8498 17.0588 94.1366 16.5019Z" fill="#263238"/>
<path id="Vector_76" d="M84.599 24.5689C84.599 24.5689 84.8888 23.4311 83.5684 21.3056C82.2481 19.1802 83.6973 17.8652 84.7063 18.1657C84.7063 18.1657 84.1696 16.8615 85.0606 16.416C85.9515 15.9705 86.3809 16.4751 86.3809 16.4751C87.4959 15.6707 88.762 15.1001 90.1031 14.7976C91.4442 14.4951 92.8326 14.4668 94.1849 14.7146C97.8079 15.4338 100.481 12.9058 101.828 13.888C103.175 14.8702 100.755 15.7934 100.755 15.7934C100.755 15.7934 102.901 16.9903 102.59 18.1067C102.279 19.2231 100.261 19.309 100.261 19.309C100.261 19.309 102.327 20.683 101.484 21.5954C100.642 22.5079 98.0118 21.4022 98.0118 21.4022C98.0118 21.4022 87.5617 21.3486 84.599 24.5689Z" fill="#263238"/>
<path id="Vector_77" d="M91.5067 35.851C91.5047 35.8652 91.5047 35.8797 91.5067 35.8939L90.6694 38.073C90.5747 38.5182 90.519 38.9708 90.503 39.4256C90.4931 39.7841 90.5093 40.1429 90.5513 40.499C90.9699 41.229 91.0397 42.7855 89.29 42.603C87.0787 42.3776 83.3323 38.9103 83.2893 37.9174C84.6419 35.0137 85.9247 31.3747 86.0696 28.4709L88.297 31.4713L91.5067 35.851Z" fill="#FFC3BD"/>
<g id="Group_2" opacity="0.2">
<path id="Vector_78" d="M91.4852 35.8993L90.6479 38.0784C89.3329 37.2948 88.034 35.7812 87.8676 34.273C87.7496 33.1995 88.3346 32.2441 88.7694 32.2388L91.4852 35.8993Z" fill="black"/>
</g>
<path id="Vector_79" d="M97.5985 31.8202C97.4161 32.2925 97.2175 32.7541 97.0081 33.2103C95.1618 37.2358 89.9663 37.0587 87.0948 33.629C86.8321 33.3178 86.5951 32.9857 86.3863 32.636C84.6419 29.7377 85.3772 27.7303 86.1931 23.0876C86.3751 22.0096 86.8286 20.9957 87.5108 20.1413C88.193 19.287 89.0815 18.6204 90.0925 18.2043C91.1035 17.7882 92.2038 17.6363 93.2897 17.7629C94.3757 17.8895 95.4115 18.2904 96.2997 18.928C99.9494 21.5741 99.4288 27.0916 97.5985 31.8202Z" fill="#FFC3BD"/>
<path id="Vector_80" d="M93.4389 31.38C93.3567 31.495 93.244 31.5845 93.1135 31.6387C92.983 31.6929 92.8399 31.7094 92.7005 31.6865C92.5611 31.6635 92.4309 31.602 92.3247 31.5089C92.2184 31.4158 92.1403 31.2948 92.0993 31.1597C92.0582 31.0245 92.0558 30.8805 92.0923 30.744C92.1289 30.6076 92.2029 30.484 92.306 30.3874C92.4091 30.2908 92.5372 30.225 92.6757 30.1975C92.8143 30.1699 92.9578 30.1817 93.09 30.2314C93.2857 30.3404 93.4314 30.521 93.4964 30.7353C93.5615 30.9495 93.5409 31.1807 93.4389 31.38Z" fill="white"/>
<path id="Vector_81" d="M90.0843 22.3576C91.292 22.1913 90.4708 20.8548 90.7284 20.1034C91.5764 17.672 98.1943 19.3359 98.9565 23.0608C98.9565 23.0608 98.774 20.2215 96.7076 18.4825C94.6412 16.7435 90.197 15.9545 88.1521 17.9457C86.1072 19.937 86.0964 23.4955 86.0964 23.4955C86.0685 23.8842 86.1915 24.2687 86.4399 24.569C86.66 24.7837 87.0464 25.7659 87.6905 26.0235C88.2272 26.2489 88.6566 26.1577 88.8606 25.3633C89.0645 24.569 89.247 22.4704 90.0843 22.3576Z" fill="#263238"/>
<path id="Vector_82" d="M83.4772 25.6584C83.505 26.2445 83.6482 26.8193 83.8988 27.3498C84.1493 27.8804 84.5022 28.3562 84.9371 28.75C86.1125 29.7966 87.3846 28.9164 87.6208 27.4457C87.8462 26.1254 87.508 23.9946 86.0535 23.5115C84.599 23.0285 83.3699 24.2093 83.4611 25.6584" fill="#FFC3BD"/>
<path id="Vector_83" d="M92.9612 25.9216C92.8753 26.2866 92.9988 26.6247 93.2349 26.6784C93.4711 26.732 93.7287 26.4905 93.8146 26.1416C93.9005 25.7928 93.7824 25.4385 93.5462 25.3848C93.3101 25.3312 93.0471 25.5727 92.9612 25.9216Z" fill="#263238"/>
<path id="Vector_84" d="M96.9223 26.8232C96.8364 27.1828 96.9598 27.5209 97.196 27.58C97.4322 27.639 97.6898 27.3868 97.7757 27.0433C97.8615 26.6997 97.7435 26.3455 97.5073 26.2918C97.2711 26.2382 97.0135 26.4797 96.9223 26.8286" fill="#263238"/>
<path id="Vector_85" d="M98.3392 25.739C98.3071 25.7309 98.2774 25.7148 98.2531 25.6923C98.2287 25.6698 98.2103 25.6416 98.1997 25.6102C98.171 25.4811 98.1168 25.3591 98.0403 25.2512C97.9638 25.1434 97.8665 25.0519 97.7542 24.9822C97.5137 24.8717 97.2422 24.8489 96.9867 24.9178C96.9634 24.926 96.9388 24.9293 96.9142 24.9274C96.8896 24.9256 96.8657 24.9186 96.844 24.907C96.8223 24.8954 96.8032 24.8794 96.7881 24.86C96.7729 24.8406 96.7619 24.8182 96.7559 24.7943C96.7485 24.7711 96.7458 24.7466 96.748 24.7223C96.7502 24.698 96.7573 24.6744 96.7688 24.6529C96.7803 24.6313 96.796 24.6123 96.815 24.597C96.834 24.5817 96.8559 24.5703 96.8793 24.5635C97.2357 24.456 97.6197 24.4886 97.9528 24.6548C98.1107 24.746 98.248 24.8689 98.3561 25.0157C98.4642 25.1626 98.5407 25.3303 98.5808 25.5082C98.5881 25.5318 98.5905 25.5566 98.588 25.5812C98.5854 25.6058 98.5779 25.6296 98.5658 25.6512C98.5538 25.6728 98.5375 25.6917 98.5179 25.7068C98.4983 25.7219 98.4759 25.7328 98.4519 25.739C98.4343 25.7472 98.415 25.7514 98.3956 25.7514C98.3761 25.7514 98.3569 25.7472 98.3392 25.739Z" fill="#263238"/>
<path id="Vector_86" d="M92.1937 24.2576C92.1622 24.253 92.1325 24.24 92.1078 24.22C92.067 24.1856 92.0413 24.1365 92.0362 24.0833C92.0312 24.0301 92.0473 23.977 92.081 23.9356C92.3417 23.6381 92.7028 23.4471 93.0954 23.3988C93.2919 23.3887 93.4884 23.4187 93.673 23.487C93.8575 23.5552 94.0263 23.6604 94.1688 23.796C94.2062 23.835 94.2271 23.8869 94.2271 23.9409C94.2271 23.995 94.2062 24.0469 94.1688 24.0859C94.1308 24.1229 94.0797 24.1436 94.0266 24.1436C93.9735 24.1436 93.9225 24.1229 93.8844 24.0859C93.7819 23.987 93.6608 23.9095 93.5281 23.8579C93.3954 23.8063 93.2538 23.7816 93.1115 23.7853C92.826 23.8231 92.5643 23.9645 92.3762 24.1825C92.3546 24.2094 92.3265 24.2304 92.2946 24.2436C92.2627 24.2567 92.228 24.2615 92.1937 24.2576Z" fill="#263238"/>
<path id="Vector_87" d="M95.4516 26.1899C95.5623 27.1472 95.7931 28.0867 96.1386 28.9862C96.6432 30.1348 94.6626 29.7055 94.6626 29.7055L95.4516 26.1899Z" fill="#D4827D"/>
<path id="Vector_88" opacity="0.2" d="M76.2045 50.2192L69.3129 61.6193C69.3129 59.9447 69.27 58.3238 69.2378 56.7887C69.2378 56.6009 69.2378 56.413 69.2378 56.252L76.2045 50.2192Z" fill="black"/>
<path id="Vector_89" d="M109.492 67.2926C108.435 67.7607 107.243 67.8271 106.141 67.4793C105.038 67.1314 104.1 66.3933 103.503 65.4033L103.266 65.0062L102.799 64.2064C102.719 64.0776 102.644 63.9434 102.569 63.8093C102.316 63.3799 102.07 62.9451 101.817 62.5104L100.985 61.0558L100.159 59.6013C99.8796 59.1182 99.622 58.6298 99.3376 58.1468C99.0531 57.6637 98.8008 57.1699 98.5217 56.6815L98.4251 56.5044L96.9008 53.7456C95.8273 51.7812 94.7539 49.8114 93.7448 47.8416C92.7358 45.8718 91.6945 43.859 90.7338 41.8248L94.9578 39.0607C96.4338 40.7567 97.8508 42.4957 99.2517 44.2401L99.7186 44.8251L102.939 43.1398C103.744 44.5568 104.506 45.9952 105.258 47.4336C106.009 48.8721 106.744 50.332 107.464 51.7919C108.183 53.2518 108.902 54.7171 109.611 56.1931C110.319 57.6691 111.001 59.1451 111.677 60.6264L111.865 61.0451C112.12 61.611 112.26 62.2216 112.279 62.842C112.298 63.4624 112.194 64.0803 111.973 64.6605C111.753 65.2407 111.421 65.7718 110.995 66.2235C110.569 66.6751 110.059 67.0384 109.492 67.2926Z" fill="url(#paint5_linear_81_4904)"/>
<path id="Vector_90" d="M100.958 61.0557L100.819 60.7552C100.314 59.8857 99.8206 59.0108 99.3375 58.1306C99.6059 58.6136 99.8743 59.102 100.159 59.5851L100.958 61.0557Z" fill="url(#paint6_linear_81_4904)"/>
<path id="Vector_91" d="M94.9149 40.1342C94.8129 40.95 94.2225 42.2167 93.0363 42.1737C92.2998 42.1376 91.5744 41.9798 90.8894 41.7068C89.9824 41.476 88.2809 40.9017 87.6959 39.7799C86.8747 38.2127 88.1575 35.7545 88.1575 35.7545C86.8264 34.4931 85.2538 32.3248 86.3541 32.8185C87.4544 33.3123 91.7697 36.3288 93.3315 35.9853C94.77 35.6686 95.2745 34.4234 95.8112 34.6756C96.348 34.9279 95.2745 36.0819 94.7056 37.2412C94.917 38.19 94.9876 39.1648 94.9149 40.1342Z" fill="#FFC3BD"/>
<g id="Group_3" opacity="0.2">
<path id="Vector_92" d="M90.5083 41.7282H90.4493C90.342 41.6746 87.7335 40.4508 87.2611 39.1197C86.8425 37.9282 87.7442 36.216 87.9911 35.7866C87.2395 35.166 86.5782 34.4434 86.0267 33.6397C85.8388 33.2533 85.7959 32.9742 85.8978 32.7917C85.9211 32.7477 85.9548 32.71 85.996 32.6819C86.0371 32.6538 86.0845 32.6363 86.134 32.6307C86.6707 32.6307 87.2504 33.0493 88.0287 33.6236C88.9691 34.3577 89.9923 34.9792 91.0773 35.4753C93.4228 36.5059 93.8468 35.8779 94.1259 35.4753L94.2279 35.3197C94.5392 34.8742 95.0598 34.1281 95.94 34.4878C95.9561 34.4942 95.9707 34.5038 95.983 34.516C95.9952 34.5282 96.0049 34.5428 96.0114 34.5588C96.0179 34.5748 96.0211 34.592 96.0209 34.6093C96.0206 34.6266 96.0168 34.6437 96.0098 34.6595C96.0039 34.676 95.9947 34.6912 95.9827 34.704C95.9707 34.7169 95.9562 34.7271 95.9402 34.7341C95.9241 34.7412 95.9067 34.7449 95.8892 34.7449C95.8716 34.745 95.8542 34.7415 95.8381 34.7347C95.2047 34.4824 94.8344 34.9171 94.4479 35.4753L94.346 35.6256C93.9273 36.2429 93.3208 36.7635 90.9699 35.733C89.8671 35.2291 88.8275 34.5968 87.873 33.849C87.1592 33.3123 86.601 32.9151 86.1501 32.9044C86.1501 32.9044 86.1501 32.9044 86.1501 32.942C86.1501 32.9795 86.0911 33.1245 86.2897 33.5324C86.6546 34.2838 88.2541 35.6793 88.2702 35.6793C88.2913 35.7029 88.303 35.7335 88.303 35.7652C88.303 35.7969 88.2913 35.8274 88.2702 35.8511C88.2702 35.8511 87.0786 37.8262 87.508 39.0714C87.9374 40.3166 90.5352 41.5135 90.5567 41.5243C90.5852 41.5364 90.6086 41.5581 90.623 41.5856C90.6374 41.6131 90.6418 41.6447 90.6354 41.6751C90.6291 41.7055 90.6125 41.7327 90.5883 41.7522C90.5642 41.7717 90.534 41.7822 90.503 41.7819L90.5083 41.7282Z" fill="black"/>
</g>
<path id="Vector_93" opacity="0.2" d="M96.8364 41.2075L108.333 58.6995C108.333 58.6995 106.991 52.8384 96.8364 41.2075Z" fill="black"/>
<path id="Vector_94" d="M69.2431 81.0328C69.2431 81.0328 73.8697 82.4551 74.2401 83.3569C74.6104 84.2586 73.0915 84.0278 73.0915 84.0278C73.0915 84.0278 74.7392 84.3713 74.7017 85.01C74.648 85.7721 73.0647 85.5199 73.0647 85.5199C73.0647 85.5199 74.4011 85.8526 74.3206 86.4108C74.2401 86.969 72.4259 86.8241 72.4259 86.8241C72.4259 86.8241 73.3276 87.2159 73.0163 87.5648C72.705 87.9137 69.3451 87.6722 68.2824 86.9154C67.2197 86.1586 67.9067 81.9238 68.218 81.0113C68.5293 80.0989 67.9818 79.1328 69.2914 78.0754L69.2485 81.0436L69.2431 81.0328Z" fill="#FFC3BD"/>
<path id="Vector_95" opacity="0.2" d="M73.0808 84.0976L70.2254 83.3676C70.2073 83.3626 70.1918 83.3509 70.1819 83.3351C70.1719 83.3192 70.1683 83.3002 70.1717 83.2817C70.1787 83.2639 70.1915 83.2489 70.208 83.2392C70.2246 83.2294 70.2439 83.2255 70.2629 83.228L73.1076 83.958C73.1169 83.9599 73.1257 83.9636 73.1335 83.969C73.1413 83.9744 73.1479 83.9814 73.1529 83.9894C73.1579 83.9974 73.1612 84.0064 73.1627 84.0158C73.1641 84.0251 73.1636 84.0347 73.1613 84.0439C73.1574 84.0615 73.1468 84.0769 73.1318 84.0869C73.1168 84.0969 73.0985 84.1008 73.0808 84.0976Z" fill="black"/>
<path id="Vector_96" opacity="0.2" d="M72.968 85.5789L70.1824 85.069C70.1729 85.0685 70.1635 85.0659 70.1551 85.0614C70.1467 85.0569 70.1394 85.0505 70.1338 85.0428C70.1281 85.0351 70.1242 85.0262 70.1225 85.0168C70.1207 85.0075 70.121 84.9978 70.1234 84.9885C70.1215 84.9755 70.1231 84.9622 70.128 84.95C70.1329 84.9378 70.1409 84.9271 70.1512 84.9189C70.1615 84.9108 70.1738 84.9055 70.1868 84.9036C70.1998 84.9017 70.2131 84.9032 70.2253 84.908L73.0163 85.4447C73.0348 85.4447 73.0526 85.4521 73.0657 85.4652C73.0788 85.4783 73.0861 85.496 73.0861 85.5145C73.0861 85.533 73.0788 85.5508 73.0657 85.5639C73.0526 85.5769 73.0348 85.5843 73.0163 85.5843L72.968 85.5789Z" fill="black"/>
<path id="Vector_97" opacity="0.2" d="M72.3186 86.8778L70.2307 86.5558C70.2215 86.5545 70.2127 86.5513 70.2047 86.5466C70.1967 86.5418 70.1897 86.5355 70.1842 86.528C70.1787 86.5205 70.1748 86.5119 70.1726 86.5029C70.1705 86.4938 70.1702 86.4844 70.1717 86.4753C70.1756 86.4562 70.1867 86.4395 70.2027 86.4284C70.2187 86.4174 70.2384 86.4131 70.2576 86.4162L72.3401 86.7383C72.3493 86.7396 72.3581 86.7427 72.3661 86.7475C72.3741 86.7523 72.381 86.7586 72.3865 86.7661C72.392 86.7736 72.396 86.7821 72.3981 86.7912C72.4003 86.8002 72.4006 86.8096 72.3991 86.8188C72.3986 86.8283 72.396 86.8376 72.3915 86.8461C72.3869 86.8545 72.3806 86.8618 72.3729 86.8674C72.3652 86.8731 72.3563 86.8769 72.3469 86.8787C72.3375 86.8805 72.3278 86.8802 72.3186 86.8778Z" fill="black"/>
</g>
</g>
<defs>
<linearGradient id="paint0_linear_81_4904" x1="85.9309" y1="48.269" x2="80.01" y2="31.9884" gradientUnits="userSpaceOnUse">
<stop stop-color="#001D39"/>
<stop offset="1" stop-color="#2B5279"/>
</linearGradient>
<linearGradient id="paint1_linear_81_4904" x1="109.048" y1="199.966" x2="106.709" y2="191.722" gradientUnits="userSpaceOnUse">
<stop stop-color="#001D39"/>
<stop offset="1" stop-color="#2B5279"/>
</linearGradient>
<linearGradient id="paint2_linear_81_4904" x1="81.4955" y1="199.966" x2="79.1527" y2="191.724" gradientUnits="userSpaceOnUse">
<stop stop-color="#001D39"/>
<stop offset="1" stop-color="#2B5279"/>
</linearGradient>
<linearGradient id="paint3_linear_81_4904" x1="92.5025" y1="123.255" x2="47.5742" y2="78.5328" gradientUnits="userSpaceOnUse">
<stop stop-color="#001D39"/>
<stop offset="1" stop-color="#2B5279"/>
</linearGradient>
<linearGradient id="paint4_linear_81_4904" x1="67.2319" y1="104.35" x2="33.987" y2="73.0486" gradientUnits="userSpaceOnUse">
<stop stop-color="#001D39"/>
<stop offset="1" stop-color="#2B5279"/>
</linearGradient>
<linearGradient id="paint5_linear_81_4904" x1="103.931" y1="80.5976" x2="81.976" y2="55.7884" gradientUnits="userSpaceOnUse">
<stop stop-color="#001D39"/>
<stop offset="1" stop-color="#2B5279"/>
</linearGradient>
<linearGradient id="paint6_linear_81_4904" x1="100.33" y1="62.3732" x2="98.1086" y2="60.5242" gradientUnits="userSpaceOnUse">
<stop stop-color="#001D39"/>
<stop offset="1" stop-color="#2B5279"/>
</linearGradient>
</defs>
</svg>
