<svg width="141" height="21" viewBox="0 0 141 21" fill="none" xmlns="http://www.w3.org/2000/svg">
<g clip-path="url(#clip0_1_3757)">
<path d="M47.9659 7.53069C47.7656 7.12308 47.4796 6.76899 47.1078 6.46774C46.7353 6.16648 46.2902 5.90984 45.7709 5.69711C45.2516 5.48438 44.6672 5.3135 44.0176 5.18381C43.6753 5.11313 43.3632 5.03078 43.0799 4.93608C42.7973 4.84138 42.5545 4.73228 42.3542 4.60808C42.1532 4.48456 42.0003 4.33976 41.8932 4.17369C41.7876 4.00831 41.7341 3.82029 41.7341 3.60756C41.7341 3.33582 41.8144 3.10525 41.9728 2.91585C42.132 2.72783 42.3535 2.58303 42.6368 2.48215C42.9208 2.38128 43.2569 2.33188 43.6458 2.33188C43.9998 2.33188 44.3448 2.38746 44.6816 2.50068C45.0177 2.61254 45.3298 2.78135 45.6193 3.00438C45.9081 3.22877 46.177 3.50668 46.4246 3.83676L48.1065 2.20766C47.8239 1.74652 47.472 1.35676 47.0536 1.03904C46.6338 0.719942 46.1413 0.474955 45.5747 0.303399C45.0088 0.13253 44.3476 0.0467529 43.5923 0.0467529C42.9784 0.0467529 42.3974 0.135275 41.8487 0.31232C41.2999 0.488679 40.8163 0.743274 40.3965 1.07335C39.9781 1.40342 39.6502 1.79662 39.4149 2.2509C39.1783 2.70586 39.061 3.19857 39.061 3.7304C39.061 4.26222 39.1399 4.71581 39.2997 5.12892C39.4588 5.54271 39.7037 5.9119 40.0336 6.23579C40.365 6.56106 40.7772 6.83281 41.2732 7.05102C41.7684 7.26924 42.3467 7.45521 43.0079 7.60824C43.3145 7.65559 43.5978 7.71734 43.8571 7.7942C44.1171 7.87174 44.353 7.96026 44.5657 8.05977C44.7783 8.16064 44.9615 8.2725 45.1144 8.3967C45.2674 8.52022 45.3861 8.66158 45.4684 8.82147C45.5507 8.98067 45.5919 9.15497 45.5919 9.34369C45.5919 9.60376 45.5095 9.82816 45.3442 10.0169C45.1782 10.2049 44.9512 10.3504 44.6624 10.4506C44.3736 10.5514 44.0457 10.6008 43.6794 10.6008C43.0072 10.6008 42.3844 10.4561 41.8123 10.1672C41.2395 9.87757 40.6647 9.33203 40.0858 8.52846L38.4224 10.4231C38.812 10.9433 39.251 11.3859 39.7414 11.7516C40.2305 12.1174 40.7909 12.3953 41.4234 12.5833C42.0544 12.7727 42.7534 12.8674 43.521 12.8674C44.4649 12.8674 45.2914 12.711 45.9993 12.3981C46.7072 12.0858 47.2615 11.6343 47.6627 11.0435C48.064 10.4533 48.2643 9.73895 48.2643 8.90039C48.2643 8.39327 48.1648 7.93556 47.9632 7.52863L47.9659 7.53069Z" fill="white"/>
<path d="M56.2782 10.1425C56.036 10.3195 55.7795 10.4519 55.5078 10.5405C55.2362 10.629 54.9474 10.6736 54.6401 10.6736C54.1682 10.6736 53.7436 10.5521 53.3663 10.3099C52.9884 10.0683 52.6907 9.74994 52.4719 9.35467C52.2537 8.95872 52.144 8.50719 52.144 7.99939C52.144 7.49158 52.2496 7.01946 52.4629 6.61802C52.6756 6.21727 52.9664 5.90092 53.3389 5.67035C53.71 5.44047 54.1387 5.32518 54.6223 5.32518C54.9282 5.32518 55.2266 5.3787 55.5154 5.48438C55.8049 5.59075 56.0731 5.73554 56.3207 5.91877C56.569 6.10199 56.7755 6.3058 56.9408 6.5295L58.3216 4.86542C57.932 4.32193 57.3894 3.89715 56.6932 3.58972C55.9969 3.28298 55.23 3.12927 54.3918 3.12927C53.4953 3.12927 52.692 3.342 51.9835 3.76678C51.2756 4.19155 50.7179 4.77277 50.3111 5.51115C49.9037 6.24883 49.7 7.07848 49.7 7.99939C49.7 8.9203 49.9037 9.76504 50.3111 10.4972C50.7179 11.2294 51.2756 11.8072 51.9835 12.2327C52.692 12.6575 53.4946 12.8702 54.3918 12.8702C55.182 12.8702 55.9318 12.7137 56.6403 12.4008C57.3489 12.0886 57.9032 11.6782 58.3051 11.1697L56.9415 9.50565C56.7412 9.75337 56.5196 9.9661 56.2775 10.1431L56.2782 10.1425Z" fill="white"/>
<path d="M66.431 3.32347V4.55181C66.2519 4.30683 66.042 4.08655 65.8026 3.89029C65.5139 3.65492 65.1771 3.46826 64.7936 3.33239C64.4102 3.19721 63.9883 3.12927 63.528 3.12927C62.7138 3.12927 61.9881 3.33857 61.3502 3.75785C60.7129 4.17645 60.2088 4.74944 59.837 5.47546C59.4645 6.20148 59.2793 7.0373 59.2793 7.98154C59.2793 8.92579 59.4624 9.76435 59.8281 10.4965C60.1943 11.2287 60.6896 11.8066 61.3152 12.232C61.9408 12.6568 62.6425 12.8695 63.4224 12.8695C63.858 12.8695 64.2716 12.8016 64.6612 12.6657C65.0508 12.5298 65.4014 12.3466 65.7141 12.1167C65.9776 11.9232 66.2039 11.7064 66.396 11.4662V12.6918H68.9271V3.32278H66.431V3.32347ZM66.1737 9.40683C65.9796 9.81444 65.7052 10.1301 65.3513 10.3545C64.9973 10.5789 64.5837 10.6907 64.1125 10.6907C63.6412 10.6907 63.2475 10.5789 62.8997 10.3545C62.5513 10.1301 62.2776 9.81444 62.0759 9.40683C61.8756 8.9999 61.7748 8.52435 61.7748 7.98154C61.7748 7.43874 61.8756 6.98378 62.0759 6.58234C62.2769 6.1809 62.5513 5.86524 62.8997 5.63467C63.2482 5.40478 63.6522 5.2895 64.1125 5.2895C64.5727 5.2895 64.9973 5.40478 65.3513 5.63467C65.7052 5.86524 65.9796 6.1809 66.1737 6.58234C66.3692 6.98378 66.4659 7.45041 66.4659 7.98154C66.4659 8.51268 66.3685 8.9999 66.1737 9.40683Z" fill="white"/>
<path d="M71.4589 0.960759V12.6924H73.9729V0.102295L71.4589 0.960759Z" fill="white"/>
<path d="M84.5762 5.92695C84.3636 5.36014 84.0597 4.86742 83.6639 4.44814C83.2681 4.02955 82.7997 3.70428 82.2564 3.47371C81.7138 3.24314 81.1239 3.12854 80.486 3.12854C79.8014 3.12854 79.1669 3.24863 78.5831 3.49155C77.9987 3.7331 77.4939 4.07553 77.0693 4.51883C76.6447 4.96144 76.3134 5.48365 76.0781 6.08615C75.8414 6.68934 75.7241 7.34949 75.7241 8.07071C75.7241 9.00329 75.9368 9.8295 76.3614 10.5493C76.7867 11.2699 77.3766 11.8367 78.1325 12.2498C78.887 12.6636 79.7726 12.8701 80.7871 12.8701C81.2124 12.8701 81.6425 12.8166 82.0801 12.7109C82.5157 12.6046 82.941 12.4474 83.3539 12.2416C83.7668 12.035 84.1448 11.7777 84.4871 11.4709L83.2832 9.78833C82.8936 10.1074 82.5273 10.3318 82.185 10.4608C81.8428 10.5919 81.4655 10.6564 81.0519 10.6564C80.4503 10.6564 79.9283 10.5411 79.4852 10.3105C79.0427 10.0807 78.7004 9.7595 78.4583 9.34571C78.3204 9.11102 78.2217 8.85094 78.1627 8.56616H84.8403L84.8575 7.78661C84.8815 7.11412 84.7868 6.49377 84.5749 5.92695H84.5762ZM78.3801 6.45878C78.5681 6.069 78.8438 5.77392 79.2026 5.57286C79.5627 5.37248 80.0024 5.27161 80.5216 5.27161C80.8756 5.27161 81.1945 5.34297 81.4778 5.48434C81.7618 5.62638 81.9944 5.82745 82.1775 6.08615C82.36 6.34623 82.4629 6.63582 82.4869 6.95423V7.0256H78.1839C78.2313 6.81973 78.2964 6.63102 78.3801 6.45878Z" fill="white"/>
<path d="M98.4028 3.90874C98.0962 3.12919 97.6558 2.44983 97.0837 1.87203C96.511 1.29286 95.8442 0.844065 95.0828 0.525658C94.3221 0.206565 93.4805 0.0473633 92.5606 0.0473633C91.6407 0.0473633 90.8135 0.206565 90.0466 0.525658C89.279 0.844065 88.6089 1.29286 88.0375 1.87203C87.4647 2.44983 87.025 3.12575 86.7177 3.89913C86.4111 4.67319 86.2574 5.52616 86.2574 6.45874C86.2574 7.39131 86.4104 8.23193 86.7177 9.01765C87.0243 9.80269 87.4647 10.4821 88.0375 11.0544C88.6089 11.6274 89.279 12.0727 90.0466 12.3918C90.8135 12.7109 91.651 12.8701 92.5606 12.8701C93.4702 12.8701 94.3221 12.7109 95.0828 12.3918C95.8435 12.0727 96.511 11.6246 97.0837 11.0454C97.6551 10.4676 98.0955 9.78829 98.4028 9.00874C98.7094 8.22919 98.8631 7.37965 98.8631 6.45874C98.8631 5.53783 98.7101 4.6876 98.4028 3.90874ZM95.8977 8.01715C95.7146 8.48927 95.4642 8.90238 95.1452 9.25647C94.8263 9.61056 94.4463 9.8823 94.0038 10.071C93.5614 10.2604 93.0805 10.3551 92.5613 10.3551C92.042 10.3551 91.5632 10.2604 91.127 10.071C90.69 9.88299 90.3059 9.61056 89.976 9.25647C89.646 8.90238 89.395 8.48927 89.2235 8.01715C89.0527 7.54502 88.9669 7.02556 88.9669 6.45874C88.9669 5.89192 89.052 5.37244 89.2235 4.90032C89.3943 4.4282 89.6453 4.01784 89.976 3.66924C90.3059 3.32064 90.6907 3.0489 91.127 2.85401C91.5625 2.65981 92.0407 2.56237 92.5613 2.56237C93.0819 2.56237 93.5614 2.65981 94.0038 2.85401C94.4463 3.04959 94.8263 3.32133 95.1452 3.66924C95.4642 4.01784 95.7146 4.42752 95.8977 4.90032C96.0809 5.37244 96.1721 5.89192 96.1721 6.45874C96.1721 7.02556 96.0809 7.54502 95.8977 8.01715Z" fill="white"/>
<path d="M106.874 10.1425C106.632 10.3195 106.376 10.4519 106.104 10.5405C105.832 10.629 105.544 10.6736 105.236 10.6736C104.764 10.6736 104.34 10.5521 103.961 10.3099C103.584 10.0683 103.285 9.74994 103.067 9.35467C102.849 8.95872 102.741 8.50719 102.741 7.99939C102.741 7.49158 102.846 7.01946 103.059 6.61802C103.272 6.21727 103.564 5.90092 103.935 5.67035C104.307 5.44047 104.735 5.32518 105.218 5.32518C105.525 5.32518 105.823 5.3787 106.112 5.48438C106.401 5.59075 106.67 5.73554 106.917 5.91877C107.165 6.10199 107.372 6.3058 107.538 6.5295L108.918 4.86542C108.529 4.32193 107.986 3.89715 107.29 3.58972C106.593 3.28298 105.826 3.12927 104.989 3.12927C104.091 3.12927 103.289 3.342 102.58 3.76678C101.872 4.19155 101.315 4.77277 100.907 5.51115C100.5 6.24883 100.297 7.07848 100.297 7.99939C100.297 8.9203 100.5 9.76504 100.907 10.4972C101.315 11.2294 101.873 11.8072 102.58 12.2327C103.289 12.6575 104.091 12.8702 104.989 12.8702C105.779 12.8702 106.529 12.7137 107.237 12.4008C107.945 12.0886 108.5 11.6782 108.901 11.1697L107.538 9.50565C107.337 9.75337 107.116 9.9661 106.874 10.1431L106.874 10.1425Z" fill="white"/>
<path d="M118.744 5.92695C118.531 5.36014 118.227 4.86742 117.832 4.44814C117.436 4.02955 116.967 3.70428 116.425 3.47371C115.881 3.24314 115.291 3.12854 114.654 3.12854C113.969 3.12854 113.334 3.24863 112.751 3.49155C112.166 3.7331 111.662 4.07553 111.237 4.51883C110.812 4.96144 110.482 5.48365 110.246 6.08615C110.009 6.68934 109.892 7.34949 109.892 8.07071C109.892 9.00329 110.104 9.8295 110.53 10.5493C110.954 11.2699 111.544 11.8367 112.3 12.2498C113.055 12.6636 113.94 12.8701 114.956 12.8701C115.381 12.8701 115.811 12.8166 116.248 12.7109C116.684 12.6046 117.11 12.4474 117.522 12.2416C117.936 12.035 118.313 11.7777 118.655 11.4709L117.452 9.78833C117.062 10.1074 116.696 10.3318 116.353 10.4608C116.011 10.5919 115.634 10.6564 115.22 10.6564C114.619 10.6564 114.097 10.5411 113.653 10.3105C113.211 10.0807 112.869 9.7595 112.627 9.34571C112.489 9.11102 112.39 8.85094 112.331 8.56616H119.009L119.026 7.78661C119.05 7.11412 118.955 6.49377 118.742 5.92695H118.744ZM112.548 6.45878C112.736 6.069 113.011 5.77392 113.372 5.57286C113.731 5.37248 114.17 5.27161 114.691 5.27161C115.044 5.27161 115.363 5.34297 115.647 5.48434C115.929 5.62638 116.163 5.82745 116.346 6.08615C116.529 6.34623 116.632 6.63582 116.655 6.95423V7.0256H112.353C112.4 6.81973 112.465 6.63102 112.548 6.45878H112.548Z" fill="white"/>
<path d="M127.401 3.32347V4.55181C127.222 4.30683 127.013 4.08655 126.772 3.89029C126.483 3.65492 126.147 3.46826 125.764 3.33239C125.38 3.19721 124.959 3.12927 124.498 3.12927C123.683 3.12927 122.958 3.33857 122.32 3.75785C121.683 4.17645 121.178 4.74944 120.807 5.47546C120.435 6.20148 120.249 7.0373 120.249 7.98154C120.249 8.92579 120.432 9.76435 120.798 10.4965C121.164 11.2287 121.66 11.8066 122.285 12.232C122.91 12.6568 123.613 12.8695 124.392 12.8695C124.829 12.8695 125.241 12.8016 125.631 12.6657C126.02 12.5298 126.371 12.3466 126.684 12.1167C126.946 11.9232 127.174 11.707 127.366 11.4682V12.6925H129.897V3.32347H127.401ZM127.144 9.40683C126.949 9.81444 126.675 10.1301 126.32 10.3545C125.966 10.5789 125.553 10.6907 125.081 10.6907C124.609 10.6907 124.216 10.5789 123.869 10.3545C123.52 10.1301 123.246 9.81444 123.046 9.40683C122.845 8.9999 122.745 8.52435 122.745 7.98154C122.745 7.43874 122.845 6.98378 123.046 6.58234C123.246 6.1809 123.521 5.86524 123.869 5.63467C124.217 5.40478 124.622 5.2895 125.081 5.2895C125.541 5.2895 125.966 5.40478 126.32 5.63467C126.674 5.86524 126.949 6.1809 127.144 6.58234C127.338 6.98378 127.436 7.45041 127.436 7.98154C127.436 8.51268 127.338 8.9999 127.144 9.40683Z" fill="white"/>
<path d="M140.652 4.83858C140.409 4.26558 140.05 3.83737 139.572 3.55465C139.094 3.27055 138.501 3.12988 137.793 3.12988C137.273 3.12988 136.777 3.23556 136.306 3.44829C135.834 3.66102 135.43 3.94169 135.093 4.2896C135.011 4.37538 134.934 4.46321 134.865 4.55311L134.82 3.32477H132.411V12.6938H134.925V7.06193C134.925 6.8142 134.976 6.58364 135.076 6.37159C135.176 6.15887 135.312 5.97015 135.483 5.80477C135.654 5.63939 135.86 5.51244 136.103 5.42392C136.345 5.3354 136.608 5.29148 136.891 5.29148C137.245 5.26746 137.542 5.32442 137.785 5.45892C138.027 5.59479 138.207 5.80477 138.325 6.0875C138.443 6.37159 138.502 6.72568 138.502 7.15045V12.6938H141.016V6.95557C141.016 6.11769 140.894 5.41226 140.653 4.83995L140.652 4.83858Z" fill="white"/>
<path d="M40.3492 16.7837C40.935 16.7837 41.3912 16.9456 41.7184 17.2689C42.0449 17.5921 42.2088 18.0546 42.2088 18.6557C42.2088 19.2568 42.0456 19.7193 41.7184 20.0426C41.3912 20.3658 40.935 20.5277 40.3492 20.5277H39.0281V16.7851H40.3492V16.7837ZM40.3492 20.0103C40.7457 20.0103 41.0496 19.8923 41.2588 19.6562C41.4687 19.4202 41.5736 19.086 41.5736 18.655C41.5736 18.2241 41.4687 17.8906 41.2588 17.6538C41.0489 17.4178 40.7457 17.299 40.3492 17.299H39.6351V20.0096H40.3492V20.0103Z" fill="white"/>
<path d="M45.8929 20.527V16.7843H48.6024V17.3058H46.4993V18.3832H48.1435V18.8937H46.4993V20.0054H48.682V20.527H45.8929Z" fill="white"/>
<path d="M53.5571 16.7274C53.8932 16.7274 54.1841 16.7906 54.4303 16.9175C54.6759 17.0445 54.8837 17.2304 55.0538 17.4761L54.6457 17.8673C54.5023 17.6484 54.3405 17.4898 54.1607 17.3938C53.981 17.2977 53.7684 17.249 53.5228 17.249C53.3417 17.249 53.1922 17.2737 53.0749 17.3224C52.9576 17.3718 52.8719 17.437 52.817 17.518C52.7621 17.5996 52.7347 17.6909 52.7347 17.7931C52.7347 17.9105 52.7751 18.0127 52.8568 18.0992C52.9377 18.1864 53.09 18.2543 53.3129 18.3037L54.0723 18.4739C54.4351 18.5535 54.6917 18.6743 54.8433 18.8369C54.9942 18.9995 55.0703 19.2054 55.0703 19.4552C55.0703 19.6858 55.0079 19.8861 54.883 20.0563C54.7582 20.2265 54.5853 20.3569 54.3645 20.4475C54.1436 20.538 53.8836 20.5833 53.5852 20.5833C53.3205 20.5833 53.0824 20.549 52.8712 20.4811C52.6592 20.4131 52.4747 20.3205 52.3156 20.2032C52.1571 20.0858 52.0268 19.952 51.9246 19.8003L52.3444 19.3804C52.4239 19.5128 52.5241 19.6308 52.6448 19.7345C52.7655 19.8388 52.9062 19.9191 53.0673 19.9753C53.2279 20.0323 53.4062 20.0604 53.6031 20.0604C53.7766 20.0604 53.9268 20.0398 54.0537 19.998C54.18 19.9561 54.2767 19.895 54.3425 19.8134C54.4084 19.7324 54.442 19.635 54.442 19.5211C54.442 19.4071 54.4049 19.3152 54.3315 19.2322C54.2581 19.1491 54.121 19.0846 53.9207 19.0393L53.0989 18.852C52.8719 18.8026 52.6853 18.7326 52.5378 18.642C52.3903 18.5514 52.2806 18.4409 52.2092 18.3106C52.1372 18.1802 52.1015 18.0333 52.1015 17.8714C52.1015 17.6593 52.1592 17.4679 52.2744 17.2956C52.3896 17.1234 52.557 16.9855 52.7758 16.8818C52.9946 16.7782 53.256 16.7261 53.5585 16.7261L53.5571 16.7274Z" fill="white"/>
<path d="M59.3108 16.7837V20.5263H58.7045V16.7837H59.3108Z" fill="white"/>
<path d="M64.7244 20.5832C64.3732 20.5832 64.0686 20.5057 63.8114 20.3506C63.5542 20.1955 63.3539 19.9753 63.2105 19.6898C63.0671 19.4043 62.9951 19.0592 62.9951 18.655C62.9951 18.2508 63.0699 17.9159 63.2187 17.6284C63.3683 17.3409 63.5795 17.1192 63.8539 16.9621C64.1276 16.8049 64.4425 16.7267 64.7978 16.7267C65.1867 16.7267 65.5016 16.7987 65.7416 16.9422C65.9817 17.0856 66.1731 17.3086 66.3171 17.6112L65.756 17.8775C65.684 17.6696 65.566 17.5138 65.4021 17.4095C65.2375 17.3059 65.0385 17.2537 64.804 17.2537C64.5694 17.2537 64.365 17.3086 64.1887 17.4184C64.0131 17.5282 63.8759 17.6881 63.7778 17.8974C63.6797 18.1074 63.6303 18.3592 63.6303 18.6543C63.6303 18.9494 63.6735 19.2074 63.7606 19.4167C63.8477 19.6267 63.9788 19.7865 64.1544 19.8957C64.33 20.0054 64.546 20.0603 64.8033 20.0603C64.9432 20.0603 65.0735 20.0425 65.1943 20.0061C65.315 19.9704 65.4213 19.9176 65.5119 19.8476C65.6024 19.7776 65.673 19.6891 65.7245 19.5814C65.7753 19.4736 65.8013 19.346 65.8013 19.1985V19.0907H64.7127V18.5973H66.3398V20.5256H65.8864L65.8521 19.7715L65.9653 19.8284C65.8747 20.0665 65.7245 20.2518 65.5146 20.3842C65.3047 20.5167 65.0413 20.5826 64.7237 20.5826L64.7244 20.5832Z" fill="white"/>
<path d="M73.1587 16.7836V20.5263H72.4384L70.9931 18.1671L70.6303 17.5035H70.6248L70.6474 18.1101V20.5256H70.0918V16.783H70.8059L72.2457 19.1367L72.614 19.8113H72.6195L72.5969 19.1992V16.7836H73.158H73.1587Z" fill="white"/>
<path d="M77.0474 20.527V16.7843H79.7568V17.3058H77.6537V18.3832H79.298V18.8937H77.6537V20.0054H79.8364V20.527H77.0474Z" fill="white"/>
<path d="M84.7566 16.7837C85.3424 16.7837 85.7985 16.9456 86.1257 17.2689C86.4522 17.5921 86.6162 18.0546 86.6162 18.6557C86.6162 19.2568 86.4529 19.7193 86.1257 20.0426C85.7985 20.3658 85.3424 20.5277 84.7566 20.5277H83.4354V16.7851H84.7566V16.7837ZM84.7566 20.0103C85.153 20.0103 85.4569 19.8923 85.6661 19.6562C85.876 19.4202 85.981 19.086 85.981 18.655C85.981 18.2241 85.876 17.8906 85.6661 17.6538C85.4562 17.4178 85.153 17.299 84.7566 17.299H84.0425V20.0096H84.7566V20.0103Z" fill="white"/>
<path d="M97.5736 16.7837V17.3052H96.2923V20.5263H95.6859V17.3052H94.4045V16.7837H97.5729H97.5736Z" fill="white"/>
<path d="M102.505 16.7274C102.868 16.7274 103.181 16.805 103.446 16.96C103.711 17.1151 103.914 17.3361 104.058 17.6236C104.201 17.9111 104.273 18.2549 104.273 18.6557C104.273 19.0565 104.201 19.4003 104.058 19.6878C103.914 19.9753 103.71 20.1963 103.446 20.3514C103.181 20.5064 102.868 20.584 102.505 20.584C102.142 20.584 101.834 20.5064 101.569 20.3514C101.304 20.1963 101.101 19.9753 100.957 19.6878C100.814 19.4003 100.742 19.0565 100.742 18.6557C100.742 18.2549 100.814 17.9111 100.957 17.6236C101.101 17.3361 101.305 17.1151 101.569 16.96C101.834 16.805 102.145 16.7274 102.505 16.7274ZM102.505 17.2551C102.27 17.2551 102.069 17.31 101.901 17.4198C101.733 17.5296 101.603 17.6881 101.513 17.896C101.422 18.104 101.377 18.3572 101.377 18.6557C101.377 18.9542 101.422 19.2026 101.513 19.4126C101.603 19.6226 101.733 19.7825 101.901 19.8916C102.069 20.0014 102.27 20.0563 102.505 20.0563C102.739 20.0563 102.946 20.0014 103.114 19.8916C103.282 19.7818 103.412 19.6219 103.502 19.4126C103.593 19.2026 103.638 18.9501 103.638 18.6557C103.638 18.3613 103.593 18.104 103.502 17.896C103.412 17.6881 103.282 17.5296 103.114 17.4198C102.946 17.31 102.743 17.2551 102.505 17.2551Z" fill="white"/>
<path d="M113.859 16.7274C114.195 16.7274 114.486 16.7906 114.732 16.9175C114.978 17.0445 115.186 17.2304 115.356 17.4761L114.948 17.8673C114.804 17.6484 114.643 17.4898 114.463 17.3938C114.283 17.2977 114.071 17.249 113.825 17.249C113.644 17.249 113.494 17.2737 113.377 17.3224C113.26 17.3718 113.174 17.437 113.119 17.518C113.064 17.5996 113.037 17.6909 113.037 17.7931C113.037 17.9105 113.077 18.0127 113.159 18.0992C113.24 18.1864 113.392 18.2543 113.615 18.3037L114.374 18.4739C114.737 18.5535 114.994 18.6743 115.145 18.8369C115.296 18.9995 115.372 19.2054 115.372 19.4552C115.372 19.6858 115.31 19.8861 115.185 20.0563C115.06 20.2265 114.887 20.3569 114.667 20.4475C114.446 20.538 114.186 20.5833 113.887 20.5833C113.623 20.5833 113.385 20.549 113.173 20.4811C112.961 20.4131 112.777 20.3205 112.618 20.2032C112.459 20.0858 112.329 19.952 112.227 19.8003L112.646 19.3804C112.726 19.5128 112.826 19.6308 112.947 19.7345C113.068 19.8388 113.208 19.9191 113.369 19.9753C113.53 20.0323 113.708 20.0604 113.905 20.0604C114.079 20.0604 114.229 20.0398 114.356 19.998C114.482 19.9561 114.579 19.895 114.645 19.8134C114.71 19.7324 114.744 19.635 114.744 19.5211C114.744 19.4071 114.707 19.3152 114.634 19.2322C114.56 19.1491 114.423 19.0846 114.223 19.0393L113.401 18.852C113.174 18.8026 112.987 18.7326 112.84 18.642C112.692 18.5514 112.583 18.4409 112.511 18.3106C112.439 18.1802 112.404 18.0333 112.404 17.8714C112.404 17.6593 112.461 17.4679 112.577 17.2956C112.692 17.1234 112.859 16.9855 113.078 16.8818C113.297 16.7782 113.558 16.7261 113.861 16.7261L113.859 16.7274Z" fill="white"/>
<path d="M122.107 19.534C122.032 19.7612 121.918 19.9526 121.767 20.1098C121.616 20.2669 121.438 20.3849 121.234 20.4638C121.029 20.5434 120.805 20.5832 120.56 20.5832C120.201 20.5832 119.889 20.5057 119.624 20.3506C119.359 20.1955 119.155 19.9746 119.012 19.687C118.869 19.3995 118.797 19.0557 118.797 18.655C118.797 18.2542 118.869 17.9104 119.012 17.6229C119.155 17.3354 119.36 17.1144 119.624 16.9593C119.889 16.8042 120.198 16.7267 120.553 16.7267C120.799 16.7267 121.021 16.761 121.219 16.8289C121.418 16.8969 121.587 16.9991 121.727 17.135C121.867 17.2709 121.975 17.441 122.05 17.6455L121.477 17.9008C121.402 17.6778 121.292 17.5145 121.149 17.4102C121.005 17.3065 120.818 17.2544 120.588 17.2544C120.357 17.2544 120.155 17.3093 119.981 17.4191C119.807 17.5289 119.673 17.6874 119.576 17.8953C119.48 18.1032 119.431 18.3565 119.431 18.655C119.431 18.9535 119.476 19.2019 119.567 19.4119C119.657 19.6219 119.788 19.7817 119.958 19.8909C120.128 20.0006 120.332 20.0555 120.57 20.0555C120.808 20.0555 121 19.9958 121.168 19.8771C121.336 19.7577 121.456 19.5793 121.528 19.3412L122.106 19.534H122.107Z" fill="white"/>
<path d="M128.773 20.527H128.132L127.775 19.5457H126.205L125.848 20.527H125.224L126.636 16.7843H127.361L128.773 20.527ZM126.375 19.0523H127.605L126.992 17.3058L126.374 19.0523H126.375Z" fill="white"/>
<path d="M132.826 20.0048H134.889V20.5263H132.219V16.7837H132.826V20.0048Z" fill="white"/>
<path d="M138.398 20.527V16.7843H141.015V17.3058H139.005V18.3832H140.649V18.8937H139.005V20.0054H141.015V20.527H138.398Z" fill="white"/>
<path d="M20.4102 20.5833C25.0138 20.5833 28.7458 16.8498 28.7458 12.2444C28.7458 7.63888 25.0138 3.9054 20.4102 3.9054C15.8066 3.9054 12.0746 7.63888 12.0746 12.2444C12.0746 16.8498 15.8066 20.5833 20.4102 20.5833Z" fill="white"/>
<path d="M23.2507 0.10983C23.0346 0.781641 23.9963 0.546951 27.4459 3.19645C29.5133 4.78506 30.5958 6.58776 30.4016 8.66153C29.9167 13.8391 22.0461 17.111 12.5883 16.3067C2.9851 15.4901 0.517755 11.3769 0.0506267 11.9039C-0.671673 12.912 6.39356 19.2451 17.488 19.1394C26.974 19.0495 34.647 14.4134 34.1908 9.20707C33.9274 6.1973 32.3291 4.52566 28.8123 2.20761C27.3986 1.27572 23.4633 -0.450128 23.2507 0.109143V0.10983Z" fill="#EE4345"/>
</g>
<defs>
<clipPath id="clip0_1_3757">
<rect width="141" height="20.5839" fill="white"/>
</clipPath>
</defs>
</svg>
