<svg width="24" height="24" viewBox="0 0 24 24" fill="none" xmlns="http://www.w3.org/2000/svg">
<mask id="mask0_872_461" style="mask-type:alpha" maskUnits="userSpaceOnUse" x="0" y="0" width="24" height="24">
<rect width="24" height="24" fill="#D9D9D9"/>
</mask>
<g mask="url(#mask0_872_461)">
<path d="M12 15.999L13.4 14.599L11.825 12.999H16V10.999H11.825L13.4 9.39902L12 7.99902L8 11.999L12 15.999ZM5 20.999C4.45 20.999 3.97917 20.8032 3.5875 20.4115C3.19583 20.0199 3 19.549 3 18.999V4.99902C3 4.44902 3.19583 3.97819 3.5875 3.58652C3.97917 3.19486 4.45 2.99902 5 2.99902H9.2C9.41667 2.39902 9.77917 1.91569 10.2875 1.54902C10.7958 1.18236 11.3667 0.999023 12 0.999023C12.6333 0.999023 13.2042 1.18236 13.7125 1.54902C14.2208 1.91569 14.5833 2.39902 14.8 2.99902H19C19.55 2.99902 20.0208 3.19486 20.4125 3.58652C20.8042 3.97819 21 4.44902 21 4.99902V18.999C21 19.549 20.8042 20.0199 20.4125 20.4115C20.0208 20.8032 19.55 20.999 19 20.999H5ZM12 4.24902C12.2167 4.24902 12.3958 4.17819 12.5375 4.03652C12.6792 3.89486 12.75 3.71569 12.75 3.49902C12.75 3.28236 12.6792 3.10319 12.5375 2.96152C12.3958 2.81986 12.2167 2.74902 12 2.74902C11.7833 2.74902 11.6042 2.81986 11.4625 2.96152C11.3208 3.10319 11.25 3.28236 11.25 3.49902C11.25 3.71569 11.3208 3.89486 11.4625 4.03652C11.6042 4.17819 11.7833 4.24902 12 4.24902Z" fill="#FFAB00"/>
</g>
</svg>
