<svg width="24" height="24" viewBox="0 0 24 24" fill="none" xmlns="http://www.w3.org/2000/svg">
<mask id="mask0_99_7102" style="mask-type:alpha" maskUnits="userSpaceOnUse" x="0" y="0" width="24" height="24" fill="#000000">
<rect width="24" height="24" fill="#D9D9D9"/>
</mask>
<g mask="url(#mask0_99_7102)">
<path d="M7 21L5.6 19.6L7.175 17.95C5.40833 17.75 3.9375 16.9875 2.7625 15.6625C1.5875 14.3375 1 12.7833 1 11C1 9.05 1.67917 7.39583 3.0375 6.0375C4.39583 4.67917 6.05 4 8 4H11V6H8C6.61667 6 5.4375 6.4875 4.4625 7.4625C3.4875 8.4375 3 9.61667 3 11C3 12.2 3.38333 13.2583 4.15 14.175C4.91667 15.0917 5.89167 15.6667 7.075 15.9L5.6 14.425L7 13L11 17L7 21ZM13 20V13H22V20H13ZM13 11V4H22V11H13ZM15 9H20V6H15V9Z" fill="#7239ea"/>
</g>
</svg>