<svg width="52" height="56" viewBox="0 0 52 56" fill="none" xmlns="http://www.w3.org/2000/svg">
<path d="M42.2828 6.916C42.0588 6.916 41.8348 6.86 41.6388 6.748C36.2628 3.976 31.6148 2.8 26.0428 2.8C20.4988 2.8 15.2348 4.116 10.4468 6.748C9.77479 7.112 8.93479 6.86 8.54279 6.188C8.36816 5.86053 8.329 5.47761 8.43372 5.12157C8.53843 4.76552 8.77868 4.46478 9.10279 4.284C14.3108 1.456 20.0228 0 26.0428 0C32.0068 0 37.2148 1.316 42.9268 4.256C43.6268 4.62 43.8788 5.46 43.5148 6.132C43.4041 6.36541 43.2297 6.56283 43.0118 6.70152C42.7938 6.84022 42.5411 6.91456 42.2828 6.916ZM2.21479 21.616C1.95669 21.6184 1.70297 21.5493 1.48177 21.4163C1.26057 21.2833 1.08053 21.0916 0.961633 20.8625C0.842735 20.6334 0.789622 20.3758 0.808184 20.1184C0.826745 19.8609 0.916257 19.6137 1.06679 19.404C3.83879 15.484 7.36679 12.404 11.5668 10.248C20.3588 5.712 31.6148 5.684 40.4348 10.22C44.6348 12.376 48.1628 15.428 50.9348 19.32C51.0422 19.4705 51.1188 19.6407 51.16 19.821C51.2013 20.0012 51.2065 20.1878 51.1753 20.37C51.144 20.5522 51.077 20.7265 50.978 20.8827C50.8791 21.0389 50.7502 21.1739 50.5988 21.28C49.9548 21.728 49.0868 21.588 48.6388 20.944C46.1867 17.4731 42.9297 14.6484 39.1468 12.712C31.1108 8.596 20.8348 8.596 12.8268 12.74C9.01879 14.7 5.82679 17.5 3.30679 21.028C3.08279 21.42 2.66279 21.616 2.21479 21.616ZM19.7148 55.412C19.5312 55.4142 19.3491 55.378 19.1803 55.3057C19.0116 55.2334 18.8598 55.1265 18.7348 54.992C16.2988 52.556 14.9828 50.988 13.1068 47.6C11.1748 44.156 10.1668 39.956 10.1668 35.448C10.1668 27.132 17.2788 20.356 26.0148 20.356C34.7508 20.356 41.8628 27.132 41.8628 35.448C41.8628 36.232 41.2468 36.848 40.4628 36.848C39.6788 36.848 39.0628 36.232 39.0628 35.448C39.0628 28.672 33.2108 23.156 26.0148 23.156C18.8188 23.156 12.9668 28.672 12.9668 35.448C12.9668 39.48 13.8628 43.204 15.5708 46.228C17.3628 49.448 18.5948 50.82 20.7508 53.004C21.2828 53.564 21.2828 54.432 20.7508 54.992C20.4428 55.272 20.0788 55.412 19.7148 55.412ZM39.7908 50.232C36.4588 50.232 33.5188 49.392 31.1108 47.74C26.9388 44.912 24.4468 40.32 24.4468 35.448C24.4468 34.664 25.0628 34.048 25.8468 34.048C26.6308 34.048 27.2468 34.664 27.2468 35.448C27.2468 39.396 29.2628 43.12 32.6788 45.416C34.6668 46.76 36.9908 47.404 39.7908 47.404C40.4628 47.404 41.5828 47.32 42.7028 47.124C43.4588 46.984 44.1868 47.488 44.3268 48.272C44.4668 49.028 43.9628 49.756 43.1788 49.896C41.5828 50.204 40.1828 50.232 39.7908 50.232ZM34.1628 56C34.0508 56 33.9108 55.972 33.7988 55.944C29.3468 54.712 26.4348 53.06 23.3828 50.064C21.4488 48.1543 19.9152 45.878 18.8719 43.3683C17.8286 40.8586 17.2965 38.1659 17.3068 35.448C17.3068 30.912 21.1708 27.216 25.9308 27.216C30.6908 27.216 34.5548 30.912 34.5548 35.448C34.5548 38.444 37.1588 40.88 40.3788 40.88C43.5988 40.88 46.2028 38.444 46.2028 35.448C46.2028 24.892 37.1028 16.324 25.9028 16.324C17.9508 16.324 10.6708 20.748 7.39479 27.608C6.30279 29.876 5.74279 32.536 5.74279 35.448C5.74279 37.632 5.93879 41.076 7.61879 45.556C7.89879 46.284 7.53479 47.096 6.80679 47.348C6.07879 47.628 5.26679 47.236 5.01479 46.536C3.66558 42.9948 2.97293 39.2375 2.97079 35.448C2.97079 32.088 3.61479 29.036 4.87479 26.376C8.59879 18.564 16.8588 13.496 25.9028 13.496C38.6428 13.496 49.0028 23.324 49.0028 35.42C49.0028 39.956 45.1388 43.652 40.3788 43.652C35.6188 43.652 31.7548 39.956 31.7548 35.42C31.7548 32.424 29.1508 29.988 25.9308 29.988C22.7108 29.988 20.1068 32.424 20.1068 35.42C20.1068 40.208 21.9548 44.688 25.3428 48.048C28.0028 50.68 30.5508 52.136 34.4988 53.228C35.2548 53.424 35.6748 54.208 35.4788 54.936C35.3388 55.58 34.7508 56 34.1628 56Z" fill="#2B5279"/>
</svg>
