<svg width="95" height="32" viewBox="0 0 95 32" fill="none" xmlns="http://www.w3.org/2000/svg">
<path d="M39.5596 12V4.72727H42.017C42.5875 4.72727 43.0539 4.83026 43.4161 5.03622C43.7807 5.23982 44.0506 5.51562 44.2258 5.86364C44.401 6.21165 44.4886 6.59991 44.4886 7.02841C44.4886 7.45691 44.401 7.84635 44.2258 8.19673C44.0529 8.54711 43.7854 8.82647 43.4232 9.0348C43.061 9.24077 42.597 9.34375 42.0312 9.34375H40.2698V8.5625H42.0028C42.3934 8.5625 42.7071 8.49503 42.9438 8.36009C43.1806 8.22514 43.3522 8.04285 43.4587 7.81321C43.5676 7.5812 43.6221 7.3196 43.6221 7.02841C43.6221 6.73722 43.5676 6.4768 43.4587 6.24716C43.3522 6.01752 43.1794 5.83759 42.9403 5.70739C42.7011 5.57481 42.3839 5.50852 41.9886 5.50852H40.4403V12H39.5596ZM47.9509 12.1136C47.4585 12.1136 47.0264 11.9964 46.6547 11.7621C46.2854 11.5277 45.9966 11.1998 45.7883 10.7784C45.5823 10.357 45.4793 9.86458 45.4793 9.30114C45.4793 8.73295 45.5823 8.23698 45.7883 7.81321C45.9966 7.38944 46.2854 7.06037 46.6547 6.82599C47.0264 6.59162 47.4585 6.47443 47.9509 6.47443C48.4433 6.47443 48.8742 6.59162 49.2435 6.82599C49.6152 7.06037 49.904 7.38944 50.11 7.81321C50.3183 8.23698 50.4225 8.73295 50.4225 9.30114C50.4225 9.86458 50.3183 10.357 50.11 10.7784C49.904 11.1998 49.6152 11.5277 49.2435 11.7621C48.8742 11.9964 48.4433 12.1136 47.9509 12.1136ZM47.9509 11.3608C48.325 11.3608 48.6327 11.2649 48.8742 11.0732C49.1157 10.8814 49.2944 10.6293 49.4104 10.3168C49.5264 10.0043 49.5844 9.66572 49.5844 9.30114C49.5844 8.93655 49.5264 8.59683 49.4104 8.28196C49.2944 7.96709 49.1157 7.71259 48.8742 7.51847C48.6327 7.32434 48.325 7.22727 47.9509 7.22727C47.5769 7.22727 47.2691 7.32434 47.0276 7.51847C46.7861 7.71259 46.6074 7.96709 46.4914 8.28196C46.3754 8.59683 46.3174 8.93655 46.3174 9.30114C46.3174 9.66572 46.3754 10.0043 46.4914 10.3168C46.6074 10.6293 46.7861 10.8814 47.0276 11.0732C47.2691 11.2649 47.5769 11.3608 47.9509 11.3608ZM52.752 12L51.0901 6.54545H51.9708L53.1498 10.7216H53.2066L54.3714 6.54545H55.2663L56.4168 10.7074H56.4736L57.6526 6.54545H58.5333L56.8714 12H56.0475L54.8543 7.80966H54.7691L53.5759 12H52.752ZM61.7426 12.1136C61.2171 12.1136 60.7637 11.9976 60.3826 11.7656C60.0038 11.5312 59.7114 11.2045 59.5054 10.7855C59.3018 10.3641 59.2 9.87405 59.2 9.31534C59.2 8.75663 59.3018 8.2642 59.5054 7.83807C59.7114 7.40956 59.9978 7.07576 60.3648 6.83665C60.7341 6.59517 61.165 6.47443 61.6574 6.47443C61.9415 6.47443 62.222 6.52178 62.499 6.61648C62.776 6.71117 63.0281 6.86506 63.2554 7.07812C63.4827 7.28883 63.6638 7.56818 63.7987 7.91619C63.9337 8.2642 64.0012 8.69271 64.0012 9.2017V9.55682H59.7966V8.83239H63.1489C63.1489 8.52462 63.0873 8.25 62.9642 8.00852C62.8435 7.76705 62.6707 7.57647 62.4458 7.43679C62.2232 7.29711 61.9604 7.22727 61.6574 7.22727C61.3236 7.22727 61.0348 7.31013 60.7909 7.47585C60.5495 7.6392 60.3636 7.85227 60.2334 8.11506C60.1032 8.37784 60.0381 8.65956 60.0381 8.96023V9.44318C60.0381 9.85511 60.1091 10.2043 60.2512 10.4908C60.3956 10.7749 60.5956 10.9915 60.8513 11.1406C61.107 11.2874 61.4041 11.3608 61.7426 11.3608C61.9628 11.3608 62.1617 11.33 62.3392 11.2685C62.5192 11.2045 62.6742 11.1098 62.8044 10.9844C62.9346 10.8565 63.0353 10.6979 63.1063 10.5085L63.9159 10.7358C63.8307 11.0104 63.6875 11.2519 63.4862 11.4602C63.285 11.6662 63.0364 11.8272 62.7405 11.9432C62.4446 12.0568 62.112 12.1136 61.7426 12.1136ZM65.276 12V6.54545H66.0857V7.36932H66.1425C66.2419 7.09943 66.4219 6.88045 66.6823 6.71236C66.9427 6.54427 67.2362 6.46023 67.5629 6.46023C67.6245 6.46023 67.7014 6.46141 67.7938 6.46378C67.8861 6.46615 67.9559 6.4697 68.0033 6.47443V7.3267C67.9749 7.3196 67.9098 7.30895 67.808 7.29474C67.7085 7.27817 67.6032 7.26989 67.4919 7.26989C67.2268 7.26989 66.99 7.32552 66.7817 7.43679C66.5757 7.54569 66.4124 7.69721 66.2916 7.89134C66.1733 8.0831 66.1141 8.30208 66.1141 8.5483V12H65.276ZM71.1176 12.1136C70.5921 12.1136 70.1387 11.9976 69.7576 11.7656C69.3788 11.5312 69.0864 11.2045 68.8804 10.7855C68.6768 10.3641 68.575 9.87405 68.575 9.31534C68.575 8.75663 68.6768 8.2642 68.8804 7.83807C69.0864 7.40956 69.3728 7.07576 69.7398 6.83665C70.1091 6.59517 70.54 6.47443 71.0324 6.47443C71.3165 6.47443 71.597 6.52178 71.874 6.61648C72.151 6.71117 72.4031 6.86506 72.6304 7.07812C72.8577 7.28883 73.0388 7.56818 73.1737 7.91619C73.3087 8.2642 73.3762 8.69271 73.3762 9.2017V9.55682H69.1716V8.83239H72.5239C72.5239 8.52462 72.4623 8.25 72.3392 8.00852C72.2185 7.76705 72.0457 7.57647 71.8208 7.43679C71.5982 7.29711 71.3354 7.22727 71.0324 7.22727C70.6986 7.22727 70.4098 7.31013 70.1659 7.47585C69.9245 7.6392 69.7386 7.85227 69.6084 8.11506C69.4782 8.37784 69.4131 8.65956 69.4131 8.96023V9.44318C69.4131 9.85511 69.4841 10.2043 69.6262 10.4908C69.7706 10.7749 69.9706 10.9915 70.2263 11.1406C70.482 11.2874 70.7791 11.3608 71.1176 11.3608C71.3378 11.3608 71.5367 11.33 71.7142 11.2685C71.8942 11.2045 72.0492 11.1098 72.1794 10.9844C72.3096 10.8565 72.4103 10.6979 72.4813 10.5085L73.2909 10.7358C73.2057 11.0104 73.0625 11.2519 72.8612 11.4602C72.66 11.6662 72.4114 11.8272 72.1155 11.9432C71.8196 12.0568 71.487 12.1136 71.1176 12.1136ZM76.7107 12.1136C76.2561 12.1136 75.8549 11.9988 75.5068 11.7692C75.1588 11.5372 74.8866 11.2105 74.6901 10.7891C74.4936 10.3653 74.3953 9.86458 74.3953 9.28693C74.3953 8.71402 74.4936 8.21686 74.6901 7.79545C74.8866 7.37405 75.16 7.04853 75.5104 6.81889C75.8608 6.58925 76.2656 6.47443 76.7249 6.47443C77.08 6.47443 77.3605 6.53362 77.5665 6.65199C77.7748 6.76799 77.9335 6.90057 78.0424 7.04972C78.1536 7.1965 78.24 7.31723 78.3016 7.41193H78.3726V4.72727H79.2107V12H78.401V11.1619H78.3016C78.24 11.2614 78.1524 11.3868 78.0388 11.5384C77.9252 11.6875 77.763 11.8213 77.5523 11.9396C77.3416 12.0556 77.0611 12.1136 76.7107 12.1136ZM76.8243 11.3608C77.1605 11.3608 77.4446 11.2732 77.6766 11.098C77.9086 10.9205 78.085 10.6754 78.2057 10.3629C78.3264 10.0481 78.3868 9.68466 78.3868 9.27273C78.3868 8.86553 78.3276 8.50923 78.2093 8.20384C78.0909 7.89607 77.9157 7.65696 77.6837 7.48651C77.4517 7.31368 77.1652 7.22727 76.8243 7.22727C76.4692 7.22727 76.1733 7.31842 75.9365 7.50071C75.7022 7.68063 75.5258 7.92566 75.4074 8.2358C75.2914 8.54356 75.2334 8.8892 75.2334 9.27273C75.2334 9.66098 75.2926 10.0137 75.411 10.331C75.5317 10.6458 75.7093 10.8968 75.9436 11.0838C76.1804 11.2685 76.4739 11.3608 76.8243 11.3608ZM83.7881 12V4.72727H84.6262V7.41193H84.6972C84.7587 7.31723 84.844 7.1965 84.9529 7.04972C85.0641 6.90057 85.2228 6.76799 85.4287 6.65199C85.637 6.53362 85.9188 6.47443 86.2739 6.47443C86.7332 6.47443 87.138 6.58925 87.4884 6.81889C87.8388 7.04853 88.1122 7.37405 88.3087 7.79545C88.5052 8.21686 88.6034 8.71402 88.6034 9.28693C88.6034 9.86458 88.5052 10.3653 88.3087 10.7891C88.1122 11.2105 87.8399 11.5372 87.4919 11.7692C87.1439 11.9988 86.7426 12.1136 86.2881 12.1136C85.9377 12.1136 85.6572 12.0556 85.4465 11.9396C85.2358 11.8213 85.0736 11.6875 84.96 11.5384C84.8463 11.3868 84.7587 11.2614 84.6972 11.1619H84.5978V12H83.7881ZM84.612 9.27273C84.612 9.68466 84.6723 10.0481 84.7931 10.3629C84.9138 10.6754 85.0902 10.9205 85.3222 11.098C85.5542 11.2732 85.8383 11.3608 86.1745 11.3608C86.5248 11.3608 86.8172 11.2685 87.0516 11.0838C87.2883 10.8968 87.4659 10.6458 87.5843 10.331C87.705 10.0137 87.7654 9.66098 87.7654 9.27273C87.7654 8.8892 87.7062 8.54356 87.5878 8.2358C87.4718 7.92566 87.2954 7.68063 87.0587 7.50071C86.8243 7.31842 86.5296 7.22727 86.1745 7.22727C85.8335 7.22727 85.5471 7.31368 85.3151 7.48651C85.0831 7.65696 84.9079 7.89607 84.7895 8.20384C84.6711 8.50923 84.612 8.86553 84.612 9.27273ZM90.2299 14.0455C90.0878 14.0455 89.9612 14.0336 89.8499 14.0099C89.7386 13.9886 89.6617 13.9673 89.6191 13.946L89.8321 13.2074C90.0357 13.2595 90.2156 13.2784 90.3719 13.2642C90.5281 13.25 90.6666 13.1802 90.7874 13.0547C90.9105 12.9316 91.0229 12.7315 91.1247 12.4545L91.281 12.0284L89.2639 6.54545H90.173L91.6787 10.892H91.7355L93.2412 6.54545H94.1503L91.835 12.7955C91.7308 13.0772 91.6018 13.3104 91.4479 13.495C91.294 13.6821 91.1153 13.8205 90.9117 13.9105C90.7104 14.0005 90.4832 14.0455 90.2299 14.0455Z" fill="#949494"/>
<g clip-path="url(#clip0_129_11280)">
<path d="M32.1771 23.0513C32.0427 22.7779 31.8509 22.5404 31.6015 22.3383C31.3516 22.1362 31.053 21.964 30.7046 21.8213C30.3563 21.6786 29.9642 21.564 29.5285 21.477C29.2988 21.4296 29.0895 21.3743 28.8994 21.3108C28.7098 21.2473 28.547 21.1741 28.4126 21.0908C28.2778 21.0079 28.1751 20.9108 28.1034 20.7994C28.0325 20.6884 27.9966 20.5623 27.9966 20.4196C27.9966 20.2373 28.0504 20.0826 28.1567 19.9556C28.2635 19.8294 28.4121 19.7323 28.6022 19.6646C28.7927 19.597 29.0182 19.5638 29.2791 19.5638C29.5165 19.5638 29.748 19.6011 29.9739 19.6771C30.1994 19.7521 30.4087 19.8653 30.6029 20.0149C30.7966 20.1655 30.977 20.3519 31.1431 20.5733L32.2714 19.4805C32.0819 19.1711 31.8458 18.9097 31.5651 18.6965C31.2835 18.4825 30.9531 18.3181 30.573 18.2031C30.1934 18.0884 29.7498 18.0309 29.2432 18.0309C28.8313 18.0309 28.4416 18.0903 28.0735 18.209C27.7053 18.3273 27.3809 18.4981 27.0993 18.7196C26.8186 18.941 26.5987 19.2048 26.4408 19.5095C26.2821 19.8147 26.2034 20.1452 26.2034 20.502C26.2034 20.8588 26.2563 21.163 26.3635 21.4402C26.4703 21.7177 26.6346 21.9654 26.8559 22.1827C27.0781 22.4009 27.3547 22.5832 27.6874 22.7296C28.0196 22.876 28.4075 23.0007 28.8511 23.1034C29.0568 23.1351 29.2468 23.1766 29.4208 23.2281C29.5952 23.2801 29.7535 23.3395 29.8961 23.4063C30.0388 23.4739 30.1616 23.549 30.2642 23.6323C30.3669 23.7152 30.4465 23.81 30.5017 23.9172C30.5569 24.024 30.5845 24.141 30.5845 24.2676C30.5845 24.442 30.5293 24.5926 30.4184 24.7192C30.307 24.8453 30.1547 24.9429 29.961 25.0101C29.7673 25.0778 29.5473 25.1109 29.3016 25.1109C28.8507 25.1109 28.4328 25.0138 28.0491 24.82C27.6648 24.6257 27.2792 24.2597 26.8909 23.7207L25.775 24.9917C26.0364 25.3406 26.3309 25.6375 26.6599 25.8829C26.988 26.1283 27.3639 26.3147 27.7882 26.4408C28.2115 26.5679 28.6804 26.6314 29.1953 26.6314C29.8285 26.6314 30.383 26.5265 30.8578 26.3165C31.3327 26.1071 31.7045 25.8042 31.9737 25.4078C32.2429 25.0119 32.3773 24.5327 32.3773 23.9702C32.3773 23.63 32.3106 23.3229 32.1753 23.05L32.1771 23.0513Z" fill="#EE4345"/>
<path d="M37.7532 24.8033C37.5908 24.9221 37.4187 25.0109 37.2365 25.0703C37.0543 25.1297 36.8605 25.1596 36.6544 25.1596C36.3378 25.1596 36.053 25.0781 35.7999 24.9156C35.5463 24.7536 35.3466 24.54 35.1998 24.2748C35.0535 24.0092 34.9799 23.7063 34.9799 23.3657C34.9799 23.025 35.0508 22.7083 35.1939 22.439C35.3365 22.1702 35.5316 21.9579 35.7815 21.8033C36.0304 21.6491 36.318 21.5717 36.6424 21.5717C36.8477 21.5717 37.0478 21.6076 37.2415 21.6785C37.4357 21.7499 37.6157 21.847 37.7818 21.9699C37.9483 22.0928 38.0869 22.2295 38.1977 22.3796L39.124 21.2633C38.8627 20.8987 38.4987 20.6138 38.0316 20.4075C37.5646 20.2017 37.0501 20.0986 36.4878 20.0986C35.8864 20.0986 35.3476 20.2413 34.8722 20.5263C34.3973 20.8112 34.0232 21.2011 33.7504 21.6965C33.477 22.1913 33.3404 22.7479 33.3404 23.3657C33.3404 23.9834 33.477 24.5501 33.7504 25.0413C34.0232 25.5325 34.3973 25.9201 34.8722 26.2055C35.3476 26.4904 35.8859 26.6332 36.4878 26.6332C37.0179 26.6332 37.5209 26.5282 37.9962 26.3183C38.4715 26.1088 38.8433 25.8335 39.113 25.4924L38.1982 24.3761C38.0638 24.5423 37.9152 24.685 37.7528 24.8038L37.7532 24.8033Z" fill="#EE4345"/>
<path d="M44.564 20.2295V21.0535C44.4439 20.8892 44.3031 20.7414 44.1425 20.6098C43.9488 20.4519 43.7228 20.3267 43.4656 20.2355C43.2084 20.1448 42.9254 20.0992 42.6166 20.0992C42.0704 20.0992 41.5836 20.2396 41.1556 20.5209C40.7282 20.8017 40.3899 21.1861 40.1405 21.6731C39.8907 22.1602 39.7664 22.7209 39.7664 23.3543C39.7664 23.9877 39.8893 24.5503 40.1346 25.0414C40.3803 25.5326 40.7125 25.9202 41.1322 26.2056C41.5518 26.4906 42.0226 26.6333 42.5458 26.6333C42.838 26.6333 43.1154 26.5877 43.3768 26.4966C43.6382 26.4054 43.8733 26.2825 44.0831 26.1283C44.2598 25.9985 44.4117 25.853 44.5405 25.6919V26.5141H46.2385V20.2291H44.564V20.2295ZM44.3914 24.3104C44.2612 24.5839 44.0772 24.7956 43.8397 24.9462C43.6023 25.0967 43.3248 25.1717 43.0087 25.1717C42.6926 25.1717 42.4284 25.0967 42.1951 24.9462C41.9614 24.7956 41.7778 24.5839 41.6425 24.3104C41.5081 24.0374 41.4405 23.7184 41.4405 23.3543C41.4405 22.9902 41.5081 22.685 41.6425 22.4157C41.7773 22.1464 41.9614 21.9346 42.1951 21.7799C42.4289 21.6257 42.6999 21.5484 43.0087 21.5484C43.3174 21.5484 43.6023 21.6257 43.8397 21.7799C44.0772 21.9346 44.2612 22.1464 44.3914 22.4157C44.5226 22.685 44.5875 22.998 44.5875 23.3543C44.5875 23.7106 44.5221 24.0374 44.3914 24.3104Z" fill="#EE4345"/>
<path d="M47.9369 18.6445V26.5145H49.6234V18.0686L47.9369 18.6445Z" fill="#EE4345"/>
<path d="M56.7364 21.9759C56.5938 21.5957 56.3899 21.2651 56.1244 20.9839C55.8589 20.7031 55.5447 20.4849 55.1802 20.3302C54.8162 20.1755 54.4205 20.0986 53.9925 20.0986C53.5333 20.0986 53.1077 20.1792 52.7161 20.3422C52.324 20.5042 51.9854 20.7339 51.7005 21.0313C51.4157 21.3282 51.1934 21.6785 51.0356 22.0827C50.8768 22.4873 50.7982 22.9302 50.7982 23.414C50.7982 24.0396 50.9408 24.5938 51.2256 25.0767C51.5109 25.5601 51.9067 25.9403 52.4138 26.2175C52.9199 26.4951 53.514 26.6336 54.1946 26.6336C54.4799 26.6336 54.7684 26.5977 55.0619 26.5268C55.3541 26.4555 55.6394 26.35 55.9165 26.2119C56.1935 26.0734 56.447 25.9008 56.6766 25.695L55.8691 24.5662C55.6077 24.7803 55.362 24.9308 55.1324 25.0174C54.9027 25.1053 54.6496 25.1486 54.3722 25.1486C53.9686 25.1486 53.6184 25.0712 53.3212 24.9165C53.0244 24.7623 52.7948 24.5469 52.6323 24.2693C52.5398 24.1119 52.4736 23.9374 52.434 23.7464H56.9136L56.9251 23.2234C56.9412 22.7723 56.8777 22.3561 56.7355 21.9759H56.7364ZM52.5799 22.3327C52.706 22.0712 52.8909 21.8732 53.1316 21.7384C53.3732 21.6039 53.6681 21.5363 54.0165 21.5363C54.2539 21.5363 54.4679 21.5841 54.6579 21.679C54.8484 21.7743 55.0044 21.9091 55.1273 22.0827C55.2497 22.2572 55.3187 22.4514 55.3348 22.665V22.7129H52.4483C52.48 22.5748 52.5237 22.4482 52.5799 22.3327Z" fill="#EE4345"/>
<path d="M66.0118 20.6217C65.8061 20.0988 65.5107 19.643 65.1269 19.2554C64.7427 18.8669 64.2954 18.5658 63.7846 18.3522C63.2743 18.1382 62.7097 18.0314 62.0927 18.0314C61.4756 18.0314 60.9206 18.1382 60.4062 18.3522C59.8913 18.5658 59.4417 18.8669 59.0584 19.2554C58.6742 19.643 58.3792 20.0965 58.1731 20.6153C57.9674 21.1345 57.8643 21.7067 57.8643 22.3323C57.8643 22.9579 57.9669 23.5218 58.1731 24.0489C58.3787 24.5756 58.6742 25.0313 59.0584 25.4152C59.4417 25.7996 59.8913 26.0984 60.4062 26.3124C60.9206 26.5265 61.4825 26.6333 62.0927 26.6333C62.7028 26.6333 63.2743 26.5265 63.7846 26.3124C64.2949 26.0984 64.7427 25.7978 65.1269 25.4092C65.5102 25.0216 65.8056 24.5659 66.0118 24.0429C66.2175 23.52 66.3205 22.9501 66.3205 22.3323C66.3205 21.7145 66.2179 21.1442 66.0118 20.6217ZM64.3313 23.3778C64.2084 23.6945 64.0405 23.9716 63.8265 24.2091C63.6125 24.4467 63.3576 24.629 63.0608 24.7556C62.764 24.8826 62.4414 24.9461 62.0931 24.9461C61.7448 24.9461 61.4236 24.8826 61.1309 24.7556C60.8378 24.6294 60.5801 24.4467 60.3588 24.2091C60.1375 23.9716 59.969 23.6945 59.854 23.3778C59.7394 23.061 59.6819 22.7126 59.6819 22.3323C59.6819 21.9521 59.739 21.6036 59.854 21.2869C59.9686 20.9702 60.137 20.6949 60.3588 20.461C60.5801 20.2272 60.8383 20.0449 61.1309 19.9142C61.4231 19.7839 61.7439 19.7185 62.0931 19.7185C62.4424 19.7185 62.764 19.7839 63.0608 19.9142C63.3576 20.0454 63.6125 20.2277 63.8265 20.461C64.0405 20.6949 64.2084 20.9697 64.3313 21.2869C64.4542 21.6036 64.5154 21.9521 64.5154 22.3323C64.5154 22.7126 64.4542 23.061 64.3313 23.3778Z" fill="#002F5D"/>
<path d="M71.6947 24.8033C71.5323 24.9221 71.3602 25.0109 71.1779 25.0703C70.9957 25.1297 70.802 25.1596 70.5959 25.1596C70.2793 25.1596 69.9944 25.0781 69.7404 24.9156C69.4873 24.7536 69.2872 24.54 69.1409 24.2748C68.9945 24.0092 68.9218 23.7063 68.9218 23.3657C68.9218 23.025 68.9927 22.7083 69.1353 22.439C69.278 22.1702 69.474 21.9579 69.7229 21.8033C69.9728 21.6491 70.2595 21.5717 70.5839 21.5717C70.7896 21.5717 70.9897 21.6076 71.1835 21.6785C71.3772 21.7499 71.5576 21.847 71.7237 21.9699C71.8898 22.0928 72.0283 22.2295 72.1397 22.3796L73.066 21.2633C72.8046 20.8987 72.4402 20.6138 71.9736 20.4075C71.506 20.2017 70.9916 20.0986 70.4297 20.0986C69.8274 20.0986 69.2895 20.2413 68.8141 20.5263C68.3393 20.8112 67.9652 21.2011 67.6918 21.6965C67.4189 22.1913 67.2823 22.7479 67.2823 23.3657C67.2823 23.9834 67.4189 24.5501 67.6918 25.0413C67.9652 25.5325 68.3397 25.9201 68.8141 26.2055C69.2895 26.4904 69.8274 26.6332 70.4297 26.6332C70.9598 26.6332 71.4628 26.5282 71.9381 26.3183C72.413 26.1088 72.7853 25.8335 73.054 25.4924L72.1397 24.3761C72.0048 24.5423 71.8567 24.685 71.6942 24.8038L71.6947 24.8033Z" fill="#002F5D"/>
<path d="M79.6572 21.9759C79.5146 21.5957 79.3107 21.2651 79.0457 20.9839C78.7802 20.7031 78.4654 20.4849 78.1014 20.3302C77.737 20.1755 77.3412 20.0986 76.9133 20.0986C76.4541 20.0986 76.0284 20.1792 75.6368 20.3422C75.2448 20.5042 74.9066 20.7339 74.6213 21.0313C74.3364 21.3282 74.1151 21.6785 73.9564 22.0827C73.7976 22.4873 73.7189 22.9302 73.7189 23.414C73.7189 24.0396 73.8616 24.5938 74.1469 25.0767C74.4317 25.5601 74.8274 25.9403 75.3345 26.2175C75.8407 26.4951 76.4347 26.6336 77.1162 26.6336C77.4011 26.6336 77.69 26.5977 77.9832 26.5268C78.2754 26.4555 78.5611 26.35 78.8377 26.2119C79.1151 26.0734 79.3682 25.9008 79.5978 25.695L78.7903 24.5662C78.5289 24.7803 78.2832 24.9308 78.0536 25.0174C77.8239 25.1053 77.5709 25.1486 77.2934 25.1486C76.8898 25.1486 76.5397 25.0712 76.2424 24.9165C75.9456 24.7623 75.716 24.5469 75.5536 24.2693C75.4611 24.1119 75.3948 23.9374 75.3552 23.7464H79.8348L79.8468 23.2234C79.8624 22.7723 79.7989 22.3561 79.6563 21.9759H79.6572ZM75.5006 22.3327C75.6267 22.0712 75.8117 21.8732 76.0533 21.7384C76.2944 21.6039 76.5889 21.5363 76.9382 21.5363C77.1751 21.5363 77.3891 21.5841 77.5796 21.679C77.7692 21.7743 77.9256 21.9091 78.0485 22.0827C78.1714 22.2572 78.2404 22.4514 78.256 22.665V22.7129H75.37C75.4012 22.5748 75.445 22.4482 75.5011 22.3327H75.5006Z" fill="#002F5D"/>
<path d="M85.4643 20.2295V21.0535C85.3442 20.8892 85.2043 20.7414 85.0428 20.6098C84.8491 20.4519 84.6236 20.3267 84.3664 20.2355C84.1087 20.1448 83.8262 20.0992 83.5169 20.0992C82.9707 20.0992 82.4839 20.2396 82.0564 20.5209C81.6285 20.8017 81.2898 21.1861 81.0409 21.6731C80.7919 22.1602 80.6667 22.7209 80.6667 23.3543C80.6667 23.9877 80.7896 24.5503 81.0353 25.0414C81.2806 25.5326 81.6133 25.9202 82.0325 26.2056C82.4521 26.4906 82.9233 26.6333 83.4461 26.6333C83.7392 26.6333 84.0157 26.5877 84.2771 26.4966C84.5385 26.4054 84.7736 26.2825 84.9835 26.1283C85.1592 25.9985 85.312 25.8535 85.4408 25.6933V26.5145H87.1393V20.2295H85.4643ZM85.2922 24.3104C85.1611 24.5839 84.9775 24.7956 84.7396 24.9462C84.5021 25.0967 84.2251 25.1717 83.9085 25.1717C83.5919 25.1717 83.3283 25.0967 83.095 24.9462C82.8617 24.7956 82.6776 24.5839 82.5433 24.3104C82.4084 24.0374 82.3412 23.7184 82.3412 23.3543C82.3412 22.9902 82.408 22.685 82.5433 22.4157C82.6776 22.1464 82.8617 21.9346 83.095 21.7799C83.3287 21.6257 83.6002 21.5484 83.9085 21.5484C84.2168 21.5484 84.5021 21.6257 84.7396 21.7799C84.977 21.9346 85.1611 22.1464 85.2922 22.4157C85.4224 22.685 85.4882 22.998 85.4882 23.3543C85.4882 23.7106 85.4224 24.0374 85.2922 24.3104Z" fill="#002F5D"/>
<path d="M94.3536 21.2455C94.1912 20.8611 93.9501 20.5739 93.6293 20.3842C93.3086 20.1936 92.9106 20.0992 92.4357 20.0992C92.0873 20.0992 91.7547 20.1701 91.4385 20.3128C91.1215 20.4555 90.8505 20.6438 90.625 20.8772C90.5698 20.9348 90.5182 20.9937 90.4717 21.054L90.4414 20.23H88.8258V26.515H90.5122V22.737C90.5122 22.5708 90.5463 22.4161 90.613 22.2739C90.6807 22.1312 90.7718 22.0046 90.8863 21.8936C91.0009 21.7827 91.1394 21.6975 91.3023 21.6382C91.4643 21.5788 91.641 21.5493 91.8306 21.5493C92.068 21.5332 92.2677 21.5714 92.4306 21.6616C92.5926 21.7528 92.7136 21.8936 92.7928 22.0833C92.8719 22.2739 92.9115 22.5114 92.9115 22.7964V26.515H94.5979V22.6656C94.5979 22.1036 94.5165 21.6303 94.3545 21.2464L94.3536 21.2455Z" fill="#002F5D"/>
<path d="M27.0675 29.259C27.4605 29.259 27.7665 29.3677 27.986 29.5845C28.205 29.8013 28.315 30.1116 28.315 30.5148C28.315 30.9181 28.2055 31.2284 27.986 31.4452C27.7665 31.662 27.4605 31.7706 27.0675 31.7706H26.1813V29.26H27.0675V29.259ZM27.0675 31.4236C27.3335 31.4236 27.5374 31.3444 27.6777 31.186C27.8185 31.0277 27.8889 30.8035 27.8889 30.5144C27.8889 30.2253 27.8185 30.0016 27.6777 29.8427C27.5369 29.6844 27.3335 29.6047 27.0675 29.6047H26.5885V31.4231H27.0675V31.4236Z" fill="black"/>
<path d="M30.7865 31.7697V29.259H32.6041V29.6089H31.1933V30.3316H32.2963V30.6741H31.1933V31.4199H32.6575V31.7697H30.7865Z" fill="black"/>
<path d="M35.9278 29.2209C36.1533 29.2209 36.3484 29.2632 36.5136 29.3484C36.6784 29.4336 36.8178 29.5583 36.9319 29.7231L36.6581 29.9855C36.5619 29.8387 36.4533 29.7323 36.3328 29.6679C36.2122 29.6034 36.0696 29.5707 35.9048 29.5707C35.7834 29.5707 35.683 29.5873 35.6044 29.62C35.5257 29.6532 35.4681 29.6969 35.4313 29.7512C35.3945 29.806 35.3761 29.8672 35.3761 29.9358C35.3761 30.0145 35.4033 30.0831 35.458 30.1411C35.5123 30.1996 35.6145 30.2451 35.764 30.2783L36.2734 30.3925C36.5168 30.4459 36.6889 30.5269 36.7906 30.636C36.8919 30.7451 36.9429 30.8832 36.9429 31.0507C36.9429 31.2054 36.9011 31.3398 36.8173 31.454C36.7336 31.5682 36.6176 31.6556 36.4694 31.7164C36.3213 31.7772 36.1469 31.8075 35.9467 31.8075C35.7691 31.8075 35.6094 31.7845 35.4677 31.7389C35.3255 31.6934 35.2017 31.6312 35.095 31.5525C34.9887 31.4738 34.9012 31.384 34.8327 31.2823L35.1143 31.0006C35.1677 31.0894 35.2348 31.1686 35.3158 31.2381C35.3968 31.3081 35.4912 31.3619 35.5993 31.3997C35.707 31.4379 35.8266 31.4568 35.9587 31.4568C36.0751 31.4568 36.1759 31.443 36.261 31.4149C36.3457 31.3868 36.4105 31.3458 36.4547 31.291C36.4989 31.2367 36.5214 31.1713 36.5214 31.0949C36.5214 31.0185 36.4966 30.9568 36.4474 30.9011C36.3981 30.8454 36.3061 30.8022 36.1717 30.7718L35.6205 30.6461C35.4681 30.613 35.343 30.566 35.244 30.5052C35.1451 30.4445 35.0715 30.3704 35.0236 30.2829C34.9753 30.1954 34.9514 30.0969 34.9514 29.9883C34.9514 29.846 34.99 29.7176 35.0674 29.6021C35.1447 29.4865 35.2569 29.394 35.4037 29.3245C35.5505 29.255 35.7258 29.22 35.9288 29.22L35.9278 29.2209Z" fill="black"/>
<path d="M39.7876 29.259V31.7697H39.3808V29.259H39.7876Z" fill="black"/>
<path d="M43.4191 31.8079C43.1835 31.8079 42.9792 31.7559 42.8066 31.6519C42.6341 31.5478 42.4997 31.4001 42.4036 31.2086C42.3074 31.0171 42.2591 30.7855 42.2591 30.5144C42.2591 30.2432 42.3092 30.0186 42.4091 29.8257C42.5094 29.6328 42.6511 29.4841 42.8352 29.3787C43.0188 29.2733 43.23 29.2208 43.4683 29.2208C43.7293 29.2208 43.9405 29.2692 44.1015 29.3654C44.2626 29.4616 44.391 29.6112 44.4876 29.8142L44.1112 29.9928C44.0629 29.8533 43.9837 29.7488 43.8737 29.6789C43.7633 29.6094 43.6299 29.5744 43.4725 29.5744C43.3151 29.5744 43.178 29.6112 43.0597 29.6848C42.9419 29.7585 42.8499 29.8658 42.7841 30.0062C42.7183 30.147 42.6852 30.316 42.6852 30.5139C42.6852 30.7119 42.7142 30.885 42.7726 31.0254C42.831 31.1662 42.9189 31.2735 43.0367 31.3467C43.1545 31.4203 43.2995 31.4572 43.472 31.4572C43.5659 31.4572 43.6533 31.4452 43.7343 31.4208C43.8153 31.3969 43.8866 31.3614 43.9474 31.3145C44.0081 31.2675 44.0555 31.2081 44.09 31.1358C44.1245 31.0636 44.1416 30.9779 44.1416 30.879V30.8067H43.4113V30.4757H44.5028V31.7693H44.1986L44.1756 31.2634L44.2515 31.3016C44.1908 31.4613 44.09 31.5856 43.9492 31.6744C43.8084 31.7633 43.6317 31.8075 43.4187 31.8075L43.4191 31.8079Z" fill="black"/>
<path d="M49.0772 29.2591V31.7698H48.594L47.6245 30.1872L47.3811 29.742H47.3774L47.3926 30.149V31.7694H47.0198V29.2587H47.4989L48.4647 30.8376L48.7118 31.2901H48.7155L48.7003 30.8795V29.2591H49.0767H49.0772Z" fill="black"/>
<path d="M51.6858 31.7697V29.259H53.5034V29.6089H52.0925V30.3316H53.1955V30.6741H52.0925V31.4199H53.5567V31.7697H51.6858Z" fill="black"/>
<path d="M56.8574 29.259C57.2504 29.259 57.5564 29.3677 57.7759 29.5845C57.9949 29.8013 58.1049 30.1116 58.1049 30.5148C58.1049 30.9181 57.9954 31.2284 57.7759 31.4452C57.5564 31.662 57.2504 31.7706 56.8574 31.7706H55.9712V29.26H56.8574V29.259ZM56.8574 31.4236C57.1234 31.4236 57.3273 31.3444 57.4676 31.186C57.6084 31.0277 57.6788 30.8035 57.6788 30.5144C57.6788 30.2253 57.6084 30.0016 57.4676 29.8427C57.3268 29.6844 57.1234 29.6047 56.8574 29.6047H56.3784V31.4231H56.8574V31.4236Z" fill="black"/>
<path d="M65.4555 29.259V29.6089H64.5959V31.7697H64.1891V29.6089H63.3296V29.259H65.455H65.4555Z" fill="black"/>
<path d="M68.7635 29.2208C69.0069 29.2208 69.2172 29.2728 69.3948 29.3769C69.5725 29.4809 69.7091 29.6291 69.8053 29.822C69.9015 30.0149 69.9498 30.2455 69.9498 30.5144C69.9498 30.7832 69.9015 31.0138 69.8053 31.2067C69.7091 31.3996 69.572 31.5478 69.3948 31.6519C69.2172 31.7559 69.0069 31.8079 68.7635 31.8079C68.5201 31.8079 68.3135 31.7559 68.1359 31.6519C67.9582 31.5478 67.8216 31.3996 67.7254 31.2067C67.6292 31.0138 67.5809 30.7832 67.5809 30.5144C67.5809 30.2455 67.6292 30.0149 67.7254 29.822C67.8216 29.6291 67.9587 29.4809 68.1359 29.3769C68.3135 29.2728 68.5224 29.2208 68.7635 29.2208ZM68.7635 29.5748C68.6061 29.5748 68.4713 29.6117 68.3586 29.6853C68.2458 29.759 68.1589 29.8653 68.0981 30.0048C68.0374 30.1443 68.007 30.3141 68.007 30.5144C68.007 30.7146 68.0374 30.8813 68.0981 31.0221C68.1589 31.163 68.2458 31.2703 68.3586 31.3435C68.4713 31.4171 68.6061 31.4539 68.7635 31.4539C68.9209 31.4539 69.0594 31.4171 69.1721 31.3435C69.2849 31.2698 69.3718 31.1625 69.4326 31.0221C69.4933 30.8813 69.5237 30.7119 69.5237 30.5144C69.5237 30.3169 69.4933 30.1443 69.4326 30.0048C69.3718 29.8653 69.2849 29.759 69.1721 29.6853C69.0594 29.6117 68.9232 29.5748 68.7635 29.5748Z" fill="black"/>
<path d="M76.3804 29.2209C76.6059 29.2209 76.801 29.2632 76.9662 29.3484C77.131 29.4336 77.2704 29.5583 77.3845 29.7231L77.1107 29.9855C77.0145 29.8387 76.9059 29.7323 76.7854 29.6679C76.6648 29.6034 76.5222 29.5707 76.3574 29.5707C76.236 29.5707 76.1356 29.5873 76.057 29.62C75.9783 29.6532 75.9208 29.6969 75.8839 29.7512C75.8471 29.806 75.8287 29.8672 75.8287 29.9358C75.8287 30.0145 75.8559 30.0831 75.9106 30.1411C75.9649 30.1996 76.0671 30.2451 76.2166 30.2783L76.726 30.3925C76.9694 30.4459 77.1415 30.5269 77.2432 30.636C77.3445 30.7451 77.3955 30.8832 77.3955 31.0507C77.3955 31.2054 77.3537 31.3398 77.2699 31.454C77.1862 31.5682 77.0702 31.6556 76.922 31.7164C76.7739 31.7772 76.5995 31.8075 76.3993 31.8075C76.2217 31.8075 76.062 31.7845 75.9203 31.7389C75.7781 31.6934 75.6543 31.6312 75.5476 31.5525C75.4413 31.4738 75.3538 31.384 75.2853 31.2823L75.5669 31.0006C75.6203 31.0894 75.6875 31.1686 75.7684 31.2381C75.8494 31.3081 75.9438 31.3619 76.0519 31.3997C76.1596 31.4379 76.2792 31.4568 76.4113 31.4568C76.5277 31.4568 76.6285 31.443 76.7136 31.4149C76.7983 31.3868 76.8631 31.3458 76.9073 31.291C76.9515 31.2367 76.974 31.1713 76.974 31.0949C76.974 31.0185 76.9492 30.9568 76.9 30.9011C76.8507 30.8454 76.7587 30.8022 76.6243 30.7718L76.0731 30.6461C75.9208 30.613 75.7956 30.566 75.6967 30.5052C75.5977 30.4445 75.5241 30.3704 75.4762 30.2829C75.4279 30.1954 75.404 30.0969 75.404 29.9883C75.404 29.846 75.4426 29.7176 75.52 29.6021C75.5973 29.4865 75.7095 29.394 75.8563 29.3245C76.0031 29.255 76.1784 29.22 76.3814 29.22L76.3804 29.2209Z" fill="black"/>
<path d="M81.9133 31.1041C81.8627 31.2564 81.7868 31.3849 81.6851 31.4903C81.5838 31.5957 81.4646 31.6749 81.3275 31.7278C81.1904 31.7812 81.0399 31.8079 80.8752 31.8079C80.6345 31.8079 80.4252 31.7559 80.2475 31.6519C80.0699 31.5478 79.9333 31.3996 79.8371 31.2067C79.7409 31.0138 79.6926 30.7832 79.6926 30.5144C79.6926 30.2455 79.7409 30.0149 79.8371 29.822C79.9333 29.6291 80.0704 29.4809 80.2475 29.3769C80.4252 29.2728 80.6327 29.2208 80.871 29.2208C81.0358 29.2208 81.1849 29.2438 81.3179 29.2894C81.4508 29.335 81.5645 29.4036 81.6584 29.4947C81.7522 29.5859 81.8245 29.7 81.8751 29.8372L81.4909 30.0085C81.4403 29.8589 81.3666 29.7493 81.2705 29.6793C81.1743 29.6098 81.0487 29.5748 80.8941 29.5748C80.7394 29.5748 80.6037 29.6117 80.4873 29.6853C80.3704 29.759 80.2802 29.8653 80.2153 30.0048C80.1509 30.1443 80.1182 30.3141 80.1182 30.5144C80.1182 30.7146 80.1486 30.8813 80.2093 31.0221C80.2701 31.163 80.3575 31.2703 80.4716 31.3435C80.5858 31.4171 80.7224 31.4539 80.8821 31.4539C81.0418 31.4539 81.1706 31.4139 81.2833 31.3342C81.3961 31.2541 81.4766 31.1345 81.5249 30.9747L81.9128 31.1041H81.9133Z" fill="black"/>
<path d="M86.3851 31.7697H85.9553L85.7156 31.1114H84.6623L84.4226 31.7697H84.0043L84.9513 29.259H85.4381L86.3851 31.7697ZM84.7764 30.7805H85.6015L85.1906 29.6089L84.776 30.7805H84.7764Z" fill="black"/>
<path d="M89.1037 31.4199H90.4878V31.7697H88.6969V29.259H89.1037V31.4199Z" fill="black"/>
<path d="M92.842 31.7697V29.259H94.5971V29.6089H93.2488V30.3316H94.3518V30.6741H93.2488V31.4199H94.5971V31.7697H92.842Z" fill="black"/>
<path d="M13.6918 31.8076C16.7801 31.8076 19.2836 29.3031 19.2836 26.2136C19.2836 23.124 16.7801 20.6195 13.6918 20.6195C10.6036 20.6195 8.10003 23.124 8.10003 26.2136C8.10003 29.3031 10.6036 31.8076 13.6918 31.8076Z" fill="#002F5D"/>
<path d="M15.5973 18.0737C15.4523 18.5243 16.0975 18.3669 18.4116 20.1443C19.7985 21.21 20.5246 22.4193 20.3944 23.8104C20.0691 27.2837 14.7893 29.4786 8.44466 28.9391C2.0025 28.3908 0.347327 25.632 0.033962 25.9855C-0.45058 26.6618 4.289 30.9102 11.7315 30.8394C18.095 30.779 23.2423 27.669 22.9363 24.1764C22.7596 22.1573 21.6874 21.036 19.3282 19.4809C18.3798 18.8558 15.7399 17.698 15.5973 18.0732V18.0737Z" fill="#EE4345"/>
</g>
<defs>
<clipPath id="clip0_129_11280">
<rect width="94.5842" height="13.946" fill="white" transform="translate(0 18)"/>
</clipPath>
</defs>
</svg>
